<?xml version="1.0" encoding="UTF-8"?>
<!--Generator: Apple Native CoreSVG 175.5-->
<!DOCTYPE svg
PUBLIC "-//W3C//DTD SVG 1.1//EN"
       "http://www.w3.org/Graphics/SVG/1.1/DTD/svg11.dtd">
<svg version="1.1" xmlns="http://www.w3.org/2000/svg" xmlns:xlink="http://www.w3.org/1999/xlink" width="3300" height="2200">
 <!--glyph: "uni100E88.medium", point size: 100.0, font version: "18.0d12e2", template writer version: "101"-->
 <g id="Notes">
  <rect height="2200" id="artboard" style="fill:white;opacity:1" width="3300" x="0" y="0"/>
  <line style="fill:none;stroke:black;opacity:1;stroke-width:0.5;" x1="263" x2="3036" y1="292" y2="292"/>
  <text style="stroke:none;fill:black;font-family:sans-serif;font-size:13;font-weight:bold;" transform="matrix(1 0 0 1 263 322)">Weight/Scale Variations</text>
  <text style="stroke:none;fill:black;font-family:sans-serif;font-size:13;text-anchor:middle;" transform="matrix(1 0 0 1 559.711 322)">Ultralight</text>
  <text style="stroke:none;fill:black;font-family:sans-serif;font-size:13;text-anchor:middle;" transform="matrix(1 0 0 1 856.422 322)">Thin</text>
  <text style="stroke:none;fill:black;font-family:sans-serif;font-size:13;text-anchor:middle;" transform="matrix(1 0 0 1 1153.13 322)">Light</text>
  <text style="stroke:none;fill:black;font-family:sans-serif;font-size:13;text-anchor:middle;" transform="matrix(1 0 0 1 1449.84 322)">Regular</text>
  <text style="stroke:none;fill:black;font-family:sans-serif;font-size:13;text-anchor:middle;" transform="matrix(1 0 0 1 1746.56 322)">Medium</text>
  <text style="stroke:none;fill:black;font-family:sans-serif;font-size:13;text-anchor:middle;" transform="matrix(1 0 0 1 2043.27 322)">Semibold</text>
  <text style="stroke:none;fill:black;font-family:sans-serif;font-size:13;text-anchor:middle;" transform="matrix(1 0 0 1 2339.98 322)">Bold</text>
  <text style="stroke:none;fill:black;font-family:sans-serif;font-size:13;text-anchor:middle;" transform="matrix(1 0 0 1 2636.69 322)">Heavy</text>
  <text style="stroke:none;fill:black;font-family:sans-serif;font-size:13;text-anchor:middle;" transform="matrix(1 0 0 1 2933.4 322)">Black</text>
  <line style="fill:none;stroke:black;opacity:1;stroke-width:0.5;" x1="263" x2="3036" y1="1903" y2="1903"/>
  <g transform="matrix(1 0 0 1 263 1933)">
   <path d="M9.24805 0.830078C13.5547 0.830078 17.1387-2.74414 17.1387-7.05078C17.1387-11.3574 13.5449-14.9316 9.23828-14.9316C4.94141-14.9316 1.36719-11.3574 1.36719-7.05078C1.36719-2.74414 4.95117 0.830078 9.24805 0.830078ZM9.24805-0.654297C5.70312-0.654297 2.87109-3.49609 2.87109-7.05078C2.87109-10.6055 5.69336-13.4473 9.23828-13.4473C12.793-13.4473 15.6445-10.6055 15.6445-7.05078C15.6445-3.49609 12.8027-0.654297 9.24805-0.654297ZM5.6543-7.05078C5.6543-6.62109 5.95703-6.32812 6.40625-6.32812L8.50586-6.32812L8.50586-4.20898C8.50586-3.76953 8.79883-3.4668 9.22852-3.4668C9.67773-3.4668 9.9707-3.76953 9.9707-4.20898L9.9707-6.32812L12.0898-6.32812C12.5293-6.32812 12.832-6.62109 12.832-7.05078C12.832-7.49023 12.5293-7.79297 12.0898-7.79297L9.9707-7.79297L9.9707-9.90234C9.9707-10.3516 9.67773-10.6543 9.22852-10.6543C8.79883-10.6543 8.50586-10.3516 8.50586-9.90234L8.50586-7.79297L6.40625-7.79297C5.95703-7.79297 5.6543-7.49023 5.6543-7.05078Z"/>
  </g>
  <g transform="matrix(1 0 0 1 281.867 1933)">
   <path d="M11.709 2.91016C17.1582 2.91016 21.6699-1.61133 21.6699-7.05078C21.6699-12.5 17.1484-17.0117 11.6992-17.0117C6.25977-17.0117 1.74805-12.5 1.74805-7.05078C1.74805-1.61133 6.26953 2.91016 11.709 2.91016ZM11.709 1.25C7.09961 1.25 3.41797-2.44141 3.41797-7.05078C3.41797-11.6602 7.08984-15.3516 11.6992-15.3516C16.3086-15.3516 20.0098-11.6602 20.0098-7.05078C20.0098-2.44141 16.3184 1.25 11.709 1.25ZM7.17773-7.05078C7.17773-6.57227 7.50977-6.25 8.00781-6.25L10.8789-6.25L10.8789-3.36914C10.8789-2.88086 11.2109-2.53906 11.6895-2.53906C12.1777-2.53906 12.5195-2.87109 12.5195-3.36914L12.5195-6.25L15.4004-6.25C15.8887-6.25 16.2305-6.57227 16.2305-7.05078C16.2305-7.53906 15.8887-7.88086 15.4004-7.88086L12.5195-7.88086L12.5195-10.752C12.5195-11.25 12.1777-11.5918 11.6895-11.5918C11.2109-11.5918 10.8789-11.25 10.8789-10.752L10.8789-7.88086L8.00781-7.88086C7.50977-7.88086 7.17773-7.53906 7.17773-7.05078Z"/>
  </g>
  <g transform="matrix(1 0 0 1 305.646 1933)">
   <path d="M14.9707 5.66406C21.9336 5.66406 27.6953-0.0976562 27.6953-7.05078C27.6953-14.0137 21.9238-19.7754 14.9609-19.7754C8.00781-19.7754 2.25586-14.0137 2.25586-7.05078C2.25586-0.0976562 8.01758 5.66406 14.9707 5.66406ZM14.9707 3.84766C8.93555 3.84766 4.08203-1.01562 4.08203-7.05078C4.08203-13.0957 8.92578-17.9492 14.9609-17.9492C21.0059-17.9492 25.8691-13.0957 25.8691-7.05078C25.8691-1.01562 21.0156 3.84766 14.9707 3.84766ZM9.19922-7.05078C9.19922-6.5332 9.57031-6.17188 10.1172-6.17188L14.0625-6.17188L14.0625-2.2168C14.0625-1.67969 14.4336-1.29883 14.9512-1.29883C15.4883-1.29883 15.8594-1.66992 15.8594-2.2168L15.8594-6.17188L19.8145-6.17188C20.3516-6.17188 20.7324-6.5332 20.7324-7.05078C20.7324-7.59766 20.3613-7.96875 19.8145-7.96875L15.8594-7.96875L15.8594-11.9141C15.8594-12.4609 15.4883-12.8418 14.9512-12.8418C14.4336-12.8418 14.0625-12.4609 14.0625-11.9141L14.0625-7.96875L10.1172-7.96875C9.57031-7.96875 9.19922-7.59766 9.19922-7.05078Z"/>
  </g>
  <text style="stroke:none;fill:black;font-family:sans-serif;font-size:13;font-weight:bold;" transform="matrix(1 0 0 1 263 1953)">Design Variations</text>
  <text style="stroke:none;fill:black;font-family:sans-serif;font-size:13;" transform="matrix(1 0 0 1 263 1971)">Symbols are supported in up to nine weights and three scales.</text>
  <text style="stroke:none;fill:black;font-family:sans-serif;font-size:13;" transform="matrix(1 0 0 1 263 1989)">For optimal layout with text and other symbols, vertically align</text>
  <text style="stroke:none;fill:black;font-family:sans-serif;font-size:13;" transform="matrix(1 0 0 1 263 2007)">symbols with the adjacent text.</text>
  <line style="fill:none;stroke:#00AEEF;stroke-width:0.5;opacity:1.0;" x1="776" x2="776" y1="1919" y2="1933"/>
  <g transform="matrix(1 0 0 1 776 1933)">
   <path d="M3.31055 0.15625C3.82812 0.15625 4.08203-0.0390625 4.26758-0.585938L5.52734-4.0332L11.2891-4.0332L12.5488-0.585938C12.7344-0.0390625 12.9883 0.15625 13.4961 0.15625C14.0137 0.15625 14.3457-0.15625 14.3457-0.644531C14.3457-0.810547 14.3164-0.966797 14.2383-1.17188L9.6582-13.3691C9.43359-13.9648 9.0332-14.2676 8.4082-14.2676C7.80273-14.2676 7.39258-13.9746 7.17773-13.3789L2.59766-1.16211C2.51953-0.957031 2.49023-0.800781 2.49023-0.634766C2.49023-0.146484 2.80273 0.15625 3.31055 0.15625ZM6.00586-5.51758L8.37891-12.0898L8.42773-12.0898L10.8008-5.51758Z"/>
  </g>
  <line style="fill:none;stroke:#00AEEF;stroke-width:0.5;opacity:1.0;" x1="793.197" x2="793.197" y1="1919" y2="1933"/>
  <text style="stroke:none;fill:black;font-family:sans-serif;font-size:13;font-weight:bold;" transform="matrix(1 0 0 1 776 1953)">Margins</text>
  <text style="stroke:none;fill:black;font-family:sans-serif;font-size:13;" transform="matrix(1 0 0 1 776 1971)">Leading and trailing margins on the left and right side of each symbol</text>
  <text style="stroke:none;fill:black;font-family:sans-serif;font-size:13;" transform="matrix(1 0 0 1 776 1989)">can be adjusted by modifying the x-location of the margin guidelines.</text>
  <text style="stroke:none;fill:black;font-family:sans-serif;font-size:13;" transform="matrix(1 0 0 1 776 2007)">Modifications are automatically applied proportionally to all</text>
  <text style="stroke:none;fill:black;font-family:sans-serif;font-size:13;" transform="matrix(1 0 0 1 776 2025)">scales and weights.</text>
  <g transform="matrix(1 0 0 1 1289 1933)">
   <path d="M2.8418 1.86523L4.54102 3.57422C5.40039 4.44336 6.38672 4.38477 7.31445 3.35938L18.0078-8.42773L17.041-9.4043L6.42578 2.27539C6.07422 2.67578 5.74219 2.77344 5.27344 2.30469L4.10156 1.14258C3.63281 0.683594 3.74023 0.341797 4.14062-0.0195312L15.6152-10.8203L14.6387-11.7871L3.04688-0.898438C2.06055 0.0195312 1.98242 0.996094 2.8418 1.86523ZM9.25781-16.3281C8.83789-15.918 8.80859-15.3418 9.04297-14.9512C9.27734-14.5898 9.73633-14.3555 10.3809-14.5215C11.8457-14.8633 13.3691-14.9219 14.7949-13.9844L14.209-12.5293C13.8672-11.6992 14.043-11.1133 14.5801-10.5664L16.875-8.25195C17.3633-7.76367 17.7734-7.74414 18.3398-7.8418L19.4043-8.03711L20.0684-7.36328L20.0293-6.80664C19.9902-6.30859 20.1172-5.92773 20.6055-5.44922L21.3672-4.70703C21.8457-4.22852 22.4609-4.19922 22.9297-4.66797L25.8398-7.58789C26.3086-8.05664 26.2891-8.65234 25.8105-9.13086L25.0391-9.89258C24.5605-10.3711 24.1895-10.5273 23.7109-10.4883L23.1348-10.4395L22.4902-11.0742L22.7344-12.1973C22.8613-12.7637 22.7051-13.2031 22.1191-13.7891L19.9219-15.9766C16.582-19.2969 12.1484-19.2188 9.25781-16.3281ZM10.752-15.957C13.1836-17.7344 16.4746-17.4316 18.7012-15.2051L21.1328-12.793C21.3672-12.5586 21.4062-12.373 21.3379-12.0312L21.0156-10.5469L22.5195-9.0625L23.5059-9.12109C23.7598-9.13086 23.8379-9.11133 24.0332-8.91602L24.6094-8.33984L22.168-5.89844L21.5918-6.47461C21.3965-6.66992 21.3672-6.74805 21.377-7.01172L21.4453-7.98828L19.9512-9.47266L18.4277-9.21875C18.1055-9.15039 17.959-9.17969 17.7148-9.41406L15.7129-11.416C15.459-11.6504 15.4297-11.8164 15.5859-12.1875L16.4648-14.2773C14.9023-15.7324 12.8711-16.3574 10.8398-15.7617C10.6836-15.7227 10.625-15.8496 10.752-15.957Z"/>
  </g>
  <text style="stroke:none;fill:black;font-family:sans-serif;font-size:13;font-weight:bold;" transform="matrix(1 0 0 1 1289 1953)">Exporting</text>
  <text style="stroke:none;fill:black;font-family:sans-serif;font-size:13;" transform="matrix(1 0 0 1 1289 1971)">Symbols should be outlined when exporting to ensure the</text>
  <text style="stroke:none;fill:black;font-family:sans-serif;font-size:13;" transform="matrix(1 0 0 1 1289 1989)">design is preserved when submitting to Xcode.</text>
  <text id="template-version" style="stroke:none;fill:black;font-family:sans-serif;font-size:13;text-anchor:end;" transform="matrix(1 0 0 1 3036 1933)">Template v.4.0</text>
  <text style="stroke:none;fill:black;font-family:sans-serif;font-size:13;text-anchor:end;" transform="matrix(1 0 0 1 3036 1951)">Requires Xcode 14 or greater</text>
  <text id="descriptive-name" style="stroke:none;fill:black;font-family:sans-serif;font-size:13;text-anchor:end;" transform="matrix(1 0 0 1 3036 1969)">Generated from circle.grid.2x1.fill</text>
  <text style="stroke:none;fill:black;font-family:sans-serif;font-size:13;text-anchor:end;" transform="matrix(1 0 0 1 3036 1987)">Typeset at 100 points</text>
  <text style="stroke:none;fill:black;font-family:sans-serif;font-size:13;" transform="matrix(1 0 0 1 263 726)">Small</text>
  <text style="stroke:none;fill:black;font-family:sans-serif;font-size:13;" transform="matrix(1 0 0 1 263 1156)">Medium</text>
  <text style="stroke:none;fill:black;font-family:sans-serif;font-size:13;" transform="matrix(1 0 0 1 263 1586)">Large</text>
 </g>
 <g id="Guides">
  <g id="H-reference" style="fill:#27AAE1;stroke:none;" transform="matrix(1 0 0 1 339 696)">
   <path d="M0.993654 0L3.63775 0L29.3281-67.1323L30.0303-67.1323L30.0303-70.459L28.1226-70.459ZM11.6885-24.4799L46.9815-24.4799L46.2315-26.7285L12.4385-26.7285ZM55.1196 0L57.7637 0L30.6382-70.459L29.4326-70.459L29.4326-67.1323Z"/>
  </g>
  <line id="Baseline-S" style="fill:none;stroke:#27AAE1;opacity:1;stroke-width:0.5;" x1="263" x2="3036" y1="696" y2="696"/>
  <line id="Capline-S" style="fill:none;stroke:#27AAE1;opacity:1;stroke-width:0.5;" x1="263" x2="3036" y1="625.541" y2="625.541"/>
  <g id="H-reference" style="fill:#27AAE1;stroke:none;" transform="matrix(1 0 0 1 339 1126)">
   <path d="M0.993654 0L3.63775 0L29.3281-67.1323L30.0303-67.1323L30.0303-70.459L28.1226-70.459ZM11.6885-24.4799L46.9815-24.4799L46.2315-26.7285L12.4385-26.7285ZM55.1196 0L57.7637 0L30.6382-70.459L29.4326-70.459L29.4326-67.1323Z"/>
  </g>
  <line id="Baseline-M" style="fill:none;stroke:#27AAE1;opacity:1;stroke-width:0.5;" x1="263" x2="3036" y1="1126" y2="1126"/>
  <line id="Capline-M" style="fill:none;stroke:#27AAE1;opacity:1;stroke-width:0.5;" x1="263" x2="3036" y1="1055.54" y2="1055.54"/>
  <g id="H-reference" style="fill:#27AAE1;stroke:none;" transform="matrix(1 0 0 1 339 1556)">
   <path d="M0.993654 0L3.63775 0L29.3281-67.1323L30.0303-67.1323L30.0303-70.459L28.1226-70.459ZM11.6885-24.4799L46.9815-24.4799L46.2315-26.7285L12.4385-26.7285ZM55.1196 0L57.7637 0L30.6382-70.459L29.4326-70.459L29.4326-67.1323Z"/>
  </g>
  <line id="Baseline-L" style="fill:none;stroke:#27AAE1;opacity:1;stroke-width:0.5;" x1="263" x2="3036" y1="1556" y2="1556"/>
  <line id="Capline-L" style="fill:none;stroke:#27AAE1;opacity:1;stroke-width:0.5;" x1="263" x2="3036" y1="1485.54" y2="1485.54"/>
  <line id="left-margin-Regular-M" style="fill:none;stroke:#00AEEF;stroke-width:0.5;opacity:1.0;" x1="1377.15" x2="1377.15" y1="1030.79" y2="1150.12"/>
  <line id="right-margin-Regular-M" style="fill:none;stroke:#00AEEF;stroke-width:0.5;opacity:1.0;" x1="1522.54" x2="1522.54" y1="1030.79" y2="1150.12"/>
 </g>
 <g id="Symbols">
  <g id="Black-L" transform="matrix(1 0 0 1 2829.39 1556)">
   <path d="M52.7775 6.32703C75.719 6.32703 94.3706-12.3258 94.3706-35.2697C94.3706-58.1344 75.719-76.7872 52.7775-76.7872C29.8872-76.7872 11.2588-58.1344 11.2588-35.2697C11.2588-12.3258 29.8288 6.32703 52.7775 6.32703ZM155.173 6.32703C178.114 6.32703 196.765-12.3258 196.765-35.2697C196.765-58.1344 178.114-76.7872 155.173-76.7872C132.281-76.7872 113.654-58.1344 113.654-35.2697C113.654-12.3258 132.223 6.32703 155.173 6.32703Z"/>
  </g>
  <g id="Heavy-L" transform="matrix(1 0 0 1 2535.27 1556)">
   <path d="M51.5504 5.09114C73.7766 5.09114 91.8944-13.0323 91.8944-35.2697C91.8944-57.4323 73.7766-75.5557 51.5504-75.5557C29.3352-75.5557 11.2588-57.4323 11.2588-35.2697C11.2588-13.0323 29.2906 5.09114 51.5504 5.09114ZM151.243 5.09114C173.469 5.09114 191.582-13.0323 191.582-35.2697C191.582-57.4323 173.469-75.5557 151.243-75.5557C129.022-75.5557 110.951-57.4323 110.951-35.2697C110.951-13.0323 128.978 5.09114 151.243 5.09114Z"/>
  </g>
  <g id="Bold-L" transform="matrix(1 0 0 1 2241.8 1556)">
   <path d="M50.044 3.56943C71.379 3.56943 88.8434-13.9082 88.8434-35.2697C88.8434-56.564 71.379-74.0416 50.044-74.0416C28.6588-74.0416 11.2588-56.564 11.2588-35.2697C11.2588-13.9082 28.6296 3.56943 50.044 3.56943ZM146.312 3.56943C167.647 3.56943 185.098-13.9082 185.098-35.2697C185.098-56.564 167.647-74.0416 146.312-74.0416C124.914-74.0416 107.527-56.564 107.527-35.2697C107.527-13.9082 124.884 3.56943 146.312 3.56943Z"/>
  </g>
  <g id="Semibold-L" transform="matrix(1 0 0 1 1947.32 1556)">
   <path d="M49.0054 2.52038C69.7261 2.52038 86.74-14.5121 86.74-35.2697C86.74-55.9654 69.7261-72.9978 49.0054-72.9978C28.1925-72.9978 11.2588-55.9654 11.2588-35.2697C11.2588-14.5121 28.1739 2.52038 49.0054 2.52038ZM142.913 2.52038C163.633 2.52038 180.629-14.5121 180.629-35.2697C180.629-55.9654 163.633-72.9978 142.913-72.9978C122.081-72.9978 105.166-55.9654 105.166-35.2697C105.166-14.5121 122.063 2.52038 142.913 2.52038Z"/>
  </g>
  <g id="Medium-L" transform="matrix(1 0 0 1 1652.31 1556)">
   <path d="M48.2179 1.72494C68.4727 1.72494 85.1452-14.97 85.1452-35.2697C85.1452-55.5115 68.4727-72.2064 48.2179-72.2064C27.8389-72.2064 11.2588-55.5115 11.2588-35.2697C11.2588-14.97 27.8284 1.72494 48.2179 1.72494ZM140.335 1.72494C160.59 1.72494 177.24-14.97 177.24-35.2697C177.24-55.5115 160.59-72.2064 140.335-72.2064C119.933-72.2064 103.376-55.5115 103.376-35.2697C103.376-14.97 119.923 1.72494 140.335 1.72494Z"/>
  </g>
  <g id="Regular-L" transform="matrix(1 0 0 1 1357.81 1556)">
   <path d="M47.1908 0.687415C66.838 0.687415 83.0649-15.5672 83.0649-35.2697C83.0649-54.9194 66.838-71.1741 47.1908-71.1741C27.3777-71.1741 11.2588-54.9194 11.2588-35.2697C11.2588-15.5672 27.3777 0.687415 47.1908 0.687415ZM136.973 0.687415C156.62 0.687415 172.819-15.5672 172.819-35.2697C172.819-54.9194 156.62-71.1741 136.973-71.1741C117.132-71.1741 101.041-54.9194 101.041-35.2697C101.041-15.5672 117.132 0.687415 136.973 0.687415Z"/>
  </g>
  <g id="Light-L" transform="matrix(1 0 0 1 1063.54 1556)">
   <path d="M46.2365-0.30502C65.2348-0.30502 81.061-16.1779 81.061-35.2697C81.061-54.3278 65.2348-70.2007 46.2365-70.2007C26.9578-70.2007 11.2588-54.3278 11.2588-35.2697C11.2588-16.1779 26.9578-0.30502 46.2365-0.30502ZM133.156-0.30502C152.154-0.30502 167.933-16.1779 167.933-35.2697C167.933-54.3278 152.154-70.2007 133.156-70.2007C113.83-70.2007 98.178-54.3278 98.178-35.2697C98.178-16.1779 113.83-0.30502 133.156-0.30502Z"/>
  </g>
  <g id="Thin-L" transform="matrix(1 0 0 1 770.057 1556)">
   <path d="M44.9744-1.61759C63.1145-1.61759 78.4106-16.9857 78.4106-35.2697C78.4106-53.5453 63.1145-68.9134 44.9744-68.9134C26.4025-68.9134 11.2588-53.5453 11.2588-35.2697C11.2588-16.9857 26.4025-1.61759 44.9744-1.61759ZM128.107-1.61759C146.247-1.61759 161.472-16.9857 161.472-35.2697C161.472-53.5453 146.247-68.9134 128.107-68.9134C109.463-68.9134 94.3917-53.5453 94.3917-35.2697C94.3917-16.9857 109.463-1.61759 128.107-1.61759Z"/>
  </g>
  <g id="Ultralight-L" transform="matrix(1 0 0 1 475.001 1556)">
   <path d="M44.328-2.28989C62.0285-2.28989 77.0531-17.3994 77.0531-35.2697C77.0531-53.1445 62.0285-68.254 44.328-68.254C26.1181-68.254 11.2588-53.1445 11.2588-35.2697C11.2588-17.3994 26.1181-2.28989 44.328-2.28989ZM125.522-2.28989C143.222-2.28989 158.162-17.3994 158.162-35.2697C158.162-53.1445 143.222-68.254 125.522-68.254C107.227-68.254 92.4524-53.1445 92.4524-35.2697C92.4524-17.3994 107.227-2.28989 125.522-2.28989Z"/>
  </g>
  <g id="Black-M" transform="matrix(1 0 0 1 2850.92 1126)">
   <path d="M41.8142-2.10621C60.1148-2.10621 74.9695-16.9606 74.9695-35.2606C74.9695-53.4981 60.1148-68.3525 41.8142-68.3525C23.5724-68.3525 8.72266-53.4981 8.72266-35.2606C8.72266-16.9606 23.5153-2.10621 41.8142-2.10621ZM123.079-2.10621C141.379-2.10621 156.234-16.9606 156.234-35.2606C156.234-53.4981 141.379-68.3525 123.079-68.3525C104.837-68.3525 89.9873-53.4981 89.9873-35.2606C89.9873-16.9606 104.78-2.10621 123.079-2.10621Z"/>
  </g>
  <g id="Heavy-M" transform="matrix(1 0 0 1 2556.52 1126)">
   <path d="M40.7027-3.22282C58.3639-3.22282 72.7337-17.5949 72.7337-35.2606C72.7337-52.8663 58.3639-67.2384 40.7027-67.2384C23.0715-67.2384 8.72266-52.8663 8.72266-35.2606C8.72266-17.5949 23.0279-3.22282 40.7027-3.22282ZM119.59-3.22282C137.251-3.22282 151.618-17.5949 151.618-35.2606C151.618-52.8663 137.251-67.2384 119.59-67.2384C101.956-67.2384 87.6095-52.8663 87.6095-35.2606C87.6095-17.5949 101.912-3.22282 119.59-3.22282Z"/>
  </g>
  <g id="Bold-M" transform="matrix(1 0 0 1 2262.39 1126)">
   <path d="M39.4593-4.47192C56.4053-4.47192 70.2327-18.3045 70.2327-35.2606C70.2327-52.1597 56.4053-65.9922 39.4593-65.9922C22.5112-65.9922 8.72266-52.1597 8.72266-35.2606C8.72266-18.3045 22.4826-4.47192 39.4593-4.47192ZM115.686-4.47192C132.632-4.47192 146.454-18.3045 146.454-35.2606C146.454-52.1597 132.632-65.9922 115.686-65.9922C98.7329-65.9922 84.9496-52.1597 84.9496-35.2606C84.9496-18.3045 98.7044-4.47192 115.686-4.47192Z"/>
  </g>
  <g id="Semibold-M" transform="matrix(1 0 0 1 1967.46 1126)">
   <path d="M38.6022-5.33303C55.055-5.33303 68.5085-18.7936 68.5085-35.2606C68.5085-51.6725 55.055-65.1331 38.6022-65.1331C22.1249-65.1331 8.72266-51.6725 8.72266-35.2606C8.72266-18.7936 22.1067-5.33303 38.6022-5.33303ZM112.995-5.33303C129.448-5.33303 142.895-18.7936 142.895-35.2606C142.895-51.6725 129.448-65.1331 112.995-65.1331C96.511-65.1331 83.1158-51.6725 83.1158-35.2606C83.1158-18.7936 96.4928-5.33303 112.995-5.33303Z"/>
  </g>
  <g id="Medium-M" transform="matrix(1 0 0 1 1672.1 1126)">
   <path d="M37.9522-5.98597C54.0312-5.98597 67.2011-19.1645 67.2011-35.2606C67.2011-51.3031 54.0312-64.4816 37.9522-64.4816C21.832-64.4816 8.72266-51.3031 8.72266-35.2606C8.72266-19.1645 21.8217-5.98597 37.9522-5.98597ZM110.955-5.98597C127.034-5.98597 140.195-19.1645 140.195-35.2606C140.195-51.3031 127.034-64.4816 110.955-64.4816C94.8261-64.4816 81.7254-51.3031 81.7254-35.2606C81.7254-19.1645 94.8159-5.98597 110.955-5.98597Z"/>
  </g>
  <g id="Regular-M" transform="matrix(1 0 0 1 1377.15 1126)">
   <path d="M37.1045-6.83762C52.6957-6.83762 65.4959-19.6483 65.4959-35.2606C65.4959-50.8213 52.6957-63.6319 37.1045-63.6319C21.4499-63.6319 8.72266-50.8213 8.72266-35.2606C8.72266-19.6483 21.4499-6.83762 37.1045-6.83762ZM108.294-6.83762C123.885-6.83762 136.675-19.6483 136.675-35.2606C136.675-50.8213 123.885-63.6319 108.294-63.6319C92.6286-63.6319 79.9119-50.8213 79.9119-35.2606C79.9119-19.6483 92.6286-6.83762 108.294-6.83762Z"/>
  </g>
  <g id="Light-M" transform="matrix(1 0 0 1 1082.62 1126)">
   <path d="M36.2489-7.72739C51.2584-7.72739 63.6992-20.1958 63.6992-35.2606C63.6992-50.2908 51.2584-62.7593 36.2489-62.7593C21.0735-62.7593 8.72266-50.2908 8.72266-35.2606C8.72266-20.1958 21.0735-7.72739 36.2489-7.72739ZM104.872-7.72739C119.881-7.72739 132.294-20.1958 132.294-35.2606C132.294-50.2908 119.881-62.7593 104.872-62.7593C89.6684-62.7593 77.3452-50.2908 77.3452-35.2606C77.3452-20.1958 89.6684-7.72739 104.872-7.72739Z"/>
  </g>
  <g id="Thin-M" transform="matrix(1 0 0 1 788.811 1126)">
   <path d="M35.1174-8.90418C49.3575-8.90418 61.323-20.92 61.323-35.2606C61.323-49.5893 49.3575-61.6051 35.1174-61.6051C20.5756-61.6051 8.72266-49.5893 8.72266-35.2606C8.72266-20.92 20.5756-8.90418 35.1174-8.90418ZM100.345-8.90418C114.585-8.90418 126.501-20.92 126.501-35.2606C126.501-49.5893 114.585-61.6051 100.345-61.6051C85.7533-61.6051 73.9506-49.5893 73.9506-35.2606C73.9506-20.92 85.7533-8.90418 100.345-8.90418Z"/>
  </g>
  <g id="Ultralight-M" transform="matrix(1 0 0 1 493.583 1126)">
   <path d="M34.5378-9.50693C48.3838-9.50693 60.1059-21.2909 60.1059-35.2606C60.1059-49.2299 48.3838-61.0139 34.5378-61.0139C20.3206-61.0139 8.72266-49.2299 8.72266-35.2606C8.72266-21.2909 20.3206-9.50693 34.5378-9.50693ZM98.0271-9.50693C111.873-9.50693 123.533-21.2909 123.533-35.2606C123.533-49.2299 111.873-61.0139 98.0271-61.0139C83.748-61.0139 72.212-49.2299 72.212-35.2606C72.212-21.2909 83.748-9.50693 98.0271-9.50693Z"/>
  </g>
  <g id="Black-S" transform="matrix(1 0 0 1 2868.19 696)">
   <path d="M33.0566-8.98438C47.5586-8.98438 59.3262-20.752 59.3262-35.2539C59.3262-49.707 47.5586-61.4746 33.0566-61.4746C18.6035-61.4746 6.83594-49.707 6.83594-35.2539C6.83594-20.752 18.5547-8.98438 33.0566-8.98438ZM97.3145-8.98438C111.816-8.98438 123.584-20.752 123.584-35.2539C123.584-49.707 111.816-61.4746 97.3145-61.4746C82.8613-61.4746 71.0938-49.707 71.0938-35.2539C71.0938-20.752 82.8125-8.98438 97.3145-8.98438Z"/>
  </g>
  <g id="Heavy-S" transform="matrix(1 0 0 1 2573.17 696)">
   <path d="M32.2154-9.82566C46.2448-9.82566 57.6436-21.2245 57.6436-35.2539C57.6436-49.2345 46.2448-60.6333 32.2154-60.6333C18.2232-60.6333 6.83594-49.2345 6.83594-35.2539C6.83594-21.2245 18.1859-9.82566 32.2154-9.82566ZM94.7675-9.82566C108.797-9.82566 120.196-21.2245 120.196-35.2539C120.196-49.2345 108.797-60.6333 94.7675-60.6333C80.7754-60.6333 69.3881-49.2345 69.3881-35.2539C69.3881-21.2245 80.7381-9.82566 94.7675-9.82566Z"/>
  </g>
  <g id="Bold-S" transform="matrix(1 0 0 1 2278.36 696)">
   <path d="M31.2744-10.7666C44.7754-10.7666 55.7617-21.7529 55.7617-35.2539C55.7617-48.7061 44.7754-59.6924 31.2744-59.6924C17.7979-59.6924 6.83594-48.7061 6.83594-35.2539C6.83594-21.7529 17.7734-10.7666 31.2744-10.7666ZM91.9189-10.7666C105.42-10.7666 116.406-21.7529 116.406-35.2539C116.406-48.7061 105.42-59.6924 91.9189-59.6924C78.4424-59.6924 67.4805-48.7061 67.4805-35.2539C67.4805-21.7529 78.418-10.7666 91.9189-10.7666Z"/>
  </g>
  <g id="Semibold-S" transform="matrix(1 0 0 1 1982.95 696)">
   <path d="M30.6257-11.4153C43.7623-11.4153 54.4643-22.1173 54.4643-35.2539C54.4643-48.3417 43.7623-59.0437 30.6257-59.0437C17.5046-59.0437 6.83594-48.3417 6.83594-35.2539C6.83594-22.1173 17.4891-11.4153 30.6257-11.4153ZM89.955-11.4153C103.092-11.4153 113.794-22.1173 113.794-35.2539C113.794-48.3417 103.092-59.0437 89.955-59.0437C76.8339-59.0437 66.1652-48.3417 66.1652-35.2539C66.1652-22.1173 76.8184-11.4153 89.955-11.4153Z"/>
  </g>
  <g id="Medium-S" transform="matrix(1 0 0 1 1687.23 696)">
   <path d="M30.1338-11.9072C42.9941-11.9072 53.4805-22.3936 53.4805-35.2539C53.4805-48.0654 42.9941-58.5518 30.1338-58.5518C17.2822-58.5518 6.83594-48.0654 6.83594-35.2539C6.83594-22.3936 17.2734-11.9072 30.1338-11.9072ZM88.4658-11.9072C101.326-11.9072 111.812-22.3936 111.812-35.2539C111.812-48.0654 101.326-58.5518 88.4658-58.5518C75.6143-58.5518 65.168-48.0654 65.168-35.2539C65.168-22.3936 75.6055-11.9072 88.4658-11.9072Z"/>
  </g>
  <g id="Regular-S" transform="matrix(1 0 0 1 1391.81 696)">
   <path d="M29.4922-12.5488C41.9922-12.5488 52.1973-22.7539 52.1973-35.2539C52.1973-47.7051 41.9922-57.9102 29.4922-57.9102C16.9922-57.9102 6.83594-47.7051 6.83594-35.2539C6.83594-22.7539 16.9922-12.5488 29.4922-12.5488ZM86.5234-12.5488C99.0234-12.5488 109.229-22.7539 109.229-35.2539C109.229-47.7051 99.0234-57.9102 86.5234-57.9102C74.0234-57.9102 63.8672-47.7051 63.8672-35.2539C63.8672-22.7539 74.0234-12.5488 86.5234-12.5488Z"/>
  </g>
  <g id="Light-S" transform="matrix(1 0 0 1 1097.04 696)">
   <path d="M28.7354-13.3359C40.7207-13.3359 50.6079-23.2383 50.6079-35.2539C50.6079-47.2358 40.7207-57.1382 28.7354-57.1382C16.6592-57.1382 6.83594-47.2358 6.83594-35.2539C6.83594-23.2383 16.6592-13.3359 28.7354-13.3359ZM83.4961-13.3359C95.4815-13.3359 105.354-23.2383 105.354-35.2539C105.354-47.2358 95.4815-57.1382 83.4961-57.1382C71.4048-57.1382 61.5967-47.2358 61.5967-35.2539C61.5967-23.2383 71.4048-13.3359 83.4961-13.3359Z"/>
  </g>
  <g id="Thin-S" transform="matrix(1 0 0 1 802.89 696)">
   <path d="M27.7344-14.3769C39.0391-14.3769 48.5059-23.8789 48.5059-35.2539C48.5059-46.6152 39.0391-56.1172 27.7344-56.1172C16.2188-56.1172 6.83594-46.6152 6.83594-35.2539C6.83594-23.8789 16.2188-14.3769 27.7344-14.3769ZM79.4922-14.3769C90.7969-14.3769 100.229-23.8789 100.229-35.2539C100.229-46.6152 90.7969-56.1172 79.4922-56.1172C67.9415-56.1172 58.5938-46.6152 58.5938-35.2539C58.5938-23.8789 67.9415-14.3769 79.4922-14.3769Z"/>
  </g>
  <g id="Ultralight-S" transform="matrix(1 0 0 1 507.491 696)">
   <path d="M27.2217-14.9101C38.1778-14.9101 47.4292-24.207 47.4292-35.2539C47.4292-46.2974 38.1778-55.5943 27.2217-55.5943C15.9932-55.5943 6.83594-46.2974 6.83594-35.2539C6.83594-24.207 15.9932-14.9101 27.2217-14.9101ZM77.4415-14.9101C88.3975-14.9101 97.6036-24.207 97.6036-35.2539C97.6036-46.2974 88.3975-55.5943 77.4415-55.5943C66.1675-55.5943 57.0557-46.2974 57.0557-35.2539C57.0557-24.207 66.1675-14.9101 77.4415-14.9101Z"/>
  </g>
 </g>
</svg>
