<?xml version="1.0" encoding="UTF-8"?>
<!--Generator: Apple Native CoreSVG 175.5-->
<!DOCTYPE svg
PUBLIC "-//W3C//DTD SVG 1.1//EN"
       "http://www.w3.org/Graphics/SVG/1.1/DTD/svg11.dtd">
<svg version="1.1" xmlns="http://www.w3.org/2000/svg" xmlns:xlink="http://www.w3.org/1999/xlink" width="3300" height="2200">
 <!--glyph: "uni10148A.medium", point size: 100.0, font version: "18.0d12e2", template writer version: "101"-->
 <g id="Notes">
  <rect height="2200" id="artboard" style="fill:white;opacity:1" width="3300" x="0" y="0"/>
  <line style="fill:none;stroke:black;opacity:1;stroke-width:0.5;" x1="263" x2="3036" y1="292" y2="292"/>
  <text style="stroke:none;fill:black;font-family:sans-serif;font-size:13;font-weight:bold;" transform="matrix(1 0 0 1 263 322)">Weight/Scale Variations</text>
  <text style="stroke:none;fill:black;font-family:sans-serif;font-size:13;text-anchor:middle;" transform="matrix(1 0 0 1 559.711 322)">Ultralight</text>
  <text style="stroke:none;fill:black;font-family:sans-serif;font-size:13;text-anchor:middle;" transform="matrix(1 0 0 1 856.422 322)">Thin</text>
  <text style="stroke:none;fill:black;font-family:sans-serif;font-size:13;text-anchor:middle;" transform="matrix(1 0 0 1 1153.13 322)">Light</text>
  <text style="stroke:none;fill:black;font-family:sans-serif;font-size:13;text-anchor:middle;" transform="matrix(1 0 0 1 1449.84 322)">Regular</text>
  <text style="stroke:none;fill:black;font-family:sans-serif;font-size:13;text-anchor:middle;" transform="matrix(1 0 0 1 1746.56 322)">Medium</text>
  <text style="stroke:none;fill:black;font-family:sans-serif;font-size:13;text-anchor:middle;" transform="matrix(1 0 0 1 2043.27 322)">Semibold</text>
  <text style="stroke:none;fill:black;font-family:sans-serif;font-size:13;text-anchor:middle;" transform="matrix(1 0 0 1 2339.98 322)">Bold</text>
  <text style="stroke:none;fill:black;font-family:sans-serif;font-size:13;text-anchor:middle;" transform="matrix(1 0 0 1 2636.69 322)">Heavy</text>
  <text style="stroke:none;fill:black;font-family:sans-serif;font-size:13;text-anchor:middle;" transform="matrix(1 0 0 1 2933.4 322)">Black</text>
  <line style="fill:none;stroke:black;opacity:1;stroke-width:0.5;" x1="263" x2="3036" y1="1903" y2="1903"/>
  <g transform="matrix(1 0 0 1 263 1933)">
   <path d="M9.24805 0.830078C13.5547 0.830078 17.1387-2.74414 17.1387-7.05078C17.1387-11.3574 13.5449-14.9316 9.23828-14.9316C4.94141-14.9316 1.36719-11.3574 1.36719-7.05078C1.36719-2.74414 4.95117 0.830078 9.24805 0.830078ZM9.24805-0.654297C5.70312-0.654297 2.87109-3.49609 2.87109-7.05078C2.87109-10.6055 5.69336-13.4473 9.23828-13.4473C12.793-13.4473 15.6445-10.6055 15.6445-7.05078C15.6445-3.49609 12.8027-0.654297 9.24805-0.654297ZM5.6543-7.05078C5.6543-6.62109 5.95703-6.32812 6.40625-6.32812L8.50586-6.32812L8.50586-4.20898C8.50586-3.76953 8.79883-3.4668 9.22852-3.4668C9.67773-3.4668 9.9707-3.76953 9.9707-4.20898L9.9707-6.32812L12.0898-6.32812C12.5293-6.32812 12.832-6.62109 12.832-7.05078C12.832-7.49023 12.5293-7.79297 12.0898-7.79297L9.9707-7.79297L9.9707-9.90234C9.9707-10.3516 9.67773-10.6543 9.22852-10.6543C8.79883-10.6543 8.50586-10.3516 8.50586-9.90234L8.50586-7.79297L6.40625-7.79297C5.95703-7.79297 5.6543-7.49023 5.6543-7.05078Z"/>
  </g>
  <g transform="matrix(1 0 0 1 281.867 1933)">
   <path d="M11.709 2.91016C17.1582 2.91016 21.6699-1.61133 21.6699-7.05078C21.6699-12.5 17.1484-17.0117 11.6992-17.0117C6.25977-17.0117 1.74805-12.5 1.74805-7.05078C1.74805-1.61133 6.26953 2.91016 11.709 2.91016ZM11.709 1.25C7.09961 1.25 3.41797-2.44141 3.41797-7.05078C3.41797-11.6602 7.08984-15.3516 11.6992-15.3516C16.3086-15.3516 20.0098-11.6602 20.0098-7.05078C20.0098-2.44141 16.3184 1.25 11.709 1.25ZM7.17773-7.05078C7.17773-6.57227 7.50977-6.25 8.00781-6.25L10.8789-6.25L10.8789-3.36914C10.8789-2.88086 11.2109-2.53906 11.6895-2.53906C12.1777-2.53906 12.5195-2.87109 12.5195-3.36914L12.5195-6.25L15.4004-6.25C15.8887-6.25 16.2305-6.57227 16.2305-7.05078C16.2305-7.53906 15.8887-7.88086 15.4004-7.88086L12.5195-7.88086L12.5195-10.752C12.5195-11.25 12.1777-11.5918 11.6895-11.5918C11.2109-11.5918 10.8789-11.25 10.8789-10.752L10.8789-7.88086L8.00781-7.88086C7.50977-7.88086 7.17773-7.53906 7.17773-7.05078Z"/>
  </g>
  <g transform="matrix(1 0 0 1 305.646 1933)">
   <path d="M14.9707 5.66406C21.9336 5.66406 27.6953-0.0976562 27.6953-7.05078C27.6953-14.0137 21.9238-19.7754 14.9609-19.7754C8.00781-19.7754 2.25586-14.0137 2.25586-7.05078C2.25586-0.0976562 8.01758 5.66406 14.9707 5.66406ZM14.9707 3.84766C8.93555 3.84766 4.08203-1.01562 4.08203-7.05078C4.08203-13.0957 8.92578-17.9492 14.9609-17.9492C21.0059-17.9492 25.8691-13.0957 25.8691-7.05078C25.8691-1.01562 21.0156 3.84766 14.9707 3.84766ZM9.19922-7.05078C9.19922-6.5332 9.57031-6.17188 10.1172-6.17188L14.0625-6.17188L14.0625-2.2168C14.0625-1.67969 14.4336-1.29883 14.9512-1.29883C15.4883-1.29883 15.8594-1.66992 15.8594-2.2168L15.8594-6.17188L19.8145-6.17188C20.3516-6.17188 20.7324-6.5332 20.7324-7.05078C20.7324-7.59766 20.3613-7.96875 19.8145-7.96875L15.8594-7.96875L15.8594-11.9141C15.8594-12.4609 15.4883-12.8418 14.9512-12.8418C14.4336-12.8418 14.0625-12.4609 14.0625-11.9141L14.0625-7.96875L10.1172-7.96875C9.57031-7.96875 9.19922-7.59766 9.19922-7.05078Z"/>
  </g>
  <text style="stroke:none;fill:black;font-family:sans-serif;font-size:13;font-weight:bold;" transform="matrix(1 0 0 1 263 1953)">Design Variations</text>
  <text style="stroke:none;fill:black;font-family:sans-serif;font-size:13;" transform="matrix(1 0 0 1 263 1971)">Symbols are supported in up to nine weights and three scales.</text>
  <text style="stroke:none;fill:black;font-family:sans-serif;font-size:13;" transform="matrix(1 0 0 1 263 1989)">For optimal layout with text and other symbols, vertically align</text>
  <text style="stroke:none;fill:black;font-family:sans-serif;font-size:13;" transform="matrix(1 0 0 1 263 2007)">symbols with the adjacent text.</text>
  <line style="fill:none;stroke:#00AEEF;stroke-width:0.5;opacity:1.0;" x1="776" x2="776" y1="1919" y2="1933"/>
  <g transform="matrix(1 0 0 1 776 1933)">
   <path d="M3.31055 0.15625C3.82812 0.15625 4.08203-0.0390625 4.26758-0.585938L5.52734-4.0332L11.2891-4.0332L12.5488-0.585938C12.7344-0.0390625 12.9883 0.15625 13.4961 0.15625C14.0137 0.15625 14.3457-0.15625 14.3457-0.644531C14.3457-0.810547 14.3164-0.966797 14.2383-1.17188L9.6582-13.3691C9.43359-13.9648 9.0332-14.2676 8.4082-14.2676C7.80273-14.2676 7.39258-13.9746 7.17773-13.3789L2.59766-1.16211C2.51953-0.957031 2.49023-0.800781 2.49023-0.634766C2.49023-0.146484 2.80273 0.15625 3.31055 0.15625ZM6.00586-5.51758L8.37891-12.0898L8.42773-12.0898L10.8008-5.51758Z"/>
  </g>
  <line style="fill:none;stroke:#00AEEF;stroke-width:0.5;opacity:1.0;" x1="793.197" x2="793.197" y1="1919" y2="1933"/>
  <text style="stroke:none;fill:black;font-family:sans-serif;font-size:13;font-weight:bold;" transform="matrix(1 0 0 1 776 1953)">Margins</text>
  <text style="stroke:none;fill:black;font-family:sans-serif;font-size:13;" transform="matrix(1 0 0 1 776 1971)">Leading and trailing margins on the left and right side of each symbol</text>
  <text style="stroke:none;fill:black;font-family:sans-serif;font-size:13;" transform="matrix(1 0 0 1 776 1989)">can be adjusted by modifying the x-location of the margin guidelines.</text>
  <text style="stroke:none;fill:black;font-family:sans-serif;font-size:13;" transform="matrix(1 0 0 1 776 2007)">Modifications are automatically applied proportionally to all</text>
  <text style="stroke:none;fill:black;font-family:sans-serif;font-size:13;" transform="matrix(1 0 0 1 776 2025)">scales and weights.</text>
  <g transform="matrix(1 0 0 1 1289 1933)">
   <path d="M2.8418 1.86523L4.54102 3.57422C5.40039 4.44336 6.38672 4.38477 7.31445 3.35938L18.0078-8.42773L17.041-9.4043L6.42578 2.27539C6.07422 2.67578 5.74219 2.77344 5.27344 2.30469L4.10156 1.14258C3.63281 0.683594 3.74023 0.341797 4.14062-0.0195312L15.6152-10.8203L14.6387-11.7871L3.04688-0.898438C2.06055 0.0195312 1.98242 0.996094 2.8418 1.86523ZM9.25781-16.3281C8.83789-15.918 8.80859-15.3418 9.04297-14.9512C9.27734-14.5898 9.73633-14.3555 10.3809-14.5215C11.8457-14.8633 13.3691-14.9219 14.7949-13.9844L14.209-12.5293C13.8672-11.6992 14.043-11.1133 14.5801-10.5664L16.875-8.25195C17.3633-7.76367 17.7734-7.74414 18.3398-7.8418L19.4043-8.03711L20.0684-7.36328L20.0293-6.80664C19.9902-6.30859 20.1172-5.92773 20.6055-5.44922L21.3672-4.70703C21.8457-4.22852 22.4609-4.19922 22.9297-4.66797L25.8398-7.58789C26.3086-8.05664 26.2891-8.65234 25.8105-9.13086L25.0391-9.89258C24.5605-10.3711 24.1895-10.5273 23.7109-10.4883L23.1348-10.4395L22.4902-11.0742L22.7344-12.1973C22.8613-12.7637 22.7051-13.2031 22.1191-13.7891L19.9219-15.9766C16.582-19.2969 12.1484-19.2188 9.25781-16.3281ZM10.752-15.957C13.1836-17.7344 16.4746-17.4316 18.7012-15.2051L21.1328-12.793C21.3672-12.5586 21.4062-12.373 21.3379-12.0312L21.0156-10.5469L22.5195-9.0625L23.5059-9.12109C23.7598-9.13086 23.8379-9.11133 24.0332-8.91602L24.6094-8.33984L22.168-5.89844L21.5918-6.47461C21.3965-6.66992 21.3672-6.74805 21.377-7.01172L21.4453-7.98828L19.9512-9.47266L18.4277-9.21875C18.1055-9.15039 17.959-9.17969 17.7148-9.41406L15.7129-11.416C15.459-11.6504 15.4297-11.8164 15.5859-12.1875L16.4648-14.2773C14.9023-15.7324 12.8711-16.3574 10.8398-15.7617C10.6836-15.7227 10.625-15.8496 10.752-15.957Z"/>
  </g>
  <text style="stroke:none;fill:black;font-family:sans-serif;font-size:13;font-weight:bold;" transform="matrix(1 0 0 1 1289 1953)">Exporting</text>
  <text style="stroke:none;fill:black;font-family:sans-serif;font-size:13;" transform="matrix(1 0 0 1 1289 1971)">Symbols should be outlined when exporting to ensure the</text>
  <text style="stroke:none;fill:black;font-family:sans-serif;font-size:13;" transform="matrix(1 0 0 1 1289 1989)">design is preserved when submitting to Xcode.</text>
  <text id="template-version" style="stroke:none;fill:black;font-family:sans-serif;font-size:13;text-anchor:end;" transform="matrix(1 0 0 1 3036 1933)">Template v.4.0</text>
  <text style="stroke:none;fill:black;font-family:sans-serif;font-size:13;text-anchor:end;" transform="matrix(1 0 0 1 3036 1951)">Requires Xcode 14 or greater</text>
  <text id="descriptive-name" style="stroke:none;fill:black;font-family:sans-serif;font-size:13;text-anchor:end;" transform="matrix(1 0 0 1 3036 1969)">Generated from bubbles.and.sparkles.fill</text>
  <text style="stroke:none;fill:black;font-family:sans-serif;font-size:13;text-anchor:end;" transform="matrix(1 0 0 1 3036 1987)">Typeset at 100 points</text>
  <text style="stroke:none;fill:black;font-family:sans-serif;font-size:13;" transform="matrix(1 0 0 1 263 726)">Small</text>
  <text style="stroke:none;fill:black;font-family:sans-serif;font-size:13;" transform="matrix(1 0 0 1 263 1156)">Medium</text>
  <text style="stroke:none;fill:black;font-family:sans-serif;font-size:13;" transform="matrix(1 0 0 1 263 1586)">Large</text>
 </g>
 <g id="Guides">
  <g id="H-reference" style="fill:#27AAE1;stroke:none;" transform="matrix(1 0 0 1 339 696)">
   <path d="M0.993654 0L3.63775 0L29.3281-67.1323L30.0303-67.1323L30.0303-70.459L28.1226-70.459ZM11.6885-24.4799L46.9815-24.4799L46.2315-26.7285L12.4385-26.7285ZM55.1196 0L57.7637 0L30.6382-70.459L29.4326-70.459L29.4326-67.1323Z"/>
  </g>
  <line id="Baseline-S" style="fill:none;stroke:#27AAE1;opacity:1;stroke-width:0.5;" x1="263" x2="3036" y1="696" y2="696"/>
  <line id="Capline-S" style="fill:none;stroke:#27AAE1;opacity:1;stroke-width:0.5;" x1="263" x2="3036" y1="625.541" y2="625.541"/>
  <g id="H-reference" style="fill:#27AAE1;stroke:none;" transform="matrix(1 0 0 1 339 1126)">
   <path d="M0.993654 0L3.63775 0L29.3281-67.1323L30.0303-67.1323L30.0303-70.459L28.1226-70.459ZM11.6885-24.4799L46.9815-24.4799L46.2315-26.7285L12.4385-26.7285ZM55.1196 0L57.7637 0L30.6382-70.459L29.4326-70.459L29.4326-67.1323Z"/>
  </g>
  <line id="Baseline-M" style="fill:none;stroke:#27AAE1;opacity:1;stroke-width:0.5;" x1="263" x2="3036" y1="1126" y2="1126"/>
  <line id="Capline-M" style="fill:none;stroke:#27AAE1;opacity:1;stroke-width:0.5;" x1="263" x2="3036" y1="1055.54" y2="1055.54"/>
  <g id="H-reference" style="fill:#27AAE1;stroke:none;" transform="matrix(1 0 0 1 339 1556)">
   <path d="M0.993654 0L3.63775 0L29.3281-67.1323L30.0303-67.1323L30.0303-70.459L28.1226-70.459ZM11.6885-24.4799L46.9815-24.4799L46.2315-26.7285L12.4385-26.7285ZM55.1196 0L57.7637 0L30.6382-70.459L29.4326-70.459L29.4326-67.1323Z"/>
  </g>
  <line id="Baseline-L" style="fill:none;stroke:#27AAE1;opacity:1;stroke-width:0.5;" x1="263" x2="3036" y1="1556" y2="1556"/>
  <line id="Capline-L" style="fill:none;stroke:#27AAE1;opacity:1;stroke-width:0.5;" x1="263" x2="3036" y1="1485.54" y2="1485.54"/>
  <line id="left-margin-Regular-M" style="fill:none;stroke:#00AEEF;stroke-width:0.5;opacity:1.0;" x1="1385.87" x2="1385.87" y1="1030.79" y2="1150.12"/>
  <line id="right-margin-Regular-M" style="fill:none;stroke:#00AEEF;stroke-width:0.5;opacity:1.0;" x1="1513.82" x2="1513.82" y1="1030.79" y2="1150.12"/>
 </g>
 <g id="Symbols">
  <g id="Black-L" transform="matrix(1 0 0 1 2846.59 1556)">
   <path d="M96.2169-11.3346C111.364-11.3346 123.593-23.5055 123.593-38.6526C123.593-53.7802 111.364-66.0107 96.2169-66.0107C81.0697-66.0107 68.8988-53.7802 68.8988-38.6526C68.8988-23.5639 81.1281-11.3346 96.2169-11.3346ZM35.7472-27.744C46.4846-27.744 55.3883-36.6466 55.3883-47.406C55.3883-58.1654 46.4846-67.0471 35.7472-67.0471C24.9853-67.0471 16.084-58.1666 16.084-47.406C16.084-36.6454 24.9853-27.744 35.7472-27.744ZM61.141 31.0393C72.545 31.0393 81.9885 21.5154 81.9885 10.0322C81.9885-1.34857 72.5438-10.8153 61.141-10.8153C49.5994-10.8153 40.1351-1.40818 40.1351 10.0322C40.1351 21.5738 49.5994 31.0393 61.141 31.0393ZM131.752 33.6617C134.238 33.6617 136.272 31.9041 136.627 29.3964C138.258 15.6181 137.591 15.7481 153.396 12.707C155.844 12.2721 157.543 10.3768 157.543 7.94833C157.543 5.4406 155.727 3.48698 153.2 3.1301C138.238 1.21608 138.237 1.27836 136.627-13.3037C136.409-15.8322 134.317-17.7066 131.752-17.7066C129.165-17.7066 127.152-15.8114 126.934-13.2244C125.462 0.124156 126.22 0.169402 110.087 3.18851C107.696 3.62461 106.018 5.63664 106.018 7.94833C106.018 10.4561 107.775 12.2721 110.462 12.7654C125.403 14.9975 125.403 15.0716 126.934 29.1795C127.152 31.7665 129.165 33.6617 131.752 33.6617ZM61.0958-65.6338C63.1478-65.6338 64.8053-67.1329 65.161-69.1473C67.1959-79.4862 66.485-78.7693 76.7679-80.8126C78.92-81.1694 80.3398-82.8258 80.3398-84.9362C80.3398-87.009 78.92-88.725 76.7679-89.1195C66.485-91.0655 67.1959-90.3498 65.161-100.63C64.8053-102.762 63.1478-104.202 61.0958-104.202C58.9645-104.202 57.3266-102.762 56.9709-100.63C54.936-90.3498 55.6469-91.0655 45.3056-89.061C43.2704-88.725 41.7725-87.009 41.7725-84.9362C41.7725-82.8842 43.212-81.1694 45.3056-80.8126C55.6469-78.7693 54.936-79.4862 56.9709-69.1473C57.3266-67.0745 59.023-65.6338 61.0958-65.6338ZM155.608-63.9089C155.608-82.2958 140.721-97.1626 122.335-97.1626C107.83-97.1626 95.5262-87.7997 91.0424-74.7744C92.7676-74.9925 94.4917-75.1301 96.2169-75.1301C116.381-75.1301 132.713-58.7986 132.713-38.6526C132.713-36.5093 132.554-34.4051 132.178-32.3814C145.704-36.4643 155.608-49.0843 155.608-63.9089Z"/>
  </g>
  <g id="Heavy-L" transform="matrix(1 0 0 1 2550.97 1556)">
   <path d="M94.9554-12.2141C109.532-12.2141 121.296-23.9333 121.296-38.5102C121.296-53.0626 109.532-64.832 94.9554-64.832C80.3785-64.832 68.6593-53.0626 68.6593-38.5102C68.6593-23.9779 80.4231-12.2141 94.9554-12.2141ZM34.9667-28.3137C45.2639-28.3137 53.8136-36.8577 53.8136-47.1908C53.8136-57.5238 45.2639-66.0377 34.9667-66.0377C24.6224-66.0377 16.084-57.5294 16.084-47.1908C16.084-36.8521 24.6224-28.3137 34.9667-28.3137ZM60.1427 29.9975C71.1247 29.9975 80.1959 20.8459 80.1959 9.78903C80.1959-1.15157 71.1191-10.2642 60.1427-10.2642C49.0412-10.2642 39.9399-1.20181 39.9399 9.78903C39.9399 20.8905 49.0412 29.9975 60.1427 29.9975ZM130.209 32.5307C132.398 32.5307 134.209 30.9645 134.528 28.7397C136.267 14.5941 135.758 14.7451 151.652 11.6912C153.826 11.2971 155.348 9.61149 155.348 7.46148C155.348 5.23666 153.737 3.50639 151.487 3.1815C136.295 1.16483 136.237 1.17372 134.528-13.6527C134.328-15.9077 132.473-17.5631 130.209-17.5631C127.91-17.5631 126.129-15.8775 125.929-13.5779C124.34 0.225203 124.862 0.208083 108.737 3.22612C106.601 3.62582 105.11 5.40071 105.11 7.46148C105.11 9.6863 106.676 11.2971 109.081 11.7358C124.238 14.0574 124.296 14.1623 125.929 28.5454C126.129 30.8451 127.91 32.5307 130.209 32.5307ZM60.1598-65.4113C61.9603-65.4113 63.4216-66.7229 63.7408-68.509C65.7984-79.163 65.1889-78.5255 75.8094-80.6223C77.715-80.9472 78.9518-82.4028 78.9518-84.2479C78.9518-86.0787 77.715-87.5845 75.8094-87.9238C65.1889-89.956 65.7984-89.3241 63.7408-99.9334C63.4216-101.809 61.9603-103.076 60.1598-103.076C58.2844-103.076 56.8478-101.809 56.5285-99.9334C54.471-89.3241 55.0804-89.956 44.4153-87.8792C42.599-87.5845 41.293-86.0787 41.293-84.2479C41.293-82.4474 42.5544-80.9472 44.4153-80.6223C55.0804-78.5255 54.471-79.163 56.5285-68.509C56.8478-66.6783 58.3291-65.4113 60.1598-65.4113ZM153.23-63.5668C153.23-81.4545 138.743-95.917 120.855-95.917C106.381-95.917 94.1711-86.3204 90.1511-73.1567C91.7544-73.3566 93.3521-73.476 94.9554-73.476C114.287-73.476 129.94-57.8229 129.94-38.5102C129.94-36.4971 129.791-34.5331 129.441-32.6495C143.106-36.273 153.23-48.7765 153.23-63.5668Z"/>
  </g>
  <g id="Bold-L" transform="matrix(1 0 0 1 2255.67 1556)">
   <path d="M93.3061-13.2381C107.184-13.2381 118.379-24.4039 118.379-38.2813C118.379-52.1341 107.184-63.3423 93.3061-63.3423C79.4286-63.3423 68.2628-52.1341 68.2628-38.2813C68.2628-24.4331 79.4578-13.2381 93.3061-13.2381ZM33.9464-29.0206C43.6683-29.0206 51.7576-37.0966 51.7576-46.8697C51.7576-56.6429 43.6683-64.6809 33.9464-64.6809C24.1468-64.6809 16.084-56.6561 16.084-46.8697C16.084-37.0834 24.1468-29.0206 33.9464-29.0206ZM58.8385 28.6768C69.2682 28.6768 77.856 20.0086 77.856 9.51167C77.856-0.853577 69.255-9.5058 58.8385-9.5058C48.3124-9.5058 39.6866-0.896011 39.6866 9.51167C39.6866 20.0378 48.3124 28.6768 58.8385 28.6768ZM128.192 31.2067C130.019 31.2067 131.553 29.8786 131.827 27.9997C133.718 13.3709 133.364 13.5748 149.403 10.4907C151.239 10.1503 152.538 8.7259 152.538 6.91418C152.538 5.03528 151.181 3.58164 149.277 3.2952C133.77 1.1182 133.68 1.11019 131.827-14.0458C131.65-15.9627 130.087-17.3491 128.192-17.3491C126.246-17.3491 124.75-15.9247 124.573-13.9786C122.816 0.407831 123.105 0.291502 106.943 3.32441C105.122 3.67803 103.861 5.16088 103.861 6.91418C103.861 8.79309 105.189 10.1503 107.241 10.5199C122.696 12.9789 122.786 13.0701 124.573 27.8361C124.75 29.7822 126.246 31.2067 128.192 31.2067ZM58.9548-65.0528C60.4553-65.0528 61.6782-66.1413 61.9514-67.6506C64.0396-78.7559 63.5382-78.1884 74.6409-80.3692C76.2466-80.6557 77.2679-81.8653 77.2679-83.395C77.2679-84.9335 76.2466-86.1856 74.6409-86.4633C63.5382-88.6104 64.0396-88.0561 61.9514-99.1323C61.6782-100.7 60.4553-101.759 58.9548-101.759C57.3871-101.759 56.189-100.7 55.9158-99.1323C53.8276-88.0561 54.329-88.6104 43.1971-86.4341C41.6498-86.1856 40.5746-84.9335 40.5746-83.395C40.5746-81.8945 41.6206-80.6557 43.1971-80.3692C54.329-78.1884 53.8276-78.7559 55.9158-67.6506C56.189-66.1121 57.4163-65.0528 58.9548-65.0528ZM150.123-63.0771C150.123-80.3127 136.158-94.2534 118.922-94.2534C104.516-94.2534 92.4437-84.3872 89.0149-71.0767C90.4497-71.2535 91.8713-71.3499 93.3061-71.3499C111.586-71.3499 126.386-56.5494 126.386-38.2813C126.386-36.4594 126.252-34.6869 125.941-32.9949C139.745-36.0348 150.123-48.3626 150.123-63.0771Z"/>
  </g>
  <g id="Semibold-L" transform="matrix(1 0 0 1 1959.92 1556)">
   <path d="M92.169-13.944C105.564-13.944 116.367-24.7283 116.367-38.1235C116.367-51.494 105.564-62.3153 92.169-62.3153C78.7737-62.3153 67.9895-51.494 67.9895-38.1235C67.9895-24.7468 78.7923-13.944 92.169-13.944ZM33.243-29.5079C42.5682-29.5079 50.3401-37.2613 50.3401-46.6484C50.3401-56.0355 42.5682-63.7456 33.243-63.7456C23.8189-63.7456 16.084-56.054 16.084-46.6484C16.084-37.2429 23.8189-29.5079 33.243-29.5079ZM57.9394 27.7663C67.9883 27.7663 76.2429 19.4313 76.2429 9.32046C76.2429-0.648141 67.9699-8.983 57.9394-8.983C47.81-8.983 39.5121-0.685196 39.5121 9.32046C39.5121 19.4499 47.81 27.7663 57.9394 27.7663ZM126.801 30.2939C128.379 30.2939 129.723 29.13 129.964 27.4896C131.961 12.5277 131.714 12.7681 147.853 9.66312C149.456 9.35974 150.601 8.11537 150.601 6.53688C150.601 4.89645 149.419 3.63352 147.754 3.37359C132.03 1.08605 131.918 1.0664 129.964-14.3168C129.803-16.0006 128.441-17.2016 126.801-17.2016C125.098-17.2016 123.798-15.9572 123.638-14.2548C121.764 0.533733 121.894 0.349011 105.706 3.39216C104.102 3.71403 103 4.99554 103 6.53688C103 8.17731 104.164 9.35974 105.972 9.68169C121.634 12.2355 121.746 12.3172 123.638 27.3472C123.798 29.0495 125.098 30.2939 126.801 30.2939ZM58.1241-64.8056C59.4178-64.8056 60.4764-65.7402 60.7178-67.0587C62.8271-78.4753 62.4003-77.9561 73.8353-80.1948C75.2343-80.4547 76.107-81.4948 76.107-82.807C76.107-84.1441 75.2343-85.2212 73.8353-85.4563C62.4003-87.6828 62.8271-87.182 60.7178-98.5801C60.4764-99.9357 59.4178-100.852 58.1241-100.852C56.7685-100.852 55.7348-99.9357 55.4934-98.5801C53.3841-87.182 53.8109-87.6828 42.3573-85.4378C40.9955-85.2212 40.0793-84.1441 40.0793-82.807C40.0793-81.5134 40.9769-80.4547 42.3573-80.1948C53.8109-77.9561 53.3841-78.4753 55.4934-67.0587C55.7348-65.7217 56.7871-64.8056 58.1241-64.8056ZM147.981-62.7395C147.981-79.5255 134.375-93.1065 117.589-93.1065C103.23-93.1065 91.2529-83.0544 88.2316-69.6428C89.5502-69.8037 90.8504-69.8842 92.169-69.8842C109.723-69.8842 123.936-55.6714 123.936-38.1235C123.936-36.4334 123.812-34.7929 123.527-33.2329C137.428-35.8706 147.981-48.0772 147.981-62.7395Z"/>
  </g>
  <g id="Medium-L" transform="matrix(1 0 0 1 1663.95 1556)">
   <path d="M91.3069-14.4793C104.337-14.4793 114.842-24.9742 114.842-38.0039C114.842-51.0086 104.337-61.5365 91.3069-61.5365C78.2772-61.5365 67.7822-51.0086 67.7822-38.0039C67.7822-24.9848 78.2877-14.4793 91.3069-14.4793ZM32.7096-29.8774C41.7341-29.8774 49.2654-37.3862 49.2654-46.4806C49.2654-55.575 41.7341-63.0364 32.7096-63.0364C23.5703-63.0364 16.084-55.5975 16.084-46.4806C16.084-37.3638 23.5703-29.8774 32.7096-29.8774ZM57.2577 27.0759C67.0179 27.0759 75.0197 18.9936 75.0197 9.17547C75.0197-0.492371 66.9954-8.58658 57.2577-8.58658C47.429-8.58658 39.3797-0.525347 39.3797 9.17547C39.3797 19.0042 47.429 27.0759 57.2577 27.0759ZM125.746 29.6018C127.136 29.6018 128.335 28.5624 128.552 27.1028C130.629 11.8883 130.463 12.1564 146.677 9.03559C148.104 8.76027 149.133 7.65245 149.133 6.2508C149.133 4.79119 148.083 3.67285 146.598 3.43303C130.711 1.06168 130.582 1.03319 128.552-14.5223C128.403-16.0293 127.194-17.0897 125.746-17.0897C124.229-17.0897 123.077-15.9819 122.928-14.4643C120.967 0.629198 120.975 0.392617 104.768 3.44354C103.329 3.74132 102.348 4.87017 102.348 6.2508C102.348 7.7104 103.387 8.76027 105.01 9.0461C120.828 11.6717 120.957 11.7462 122.928 26.9764C123.077 28.494 124.229 29.6018 125.746 29.6018ZM57.4943-64.6181C58.6311-64.6181 59.5651-65.4362 59.7824-66.61C61.9078-78.2626 61.5375-77.78 73.2245-80.0625C74.4667-80.3024 75.2268-81.2138 75.2268-82.3612C75.2268-83.5455 74.4667-84.49 73.2245-84.6929C61.5375-86.9794 61.9078-86.5192 59.7824-98.1613C59.5651-99.3561 58.6311-100.164 57.4943-100.164C56.2995-100.164 55.3905-99.3561 55.1731-98.1613C53.0478-86.5192 53.4181-86.9794 41.7206-84.6823C40.4993-84.49 39.7038-83.5455 39.7038-82.3612C39.7038-81.2244 40.4888-80.3024 41.7206-80.0625C53.4181-77.78 53.0478-78.2626 55.1731-66.61C55.3905-65.4257 56.31-64.6181 57.4943-64.6181ZM146.357-62.4835C146.357-78.9287 133.024-92.2368 116.579-92.2368C102.255-92.2368 90.3499-82.0439 87.6376-68.5555C88.8682-68.7044 90.0763-68.7729 91.3069-68.7729C108.311-68.7729 122.078-55.0057 122.078-38.0039C122.078-36.4136 121.962-34.8733 121.698-33.4135C135.671-35.7461 146.357-47.8609 146.357-62.4835Z"/>
  </g>
  <g id="Regular-L" transform="matrix(1 0 0 1 1368.19 1556)">
   <path d="M90.1823-15.1775C102.735-15.1775 112.853-25.2951 112.853-37.8478C112.853-50.3755 102.735-60.5208 90.1823-60.5208C77.6295-60.5208 67.5119-50.3755 67.5119-37.8478C67.5119-25.2951 77.6295-15.1775 90.1823-15.1775ZM32.014-30.3594C40.6462-30.3594 47.8636-37.5491 47.8636-46.2617C47.8636-54.9743 40.6462-62.1113 32.014-62.1113C23.2461-62.1113 16.084-55.002 16.084-46.2617C16.084-37.5215 23.2461-30.3594 32.014-30.3594ZM56.3685 26.1754C65.7521 26.1754 73.4244 18.4228 73.4244 8.98636C73.4244-0.289192 65.7244-8.06952 56.3685-8.06952C46.9321-8.06952 39.2071-0.316849 39.2071 8.98636C39.2071 18.4228 46.9321 26.1754 56.3685 26.1754ZM124.371 28.699C125.514 28.699 126.524 27.8221 126.71 26.5983C128.892 11.0543 128.831 11.3586 145.144 8.21707C146.34 7.97837 147.217 7.04863 147.217 5.87764C147.217 4.65389 146.34 3.72415 145.091 3.51055C128.989 1.02989 128.839 0.989877 126.71-14.7903C126.577-16.0668 125.567-16.9438 124.371-16.9438C123.094-16.9438 122.137-16.014 122.003-14.7375C119.927 0.753717 119.777 0.449494 103.544 3.51055C102.321 3.77692 101.496 4.70665 101.496 5.87764C101.496 7.1014 102.373 7.97837 103.755 8.21707C119.777 10.9364 119.927 11.0016 122.003 26.4928C122.137 27.7693 123.094 28.699 124.371 28.699ZM56.6727-64.3737C57.605-64.3737 58.3764-65.0396 58.5624-66.0246C60.7086-77.985 60.412-77.5502 72.4277-79.89C73.4656-80.1036 74.0787-80.8474 74.0787-81.7797C74.0787-82.7647 73.4656-83.5362 72.4277-83.697C60.412-86.0619 60.7086-85.6547 58.5624-97.6151C58.3764-98.6002 57.605-99.2661 56.6727-99.2661C55.6877-99.2661 54.9413-98.6002 54.7554-97.6151C52.6091-85.6547 52.9057-86.0619 40.89-83.697C39.8522-83.5362 39.2139-82.7647 39.2139-81.7797C39.2139-80.8474 39.8522-80.1036 40.89-79.89C52.9057-77.5502 52.6091-77.985 54.7554-66.0246C54.9413-65.0396 55.6877-64.3737 56.6727-64.3737ZM144.239-62.1496C144.239-78.1502 131.261-91.1025 115.261-91.1025C100.984-91.1025 89.1722-80.7258 86.8629-67.1374C87.9786-67.2705 89.0666-67.3233 90.1823-67.3233C106.469-67.3233 119.655-54.1374 119.655-37.8478C119.655-36.3879 119.55-34.9782 119.311-33.6489C133.379-35.5837 144.239-47.5787 144.239-62.1496Z"/>
  </g>
  <g id="Light-L" transform="matrix(1 0 0 1 1072.74 1556)">
   <path d="M88.4837-15.4638C100.598-15.4638 110.372-25.2378 110.372-37.3516C110.372-49.4785 100.598-59.2993 88.4837-59.2993C76.3699-59.2993 66.5958-49.4785 66.5958-37.3516C66.5958-25.2378 76.3699-15.4638 88.4837-15.4638ZM30.9643-30.8556C39.0049-30.8556 45.7642-37.5682 45.7642-45.6892C45.7642-53.8101 39.0049-60.4891 30.9643-60.4891C22.7498-60.4891 16.084-53.8569 16.084-45.6892C16.084-37.5215 22.7498-30.8556 30.9643-30.8556ZM55.0325 25.0685C63.8436 25.0685 71.0387 17.7929 71.0387 8.94819C71.0387 0.264281 63.7968-7.058 55.0325-7.058C46.1878-7.058 38.959 0.217539 38.959 8.94819C38.959 17.7929 46.1878 25.0685 55.0325 25.0685ZM122.29 28.2792C123.224 28.2792 124.043 27.574 124.191 26.5602C126.601 10.5009 126.388 11.015 143.026 7.75903C143.993 7.57757 144.698 6.8387 144.698 5.85856C144.698 4.84474 143.993 4.10586 142.992 3.91134C126.489 1.10623 126.568 1.37158 124.191-14.8094C124.077-15.8569 123.257-16.5621 122.29-16.5621C121.243-16.5621 120.457-15.8232 120.343-14.7757C118 1.24993 118.078 0.735773 101.521 3.91134C100.508 4.13954 99.836 4.87842 99.836 5.85856C99.836 6.87237 100.541 7.57757 101.656 7.75903C118.078 10.7456 118 10.4672 120.343 26.4928C120.457 27.5403 121.243 28.2792 122.29 28.2792ZM55.5467-63.5912C56.3454-63.5912 56.9832-64.1617 57.131-64.994C59.3154-77.6606 58.9806-77.0921 71.7407-79.6037C72.6067-79.7982 73.1435-80.3894 73.1435-81.188C73.1435-82.0204 72.6067-82.6582 71.7407-82.8191C58.9806-85.3176 59.3154-84.7959 57.131-97.4625C56.9832-98.2948 56.3454-98.8653 55.5467-98.8653C54.7143-98.8653 54.0634-98.2948 53.9156-97.4625C51.7312-84.7959 52.066-85.3176 39.3059-82.8191C38.4399-82.6582 37.9161-82.0204 37.9161-81.188C37.9161-80.3894 38.4399-79.7982 39.3059-79.6037C52.066-77.0921 51.7312-77.6606 53.9156-64.994C54.0634-64.1617 54.7143-63.5912 55.5467-63.5912ZM141.051-61.3862C141.051-76.7188 128.608-89.1749 113.276-89.1749C99.2469-89.1749 87.6644-78.7409 85.8705-65.2098C86.7571-65.3238 87.5971-65.3575 88.4837-65.3575C103.912-65.3575 116.43-52.8396 116.43-37.3516C116.43-36.2162 116.362-35.0546 116.181-33.9734C130.135-35.412 141.051-47.0824 141.051-61.3862Z"/>
  </g>
  <g id="Thin-L" transform="matrix(1 0 0 1 777.697 1556)">
   <path d="M86.2372-15.8424C97.7704-15.8424 107.09-25.1621 107.09-36.6953C107.09-48.2921 97.7704-57.6838 86.2372-57.6838C74.704-57.6838 65.3842-48.2921 65.3842-36.6953C65.3842-25.1621 74.704-15.8424 86.2372-15.8424ZM29.576-31.5119C36.8341-31.5119 42.9876-37.5934 42.9876-44.9319C42.9876-52.2704 36.8341-58.3435 29.576-58.3435C22.0936-58.3435 16.084-52.3424 16.084-44.9319C16.084-37.5215 22.0936-31.5119 29.576-31.5119ZM53.2656 23.6045C61.3194 23.6045 67.8835 16.96 67.8835 8.89771C67.8835 0.996294 61.2474-5.72019 53.2656-5.72019C45.2033-5.72019 38.6308 0.92431 38.6308 8.89771C38.6308 16.96 45.2033 23.6045 53.2656 23.6045ZM119.539 27.7239C120.195 27.7239 120.762 27.2458 120.859 26.5097C123.572 9.76884 123.157 10.5607 140.224 7.15322C140.888 7.0475 141.366 6.56104 141.366 5.83331C141.366 5.09716 140.888 4.6107 140.215 4.44142C123.183 1.2072 123.564 1.87642 120.859-14.8346C120.77-15.5792 120.203-16.0572 119.539-16.0572C118.794-16.0572 118.236-15.5708 118.147-14.8262C115.45 1.90622 115.832 1.1144 98.8457 4.44142C98.1095 4.61913 97.64 5.10559 97.64 5.83331C97.64 6.56947 98.118 7.0475 98.8794 7.15322C115.832 10.4932 115.45 9.76041 118.147 26.4928C118.236 27.2374 118.794 27.7239 119.539 27.7239ZM54.0574-62.5563C54.6794-62.5563 55.1405-63.0005 55.2378-63.631C57.4727-77.2315 57.0875-76.4863 70.832-79.2251C71.4708-79.3944 71.9067-79.7835 71.9067-80.4055C71.9067-81.036 71.4708-81.4971 70.832-81.658C57.0875-84.3332 57.4727-83.66 55.2378-97.2605C55.1405-97.891 54.6794-98.3352 54.0574-98.3352C53.427-98.3352 52.9023-97.891 52.805-97.2605C50.5701-83.66 50.9553-84.3332 37.2108-81.658C36.572-81.4971 36.1997-81.036 36.1997-80.4055C36.1997-79.7835 36.572-79.3944 37.2108-79.2251C50.9553-76.4863 50.5701-77.2315 52.805-63.631C52.9023-63.0005 53.427-62.5563 54.0574-62.5563ZM136.836-60.3765C136.836-74.8257 125.1-86.6255 110.651-86.6255C96.9499-86.6255 85.6703-76.1158 84.5579-62.6603C85.1417-62.7492 85.6534-62.7576 86.2372-62.7576C100.529-62.7576 112.164-51.1231 112.164-36.6953C112.164-35.989 112.147-35.1555 112.041-34.4025C125.844-35.1848 136.836-46.4262 136.836-60.3765Z"/>
  </g>
  <g id="Ultralight-L" transform="matrix(1 0 0 1 481.839 1556)">
   <path d="M85.0865-16.0363C96.3224-16.0363 105.409-25.1233 105.409-36.3592C105.409-47.6845 96.3224-56.8564 85.0865-56.8564C73.8507-56.8564 64.7637-47.6845 64.7637-36.3592C64.7637-25.1233 73.8507-16.0363 85.0865-16.0363ZM28.8649-31.848C35.7222-31.848 41.5654-37.6064 41.5654-44.5441C41.5654-51.4817 35.7222-57.2446 28.8649-57.2446C21.7574-57.2446 16.084-51.5667 16.084-44.5441C16.084-37.5215 21.7574-31.848 28.8649-31.848ZM52.3606 22.8546C60.0265 22.8546 66.2674 16.5333 66.2674 8.87185C66.2674 1.37123 59.9416-5.03496 52.3606-5.03496C44.6991-5.03496 38.4627 1.28631 38.4627 8.87185C38.4627 16.5333 44.6991 22.8546 52.3606 22.8546ZM118.13 27.4394C118.643 27.4394 119.081 27.0778 119.152 26.4838C122.021 9.39391 121.502 10.3279 138.789 6.84293C139.298 6.77599 139.659 6.41882 139.659 5.82039C139.659 5.22644 139.298 4.86927 138.793 4.71292C121.489 1.25891 122.025 2.13499 119.152-14.8475C119.076-15.437 118.639-15.7986 118.13-15.7986C117.54-15.7986 117.098-15.4415 117.022-14.852C114.145 2.24237 114.681 1.30833 97.4753 4.71292C96.8813 4.86478 96.5152 5.22195 96.5152 5.82039C96.5152 6.41433 96.8768 6.77599 97.4573 6.84293C114.681 10.3639 114.145 9.3984 117.022 26.4928C117.098 27.0822 117.54 27.4394 118.13 27.4394ZM53.2946-62.0262C53.8261-62.0262 54.1967-62.4058 54.2682-62.9328C56.5289-77.0117 56.1178-76.176 70.3665-79.0312C70.889-79.1875 71.2732-79.4733 71.2732-80.0047C71.2732-80.5317 70.889-80.9024 70.3665-81.0632C56.1178-83.829 56.5289-83.0782 54.2682-97.1571C54.1967-97.6841 53.8261-98.0637 53.2946-98.0637C52.7676-98.0637 52.3076-97.6841 52.2361-97.1571C49.9754-83.0782 50.3865-83.829 36.1378-81.0632C35.6153-80.9024 35.3205-80.5317 35.3205-80.0047C35.3205-79.4733 35.6153-79.1875 36.1378-79.0312C50.3865-76.176 49.9754-77.0117 52.2361-62.9328C52.3076-62.4058 52.7676-62.0262 53.2946-62.0262ZM134.677-59.8593C134.677-73.856 123.303-85.3197 109.306-85.3197C95.7734-85.3197 84.6489-74.7712 83.8856-61.3545C84.3142-61.4305 84.6579-61.426 85.0865-61.426C98.797-61.426 109.979-50.244 109.979-36.3592C109.979-35.8726 109.988-35.2073 109.921-34.6223C123.646-35.0684 134.677-46.09 134.677-59.8593Z"/>
  </g>
  <g id="Black-M" transform="matrix(1 0 0 1 2865.37 1126)">
   <path d="M75.3973-16C87.563-16 97.391-25.7709 97.391-37.9367C97.391-50.0967 87.563-59.9244 75.3973-59.9244C63.2315-59.9244 53.4606-50.0967 53.4606-37.9367C53.4606-25.828 63.2886-16 75.3973-16ZM28.2234-29.0078C36.8402-29.0078 43.9806-36.1484 43.9806-44.7705C43.9806-53.3926 36.8402-60.5277 28.2234-60.5277C19.6019-60.5277 12.4609-53.3923 12.4609-44.7705C12.4609-36.1487 19.6019-29.0078 28.2234-29.0078ZM48.0455 16.8571C57.1657 16.8571 64.7373 9.22324 64.7373 0.0404424C64.7373-9.07484 57.166-16.6514 48.0455-16.6514C38.8056-16.6514 31.2285-9.13166 31.2285 0.0404424C31.2285 9.28034 38.8056 16.8571 48.0455 16.8571ZM103.118 19.0585C105.27 19.0585 107.012 17.5556 107.314 15.3981C108.515 4.96937 107.843 5.08045 120.055 2.71978C122.155 2.35552 123.601 0.732964 123.601-1.36199C123.601-3.51953 122.041-5.19918 119.878-5.50057C108.43-6.93919 108.51-6.80368 107.314-17.9453C107.132-20.1083 105.333-21.7254 103.118-21.7254C100.898-21.7254 99.1613-20.1028 98.9793-17.8827C97.9033-7.85915 98.7251-7.79894 86.1756-5.44348C84.1322-5.0795 82.6919-3.34275 82.6919-1.36199C82.6919 0.795552 84.1948 2.35552 86.483 2.77688C97.9257 4.46556 97.8462 4.45002 98.9793 15.2158C99.1613 17.4359 100.898 19.0585 103.118 19.0585ZM47.9853-58.8701C49.7731-58.8701 51.2079-60.1797 51.5096-61.9159C53.0718-69.7508 52.4287-69.1091 60.206-70.6694C62.0618-70.9708 63.3089-72.4058 63.3089-74.2507C63.3089-76.044 62.0618-77.5359 60.206-77.8889C52.4287-79.3408 53.0718-78.6988 51.5096-86.4766C51.2079-88.327 49.7731-89.5795 47.9853-89.5795C46.1349-89.5795 44.7059-88.327 44.4043-86.4766C42.842-78.6988 43.4851-79.3408 35.6508-77.8318C33.9091-77.5359 32.5992-76.044 32.5992-74.2507C32.5992-72.4629 33.852-70.9708 35.6508-70.6694C43.4851-69.1091 42.842-69.7508 44.4043-61.9159C44.7059-60.1226 46.192-58.8701 47.9853-58.8701ZM122.168-57.6392C122.168-72.2228 110.364-84.0209 95.7802-84.0209C84.5512-84.0209 74.9685-76.9603 71.1659-66.9957C72.5763-67.1777 73.9869-67.2974 75.3973-67.2974C91.6189-67.2974 104.764-54.1522 104.764-37.9367C104.764-36.2082 104.639-34.4912 104.332-32.8366C114.676-36.3274 122.168-46.1607 122.168-57.6392Z"/>
  </g>
  <g id="Heavy-M" transform="matrix(1 0 0 1 2569.61 1126)">
   <path d="M74.3208-16.8334C85.9696-16.8334 95.3743-26.1945 95.3743-37.8433C95.3743-49.4779 85.9696-58.8849 74.3208-58.8849C62.672-58.8849 53.3109-49.4779 53.3109-37.8433C53.3109-26.2381 62.7156-16.8334 74.3208-16.8334ZM27.5572-29.5189C35.7984-29.5189 42.6349-36.3531 42.6349-44.6129C42.6349-52.8728 35.7984-59.6906 27.5572-59.6906C19.2929-59.6906 12.4609-52.875 12.4609-44.6129C12.4609-36.3509 19.2929-29.5189 27.5572-29.5189ZM47.1928 15.9408C55.9533 15.9408 63.205 8.62682 63.205-0.193742C63.205-8.93332 55.9511-16.2059 47.1928-16.2059C38.3286-16.2059 31.0606-8.97922 31.0606-0.193742C31.0606 8.67045 38.3286 15.9408 47.1928 15.9408ZM101.802 17.9916C103.683 17.9916 105.225 16.66 105.494 14.7596C106.78 4.01937 106.276 4.13162 118.545 1.76908C120.399 1.43944 121.687 0.00415214 121.687-1.83616C121.687-3.73651 120.312-5.21542 118.397-5.4873C106.761-6.99633 106.764-6.94118 105.494-18.2847C105.328-20.2014 103.743-21.6203 101.802-21.6203C99.8413-21.6203 98.3165-20.185 98.1505-18.2247C96.9848-7.80615 97.5543-7.78754 85.0422-5.44368C83.2291-5.11177 81.9575-3.58923 81.9575-1.83616C81.9575 0.064183 83.2891 1.43944 85.3259 1.81271C96.9436 3.56413 96.9411 3.61036 98.1505 14.5959C98.3165 16.5563 99.8413 17.9916 101.802 17.9916ZM47.1742-58.7248C48.7285-58.7248 49.9837-59.86 50.2533-61.3871C51.8342-69.4648 51.2937-68.913 59.3324-70.5098C60.9631-70.7816 62.0382-72.0346 62.0382-73.6325C62.0382-75.2032 60.9631-76.502 59.3324-76.8011C51.2937-78.3248 51.8342-77.7752 50.2533-85.8093C49.9837-87.4237 48.7285-88.5152 47.1742-88.5152C45.5599-88.5152 44.3188-87.4237 44.0492-85.8093C42.4684-77.7752 43.0088-78.3248 34.9265-76.7575C33.383-76.502 32.2502-75.2032 32.2502-73.6325C32.2502-72.0782 33.3394-70.7816 34.9265-70.5098C43.0088-68.913 42.4684-69.4648 44.0492-61.3871C44.3188-59.8164 45.6035-58.7248 47.1742-58.7248ZM120.137-57.3752C120.137-71.5324 108.674-82.9812 94.5171-82.9812C83.2945-82.9812 73.7829-75.6973 70.3861-65.5921C71.6985-65.7581 73.0085-65.8618 74.3208-65.8618C89.8075-65.8618 102.351-53.3181 102.351-37.8433C102.351-36.2121 102.231-34.6092 101.945-33.0687C112.436-36.1562 120.137-45.9056 120.137-57.3752Z"/>
  </g>
  <g id="Bold-M" transform="matrix(1 0 0 1 2273.97 1126)">
   <path d="M73.1166-17.7656C84.1871-17.7656 93.1183-26.6682 93.1183-37.7387C93.1183-48.7858 84.1871-57.7221 73.1166-57.7221C62.0461-57.7221 53.1435-48.7858 53.1435-37.7387C53.1435-26.6968 62.0746-17.7656 73.1166-17.7656ZM26.8121-30.0907C34.6329-30.0907 41.1294-36.5821 41.1294-44.4367C41.1294-52.2913 34.6329-58.7541 26.8121-58.7541C18.9472-58.7541 12.4609-52.2965 12.4609-44.4367C12.4609-36.577 18.9472-30.0907 26.8121-30.0907ZM46.2389 14.9157C54.5971 14.9157 61.4909 7.95965 61.4909-0.455711C61.4909-8.77501 54.592-15.7077 46.2389-15.7077C37.795-15.7077 30.8726-8.80869 30.8726-0.455711C30.8726 7.9882 37.795 14.9157 46.2389 14.9157ZM100.329 16.7982C101.908 16.7982 103.225 15.6581 103.459 14.0455C104.839 2.95665 104.523 3.07022 116.856 0.705593C118.435 0.41468 119.546-0.811129 119.546-2.36659C119.546-3.97923 118.377-5.23358 116.741-5.47246C104.894-7.06026 104.81-7.09501 103.459-18.6644C103.31-20.3056 101.965-21.5028 100.329-21.5028C98.6594-21.5028 97.3714-20.277 97.2234-18.6072C95.9573-7.74685 96.2446-7.77478 83.7743-5.44391C82.2187-5.14786 81.1358-3.86496 81.1358-2.36659C81.1358-0.753958 82.2759 0.41468 84.0315 0.734141C95.8449 2.55576 95.9287 2.67109 97.2234 13.9026C97.3714 15.5724 98.6594 16.7982 100.329 16.7982ZM46.2669-58.5624C47.56-58.5624 48.6142-59.5023 48.848-60.7955C50.4496-69.1449 50.0241-68.6936 58.3552-70.3312C59.734-70.5701 60.6168-71.6192 60.6168-72.9409C60.6168-74.2626 59.734-75.3454 58.3552-75.5842C50.0241-77.1882 50.4496-76.7421 48.848-85.0629C48.6142-86.4132 47.56-87.3246 46.2669-87.3246C44.9166-87.3246 43.8858-86.4132 43.652-85.0629C42.0504-76.7421 42.476-77.1882 34.1163-75.5557C32.7945-75.3454 31.8597-74.2626 31.8597-72.9409C31.8597-71.6478 32.766-70.5701 34.1163-70.3312C42.476-68.6936 42.0504-69.1449 43.652-60.7955C43.8858-59.4738 44.9451-58.5624 46.2669-58.5624ZM117.866-57.0799C117.866-70.7602 106.785-81.818 93.1042-81.818C81.8886-81.818 72.4566-74.2844 69.5139-64.022C70.7165-64.1701 71.914-64.2558 73.1166-64.2558C87.7812-64.2558 99.652-52.385 99.652-37.7387C99.652-36.2165 99.5376-34.7413 99.2753-33.3283C109.93-35.9646 117.866-45.6202 117.866-57.0799Z"/>
  </g>
  <g id="Semibold-M" transform="matrix(1 0 0 1 1978 1126)">
   <path d="M72.2865-18.4083C82.9583-18.4083 91.563-26.9948 91.563-37.6667C91.563-48.3086 82.9583-56.9204 72.2865-56.9204C61.6146-56.9204 53.028-48.3086 53.028-37.6667C53.028-27.013 61.6327-18.4083 72.2865-18.4083ZM26.2983-30.4849C33.8295-30.4849 40.0916-36.7399 40.0916-44.3152C40.0916-51.8905 33.8295-58.1085 26.2983-58.1085C18.7089-58.1085 12.4609-51.8976 12.4609-44.3152C12.4609-36.7328 18.7089-30.4849 26.2983-30.4849ZM45.5813 14.209C53.6621 14.209 60.3092 7.4997 60.3092-0.63631C60.3092-8.66587 53.655-15.3641 45.5813-15.3641C37.4272-15.3641 30.7431-8.69113 30.7431-0.63631C30.7431 7.51786 37.4272 14.209 45.5813 14.209ZM99.3142 15.9754C100.684 15.9754 101.846 14.9674 102.055 13.5531C103.501 2.22402 103.314 2.33849 115.691-0.0275719C117.08-0.291787 118.07-1.37318 118.07-2.73227C118.07-4.14656 117.044-5.2461 115.6-5.46223C103.607-7.10433 103.464-7.20105 102.055-18.9261C101.92-20.3775 100.739-21.4218 99.3142-21.4218C97.8447-21.4218 96.7199-20.3404 96.5842-18.8709C95.2489-7.70598 95.3417-7.76599 82.9002-5.44407C81.5222-5.17275 80.5694-4.05504 80.5694-2.73227C80.5694-1.31798 81.5774-0.291787 83.1392-0.00941525C95.0875 1.86059 95.2308 2.02356 96.5842 13.4246C96.7199 14.894 97.8447 15.9754 99.3142 15.9754ZM45.6413-58.4503C46.7544-58.4503 47.6702-59.2557 47.8792-60.3877C49.4952-68.9243 49.1488-68.5424 57.6815-70.2081C58.8867-70.4242 59.6369-71.3329 59.6369-72.4641C59.6369-73.6142 58.8867-74.5481 57.6815-74.7454C49.1488-76.4047 49.4952-76.0299 47.8792-84.5484C47.6702-85.7166 46.7544-86.5038 45.6413-86.5038C44.4731-86.5038 43.5872-85.7166 43.3782-84.5484C41.7623-76.0299 42.1086-76.4047 33.5578-74.7272C32.3888-74.5481 31.5905-73.6142 31.5905-72.4641C31.5905-71.3511 32.3707-70.4242 33.5578-70.2081C42.1086-68.5424 41.7623-68.9243 43.3782-60.3877C43.5872-59.2376 44.4913-58.4503 45.6413-58.4503ZM116.3-56.8763C116.3-70.2278 105.482-81.0162 92.1302-81.0162C80.9194-81.0162 71.5422-73.3104 68.9126-62.9396C70.0396-63.0753 71.1595-63.1486 72.2865-63.1486C86.3843-63.1486 97.7912-51.7417 97.7912-37.6667C97.7912-36.2196 97.6808-34.8323 97.4347-33.5073C108.202-35.8325 116.3-45.4234 116.3-56.8763Z"/>
  </g>
  <g id="Medium-M" transform="matrix(1 0 0 1 1681.85 1126)">
   <path d="M71.657-18.8956C82.0266-18.8956 90.3837-27.2425 90.3837-37.6121C90.3837-47.9468 82.0266-56.3126 71.657-56.3126C61.2874-56.3126 52.9405-47.9468 52.9405-37.6121C52.9405-27.2528 61.2977-18.8956 71.657-18.8956ZM25.9088-30.7838C33.2202-30.7838 39.3047-36.8596 39.3047-44.2231C39.3047-51.5865 33.2202-57.6189 25.9088-57.6189C18.5282-57.6189 12.4609-51.5951 12.4609-44.2231C12.4609-36.851 18.5282-30.7838 25.9088-30.7838ZM45.0827 13.6732C52.9532 13.6732 59.4131 7.15095 59.4131-0.773249C59.4131-8.58311 52.9446-15.1037 45.0827-15.1037C37.1482-15.1037 30.6449-8.60199 30.6449-0.773249C30.6449 7.16122 37.1482 13.6732 45.0827 13.6732ZM98.5445 15.3516C99.7563 15.3516 100.801 14.4437 100.991 13.1798C102.486 1.6685 102.398 1.78367 114.808-0.583488C116.053-0.827459 116.951-1.79935 116.951-3.00954C116.951-4.27343 116.033-5.2556 114.734-5.45447C102.631-7.13774 102.443-7.28146 100.991-19.1246C100.865-20.4319 99.8101-21.3604 98.5445-21.3604C97.2269-21.3604 96.2258-20.3885 96.0996-19.0709C94.7119-7.67499 94.6571-7.75932 82.2375-5.44419C80.9941-5.19162 80.1399-4.19917 80.1399-3.00954C80.1399-1.74564 81.0478-0.827459 82.4626-0.573211C94.5132 1.33348 94.7016 1.53258 96.0996 13.0621C96.2258 14.3797 97.2269 15.3516 98.5445 15.3516ZM45.167-58.3654C46.1435-58.3654 46.9543-59.0688 47.1446-60.0784C48.7714-68.757 48.4851-68.4277 57.1706-70.1148C58.2443-70.3136 58.8939-71.1158 58.8939-72.1026C58.8939-73.1225 58.2443-73.9435 57.1706-74.1093C48.4851-75.8106 48.7714-75.4899 47.1446-84.1582C46.9543-85.1884 46.1435-85.8815 45.167-85.8815C44.1368-85.8815 43.3609-85.1884 43.1706-84.1582C41.5438-75.4899 41.8301-75.8106 33.1343-74.099C32.0812-73.9435 31.3864-73.1225 31.3864-72.1026C31.3864-71.1261 32.0709-70.3136 33.1343-70.1148C41.8301-68.4277 41.5438-68.757 43.1706-60.0784C43.3609-59.0585 44.1471-58.3654 45.167-58.3654ZM115.113-56.722C115.113-69.8242 104.494-80.4082 91.3916-80.4082C80.1845-80.4082 70.8489-72.5718 68.4566-62.1188C69.5263-62.2451 70.5873-62.3091 71.657-62.3091C85.3251-62.3091 96.3803-51.254 96.3803-37.6121C96.3803-36.2219 96.2729-34.9013 96.0392-33.6431C106.892-35.7324 115.113-45.2743 115.113-56.722Z"/>
  </g>
  <g id="Regular-M" transform="matrix(1 0 0 1 1385.87 1126)">
   <path d="M70.836-19.5312C80.8113-19.5312 88.8456-27.5655 88.8456-37.5408C88.8456-47.4749 80.8113-55.5198 70.836-55.5198C60.8607-55.5198 52.8264-47.4749 52.8264-37.5408C52.8264-27.5655 60.8607-19.5312 70.836-19.5312ZM25.4007-31.1736C32.4256-31.1736 38.2783-37.0157 38.2783-44.1029C38.2783-51.1901 32.4256-56.9804 25.4007-56.9804C18.2925-56.9804 12.4609-51.2006 12.4609-44.1029C12.4609-37.0052 18.2925-31.1736 25.4007-31.1736ZM44.4323 12.9743C52.0285 12.9743 58.2444 6.69605 58.2444-0.951864C58.2444-8.47517 52.0179-14.7639 44.4323-14.7639C36.7844-14.7639 30.5167-8.48572 30.5167-0.951864C30.5167 6.69605 36.7844 12.9743 44.4323 12.9743ZM97.5406 14.5379C98.546 14.5379 99.4373 13.7606 99.6032 12.6929C101.163 0.943922 101.203 1.05998 113.656-1.3086C114.714-1.52616 115.491-2.35522 115.491-3.3712C115.491-4.43892 114.714-5.26798 113.605-5.44435C101.358-7.18133 101.111-7.38634 99.6032-19.3835C99.4891-20.503 98.5977-21.2803 97.5406-21.2803C96.4211-21.2803 95.5815-20.4512 95.4674-19.3317C94.0113-7.63456 93.7641-7.75062 81.373-5.44435C80.3053-5.21623 79.5797-4.38717 79.5797-3.3712C79.5797-2.30347 80.357-1.52616 81.58-1.3086C93.7641 0.645954 94.0113 0.892169 95.4674 12.5894C95.5815 13.7088 96.4211 14.5379 97.5406 14.5379ZM44.5484-58.2546C45.3468-58.2546 46.0206-58.8249 46.1864-59.6751C47.8274-68.5389 47.6194-68.2781 56.5043-69.993C57.4063-70.1694 57.9248-70.8326 57.9248-71.631C57.9248-72.4812 57.4063-73.155 56.5043-73.2796C47.6194-75.0357 47.8274-74.7855 46.1864-83.6493C46.0206-84.4994 45.3468-85.0697 44.5484-85.0697C43.6982-85.0697 43.0656-84.4994 42.8998-83.6493C41.2588-74.7855 41.4668-75.0357 32.5819-73.2796C31.68-73.155 31.1202-72.4812 31.1202-71.631C31.1202-70.8326 31.68-70.1694 32.5819-69.993C41.4668-68.2781 41.2588-68.5389 42.8998-59.6751C43.0656-58.8249 43.6982-58.2546 44.5484-58.2546ZM113.564-56.5206C113.564-69.2976 103.205-79.6151 90.4283-79.6151C79.226-79.6151 69.9446-71.6085 67.8619-61.0483C68.8568-61.1624 69.8411-61.2141 70.836-61.2141C83.9436-61.2141 94.5399-50.6178 94.5399-37.5408C94.5399-36.2249 94.4364-34.9913 94.2188-33.8201C105.183-35.6018 113.564-45.0797 113.564-56.5206Z"/>
  </g>
  <g id="Light-M" transform="matrix(1 0 0 1 1090.29 1126)">
   <path d="M69.3131-19.7879C78.8948-19.7879 86.6211-27.5142 86.6211-37.0959C86.6211-46.6707 78.8948-54.4247 69.3131-54.4247C59.7313-54.4247 52.005-46.6707 52.005-37.0959C52.005-27.5142 59.7313-19.7879 69.3131-19.7879ZM24.4596-31.6185C30.9541-31.6185 36.396-37.0328 36.396-43.5896C36.396-50.1463 30.9541-55.526 24.4596-55.526C17.8476-55.526 12.4609-50.174 12.4609-43.5896C12.4609-37.0052 17.8476-31.6185 24.4596-31.6185ZM43.2346 11.9818C50.3174 11.9818 56.1055 6.13139 56.1055-0.986086C56.1055-7.97896 50.2897-13.8571 43.2346-13.8571C36.1171-13.8571 30.2943-8.00662 30.2943-0.986086C30.2943 6.13139 36.1171 11.9818 43.2346 11.9818ZM95.6755 14.1615C96.4927 14.1615 97.2129 13.5381 97.3445 12.6586C99.1095 0.447705 99.0128 0.751987 111.757-1.71926C112.609-1.88549 113.232-2.54344 113.232-3.38831C113.232-4.26781 112.609-4.92576 111.722-5.08502C99.1167-7.11289 99.0748-7.04412 97.3445-19.4006C97.2476-20.3148 96.5273-20.9381 95.6755-20.9381C94.7613-20.9381 94.0757-20.2801 93.9788-19.366C92.2831-7.18968 92.2412-7.49396 79.5592-5.08502C78.6797-4.89112 78.0911-4.23317 78.0911-3.38831C78.0911-2.5088 78.7144-1.88549 79.6978-1.71926C92.2412 0.474845 92.2831 0.413062 93.9788 12.5894C94.0757 13.5035 94.7613 14.1615 95.6755 14.1615ZM43.5388-57.5531C44.2175-57.5531 44.7715-58.0378 44.9031-58.7511C46.5783-68.248 46.3361-67.8675 55.8883-69.7363C56.6363-69.8956 57.0864-70.422 57.0864-71.1006C57.0864-71.8139 56.6363-72.3679 55.8883-72.4925C46.3361-74.3684 46.5783-74.0155 44.9031-83.5124C44.7715-84.2257 44.2175-84.7104 43.5388-84.7104C42.8256-84.7104 42.2785-84.2257 42.1469-83.5124C40.4717-74.0155 40.7139-74.3684 31.1617-72.4925C30.4138-72.3679 29.9567-71.8139 29.9567-71.1006C29.9567-70.422 30.4138-69.8956 31.1617-69.7363C40.7139-67.8675 40.4717-68.248 42.1469-58.7511C42.2785-58.0378 42.8256-57.5531 43.5388-57.5531ZM110.706-55.8362C110.706-68.0143 100.827-77.8869 88.6487-77.8869C77.6689-77.8869 68.5928-69.8289 66.9721-59.3201C67.7617-59.4171 68.5235-59.4517 69.3131-59.4517C81.6507-59.4517 91.6482-49.4542 91.6482-37.0959C91.6482-36.0709 91.5789-35.0598 91.4127-34.111C102.275-35.4478 110.706-44.6348 110.706-55.8362Z"/>
  </g>
  <g id="Thin-M" transform="matrix(1 0 0 1 795.069 1126)">
   <path d="M67.299-20.1273C76.3602-20.1273 83.6792-27.4463 83.6792-36.5075C83.6792-45.607 76.3602-52.9763 67.299-52.9763C58.2377-52.9763 50.9188-45.607 50.9188-36.5075C50.9188-27.4463 58.2377-20.1273 67.299-20.1273ZM23.215-32.2069C29.0078-32.2069 33.9067-37.0555 33.9067-42.9107C33.9067-48.7658 29.0078-53.6024 23.215-53.6024C17.2592-53.6024 12.4609-48.8161 12.4609-42.9107C12.4609-37.0052 17.2592-32.2069 23.215-32.2069ZM41.6504 10.6693C48.0543 10.6693 53.2767 5.38458 53.2767-1.03135C53.2767-7.32267 48.004-12.6576 41.6504-12.6576C35.2345-12.6576 30.0001-7.37296 30.0001-1.03135C30.0001 5.38458 35.2345 10.6693 41.6504 10.6693ZM93.2087 13.6636C93.777 13.6636 94.2709 13.244 94.3573 12.6134C96.3938-0.208582 96.1161 0.344636 109.245-2.26239C109.825-2.36073 110.245-2.79238 110.245-3.41094C110.245-4.04151 109.825-4.47315 109.233-4.60977C96.1521-7.02236 96.3818-6.59151 94.3573-19.4232C94.283-20.0658 93.789-20.4855 93.2087-20.4855C92.5662-20.4855 92.0842-20.0538 92.0099-19.4112C89.9974-6.60128 90.2271-7.1545 77.1604-4.60977C76.5298-4.46114 76.1222-4.0295 76.1222-3.41094C76.1222-2.78037 76.5418-2.36073 77.2084-2.26239C90.2271 0.248539 89.9974-0.220594 92.0099 12.5894C92.0842 13.2319 92.5662 13.6636 93.2087 13.6636ZM42.2036-56.6252C42.7239-56.6252 43.1195-56.9968 43.2058-57.529C44.9263-67.8633 44.6388-67.3243 55.0736-69.3969C55.6179-69.5335 55.9775-69.8788 55.9775-70.399C55.9775-70.9313 55.6179-71.3269 55.0736-71.4515C44.6388-73.4858 44.9263-72.9971 43.2058-83.3314C43.1195-83.8636 42.7239-84.2352 42.2036-84.2352C41.6714-84.2352 41.2375-83.8636 41.1512-83.3314C39.4307-72.9971 39.7182-73.4858 29.2833-71.4515C28.7391-71.3269 28.4178-70.9313 28.4178-70.399C28.4178-69.8788 28.7391-69.5335 29.2833-69.3969C39.7182-67.3243 39.4307-67.8633 41.1512-57.529C41.2375-56.9968 41.6714-56.6252 42.2036-56.6252ZM106.927-54.931C106.927-66.317 97.6812-75.6012 86.2952-75.6012C75.6095-75.6012 66.805-67.4753 65.7953-57.0344C66.3133-57.1087 66.781-57.1207 67.299-57.1207C78.6182-57.1207 87.8236-47.9154 87.8236-36.5075C87.8236-35.8672 87.7996-35.1503 87.7012-34.4957C98.4274-35.2441 106.927-44.0464 106.927-54.931Z"/>
  </g>
  <g id="Ultralight-M" transform="matrix(1 0 0 1 499.123 1126)">
   <path d="M66.2673-20.3012C75.062-20.3012 82.1723-27.4115 82.1723-36.2062C82.1723-45.0623 75.062-52.2345 66.2673-52.2345C57.4727-52.2345 50.3624-45.0623 50.3624-36.2062C50.3624-27.4115 57.4727-20.3012 66.2673-20.3012ZM22.5774-32.5083C28.011-32.5083 32.6316-37.0671 32.6316-42.5629C32.6316-48.0588 28.011-52.6171 22.5774-52.6171C16.9578-52.6171 12.4609-48.1207 12.4609-42.5629C12.4609-37.0052 16.9578-32.5083 22.5774-32.5083ZM40.839 9.99697C46.8952 9.99697 51.8278 5.00207 51.8278-1.05453C51.8278-6.98652 46.8333-12.0433 40.839-12.0433C34.7824-12.0433 29.8494-7.0484 29.8494-1.05453C29.8494 5.00207 34.7824 9.99697 40.839 9.99697ZM91.9453 13.4086C92.386 13.4086 92.7641 13.0933 92.8272 12.5902C95.0028-0.544729 94.6324 0.135993 107.958-2.54058C108.4-2.60415 108.715-2.91988 108.715-3.42253C108.715-3.9256 108.4-4.24133 107.958-4.36636C94.6336-6.976 95.0024-6.35969 92.8272-19.4348C92.7645-19.9383 92.3865-20.2536 91.9453-20.2536C91.4418-20.2536 91.0642-19.9379 91.0015-19.4344C88.8267-6.29991 89.1955-6.98063 75.9317-4.36636C75.4287-4.24091 75.1138-3.92517 75.1138-3.42253C75.1138-2.91946 75.4291-2.60415 75.9334-2.54058C89.1955 0.132626 88.8267-0.54515 91.0015 12.5894C91.0642 13.0928 91.4418 13.4086 91.9453 13.4086ZM41.5198-56.15C41.9588-56.15 42.2733-56.4636 42.3364-56.9031C44.0801-67.6662 43.7695-67.0461 54.6564-69.223C55.0963-69.348 55.4095-69.6006 55.4095-70.0397C55.4095-70.4792 55.0963-70.7937 54.6564-70.9183C43.7695-73.0337 44.0801-72.4755 42.3364-83.2386C42.2733-83.6781 41.9588-83.9917 41.5198-83.9917C41.0803-83.9917 40.7043-83.6781 40.6412-83.2386C38.8975-72.4755 39.2082-73.0337 28.3213-70.9183C27.8813-70.7937 27.6296-70.4792 27.6296-70.0397C27.6296-69.6006 27.8813-69.348 28.3213-69.223C39.2082-67.0461 38.8975-67.6662 40.6412-56.9031C40.7043-56.4636 41.0803-56.15 41.5198-56.15ZM104.991-54.4673C104.991-65.4477 96.07-74.4305 85.0897-74.4305C74.5547-74.4305 65.8893-66.2698 65.1926-55.8637C65.5715-55.9264 65.8885-55.9268 66.2673-55.9268C77.065-55.9268 85.8647-47.1272 85.8647-36.2062C85.8647-35.7629 85.8638-35.1967 85.8003-34.6927C96.4569-35.1398 104.991-43.745 104.991-54.4673Z"/>
  </g>
  <g id="Black-S" transform="matrix(1 0 0 1 2879.86 696)">
   <path d="M59.3262-19.9219C68.9941-19.9219 76.8066-27.6855 76.8066-37.3535C76.8066-47.0215 68.9941-54.834 59.3262-54.834C49.6582-54.834 41.8945-47.0215 41.8945-37.3535C41.8945-27.7344 49.707-19.9219 59.3262-19.9219ZM22.2656-30.2246C29.1016-30.2246 34.7656-35.8887 34.7656-42.7246C34.7656-49.5605 29.1016-55.2246 22.2656-55.2246C15.4297-55.2246 9.76562-49.5605 9.76562-42.7246C9.76562-35.8887 15.4297-30.2246 22.2656-30.2246ZM37.8418 5.81055C45.0684 5.81055 51.0742-0.244141 51.0742-7.51953C51.0742-14.7461 45.0684-20.752 37.8418-20.752C30.5176-20.752 24.5117-14.7949 24.5117-7.51953C24.5117-0.195312 30.5176 5.81055 37.8418 5.81055ZM81.1035 7.61719C82.8613 7.61719 84.2773 6.39648 84.5215 4.63867C85.4492-3.4668 84.8633-3.36914 94.4336-5.22461C96.1426-5.51758 97.3145-6.83594 97.3145-8.54492C97.3145-10.3027 96.0449-11.6699 94.2871-11.9141C85.3516-13.0371 85.4492-12.8906 84.5215-21.582C84.375-23.3398 82.9102-24.6582 81.1035-24.6582C79.2969-24.6582 77.8809-23.3398 77.7344-21.5332C76.9043-13.7695 77.6367-13.7207 67.7734-11.8652C66.1133-11.5723 64.9414-10.1562 64.9414-8.54492C64.9414-6.78711 66.1621-5.51758 68.0176-5.17578C76.9531-3.85742 76.8555-3.90625 77.7344 4.49219C77.8809 6.29883 79.2969 7.61719 81.1035 7.61719ZM37.793-53.7598C39.2578-53.7598 40.4297-54.834 40.6738-56.25C41.8945-62.3535 41.3574-61.8164 47.4121-63.0371C48.9258-63.2812 49.9512-64.4531 49.9512-65.9668C49.9512-67.4316 48.9258-68.6523 47.4121-68.9453C41.3574-70.0684 41.8945-69.5312 40.6738-75.5859C40.4297-77.0996 39.2578-78.125 37.793-78.125C36.2793-78.125 35.1074-77.0996 34.8633-75.5859C33.6426-69.5312 34.1797-70.0684 28.0762-68.8965C26.6602-68.6523 25.5859-67.4316 25.5859-65.9668C25.5859-64.502 26.6113-63.2812 28.0762-63.0371C34.1797-61.8164 33.6426-62.3535 34.8633-56.25C35.1074-54.7852 36.3281-53.7598 37.793-53.7598ZM96.1914-52.832C96.1914-64.3555 86.8652-73.6816 75.3418-73.6816C66.5527-73.6816 59.0332-68.2129 55.957-60.4492C57.0801-60.5957 58.2031-60.6934 59.3262-60.6934C72.2168-60.6934 82.666-50.2441 82.666-37.3535C82.666-35.9863 82.5684-34.6191 82.3242-33.3008C90.3809-36.1328 96.1914-43.8477 96.1914-52.832Z"/>
  </g>
  <g id="Heavy-S" transform="matrix(1 0 0 1 2583.82 696)">
   <path d="M58.6001-20.6018C67.8763-20.6018 75.3661-28.0543 75.3661-37.3305C75.3661-46.5951 67.8763-54.0849 58.6001-54.0849C49.324-54.0849 41.8715-46.5951 41.8715-37.3305C41.8715-28.0916 49.3613-20.6018 58.6001-20.6018ZM21.8162-30.6049C28.3986-30.6049 33.8552-36.0615 33.8552-42.6555C33.8552-49.2494 28.3986-54.6945 21.8162-54.6945C15.2222-54.6945 9.76562-49.2494 9.76562-42.6555C9.76562-36.0615 15.2222-30.6049 21.8162-30.6049ZM37.2656 5.15365C44.2501 5.15365 50.037-0.68207 50.037-7.71545C50.037-14.6885 44.2501-20.4869 37.2656-20.4869C30.1949-20.4869 24.3965-14.7258 24.3965-7.71545C24.3965-0.644767 30.1949 5.15365 37.2656 5.15365ZM80.2161 6.75285C81.7665 6.75285 83.0327 5.65892 83.2538 4.09702C84.2276-4.21589 83.803-4.14128 93.3849-5.98522C94.9095-6.25514 95.9661-7.43521 95.9661-8.94828C95.9661-10.5102 94.8349-11.7275 93.2614-11.9486C84.2106-13.0947 84.2161-13.052 83.2538-21.8701C83.1188-23.4436 81.8153-24.6121 80.2161-24.6121C78.6054-24.6121 77.3507-23.432 77.2158-21.8213C76.3396-13.7811 76.83-13.7438 67.0359-11.9113C65.5486-11.6414 64.5035-10.3867 64.5035-8.94828C64.5035-7.38638 65.5974-6.25514 67.2685-5.94792C76.3078-4.60651 76.3023-4.56314 77.2158 3.96206C77.3507 5.57279 78.6054 6.75285 80.2161 6.75285ZM37.2283-53.7252C38.5087-53.7252 39.5423-54.6611 39.7634-55.9158C40.9956-62.1461 40.5507-61.7012 46.7437-62.9334C48.0845-63.1545 48.9716-64.1881 48.9716-65.5058C48.9716-66.7978 48.0845-67.8687 46.7437-68.1156C40.5507-69.2847 40.9956-68.8398 39.7634-75.0328C39.5423-76.362 38.5087-77.2607 37.2283-77.2607C35.899-77.2607 34.8769-76.362 34.6558-75.0328C33.4236-68.8398 33.8685-69.2847 27.6382-68.0782C26.372-67.8687 25.4361-66.7978 25.4361-65.5058C25.4361-64.2254 26.3347-63.1545 27.6382-62.9334C33.8685-61.7012 33.4236-62.1461 34.6558-55.9158C34.8769-54.6238 35.9363-53.7252 37.2283-53.7252ZM94.82-52.6937C94.82-63.9291 85.7243-73.0132 74.489-73.0132C65.6769-73.0132 58.1919-67.3601 55.4039-59.4696C56.4693-59.6046 57.5347-59.6907 58.6001-59.6907C70.9606-59.6907 80.9719-49.6794 80.9719-37.3305C80.9719-36.0094 80.8743-34.7113 80.6416-33.4621C88.8366-36.006 94.82-43.6863 94.82-52.6937Z"/>
  </g>
  <g id="Bold-S" transform="matrix(1 0 0 1 2287.87 696)">
   <path d="M57.7881-21.3623C66.626-21.3623 73.7549-28.4668 73.7549-37.3047C73.7549-46.1182 66.626-53.2471 57.7881-53.2471C48.9502-53.2471 41.8457-46.1182 41.8457-37.3047C41.8457-28.4912 48.9746-21.3623 57.7881-21.3623ZM21.3135-31.0303C27.6123-31.0303 32.8369-36.2549 32.8369-42.5781C32.8369-48.9014 27.6123-54.1016 21.3135-54.1016C14.9902-54.1016 9.76562-48.9014 9.76562-42.5781C9.76562-36.2549 14.9902-31.0303 21.3135-31.0303ZM36.6211 4.41895C43.335 4.41895 48.877-1.17188 48.877-7.93457C48.877-14.624 43.335-20.1904 36.6211-20.1904C29.834-20.1904 24.2676-14.6484 24.2676-7.93457C24.2676-1.14746 29.834 4.41895 36.6211 4.41895ZM79.2236 5.78613C80.542 5.78613 81.6406 4.83398 81.8359 3.49121C82.8613-5.05371 82.6172-5.00488 92.2119-6.83594C93.5303-7.08008 94.458-8.10547 94.458-9.39941C94.458-10.7422 93.4814-11.792 92.1143-11.9873C82.9346-13.1592 82.8369-13.2324 81.8359-22.1924C81.7139-23.5596 80.5908-24.5605 79.2236-24.5605C77.832-24.5605 76.7578-23.5352 76.6357-22.1436C75.708-13.7939 75.9277-13.7695 66.2109-11.9629C64.917-11.7188 64.0137-10.6445 64.0137-9.39941C64.0137-8.05664 64.9658-7.08008 66.4307-6.81152C75.5859-5.44434 75.6836-5.29785 76.6357 3.36914C76.7578 4.76074 77.832 5.78613 79.2236 5.78613ZM36.5967-53.6865C37.6709-53.6865 38.5498-54.4678 38.7451-55.542C39.9902-61.9141 39.6484-61.5723 45.9961-62.8174C47.1436-63.0127 47.876-63.8916 47.876-64.9902C47.876-66.0889 47.1436-66.9922 45.9961-67.1875C39.6484-68.4082 39.9902-68.0664 38.7451-74.4141C38.5498-75.5371 37.6709-76.2939 36.5967-76.2939C35.4736-76.2939 34.6191-75.5371 34.4238-74.4141C33.1787-68.0664 33.5205-68.4082 27.1484-67.1631C26.0498-66.9922 25.2686-66.0889 25.2686-64.9902C25.2686-63.916 26.0254-63.0127 27.1484-62.8174C33.5205-61.5723 33.1787-61.9141 34.4238-55.542C34.6191-54.4434 35.498-53.6865 36.5967-53.6865ZM93.2861-52.5391C93.2861-63.4521 84.4482-72.2656 73.5352-72.2656C64.6973-72.2656 57.251-66.4062 54.7852-58.374C55.7861-58.4961 56.7871-58.5693 57.7881-58.5693C69.5557-58.5693 79.0771-49.0479 79.0771-37.3047C79.0771-36.0352 78.9795-34.8145 78.7598-33.6426C87.1094-35.8643 93.2861-43.5059 93.2861-52.5391Z"/>
  </g>
  <g id="Semibold-S" transform="matrix(1 0 0 1 1991.67 696)">
   <path d="M57.2282-21.8866C65.764-21.8866 72.644-28.7512 72.644-37.2869C72.644-45.7894 65.764-52.6694 57.2282-52.6694C48.6925-52.6694 41.8279-45.7894 41.8279-37.2869C41.8279-28.7667 48.708-21.8866 57.2282-21.8866ZM20.9669-31.3235C27.0702-31.3235 32.1349-36.3882 32.1349-42.5248C32.1349-48.6614 27.0702-53.6928 20.9669-53.6928C14.8303-53.6928 9.76562-48.6614 9.76562-42.5248C9.76562-36.3882 14.8303-31.3235 20.9669-31.3235ZM36.1768 3.9124C42.704 3.9124 48.0771-1.50957 48.0771-8.08564C48.0771-14.5796 42.704-19.986 36.1768-19.986C29.5852-19.986 24.1787-14.5951 24.1787-8.08564C24.1787-1.49404 29.5852 3.9124 36.1768 3.9124ZM78.5394 5.11963C79.6978 5.11963 80.6809 4.26523 80.8584 3.07354C81.9193-5.63135 81.7996-5.60029 91.4032-7.42246C92.5794-7.64883 93.4183-8.56758 93.4183-9.71045C93.4183-10.9021 92.5483-11.8364 91.3233-12.014C82.0548-13.2036 81.886-13.3568 80.8584-22.4146C80.7452-23.6396 79.7466-24.525 78.5394-24.525C77.2988-24.525 76.349-23.6062 76.2358-22.3657C75.2726-13.8028 75.3057-13.7873 65.6422-11.9984C64.4815-11.7721 63.676-10.8223 63.676-9.71045C63.676-8.51875 64.5304-7.64883 65.853-7.40693C75.0883-6.02197 75.257-5.80439 76.2358 2.96035C76.349 4.20088 77.2988 5.11963 78.5394 5.11963ZM36.1612-53.6599C37.0933-53.6599 37.8655-54.3345 38.0431-55.2843C39.2971-61.7541 39.0264-61.4834 45.4807-62.7374C46.4948-62.9149 47.1206-63.6872 47.1206-64.6348C47.1206-65.6001 46.4948-66.3879 45.4807-66.5477C39.0264-67.8039 39.2971-67.5332 38.0431-73.9875C37.8655-74.9684 37.0933-75.6274 36.1612-75.6274C35.1804-75.6274 34.4414-74.9684 34.2639-73.9875C33.0099-67.5332 33.2806-67.8039 26.8107-66.5321C25.8276-66.3879 25.153-65.6001 25.153-64.6348C25.153-63.7027 25.8121-62.9149 26.8107-62.7374C33.2806-61.4834 33.0099-61.7541 34.2639-55.2843C34.4414-54.3189 35.1959-53.6599 36.1612-53.6599ZM92.2286-52.4324C92.2286-63.1233 83.5685-71.7502 72.8775-71.7502C64.0219-71.7502 56.6022-65.7486 54.3586-57.6187C55.3151-57.7318 56.2717-57.7962 57.2282-57.7962C68.587-57.7962 77.7708-48.6124 77.7708-37.2869C77.7708-36.0529 77.6731-34.8855 77.4623-33.767C85.9186-35.7665 92.2286-43.3814 92.2286-52.4324Z"/>
  </g>
  <g id="Medium-S" transform="matrix(1 0 0 1 1695.36 696)">
   <path d="M56.8037-22.2842C65.1104-22.2842 71.8018-28.9668 71.8018-37.2734C71.8018-45.54 65.1104-52.2314 56.8037-52.2314C48.4971-52.2314 41.8145-45.54 41.8145-37.2734C41.8145-28.9756 48.5059-22.2842 56.8037-22.2842ZM20.7041-31.5459C26.6592-31.5459 31.6025-36.4893 31.6025-42.4844C31.6025-48.4795 26.6592-53.3828 20.7041-53.3828C14.709-53.3828 9.76562-48.4795 9.76562-42.4844C9.76562-36.4893 14.709-31.5459 20.7041-31.5459ZM35.8398 3.52832C42.2256 3.52832 47.4707-1.76562 47.4707-8.2002C47.4707-14.5459 42.2256-19.8311 35.8398-19.8311C29.3965-19.8311 24.1113-14.5547 24.1113-8.2002C24.1113-1.75684 29.3965 3.52832 35.8398 3.52832ZM78.0205 4.61426C79.0576 4.61426 79.9531 3.83398 80.1172 2.75684C81.2051-6.06934 81.1797-6.05176 90.79-7.86719C91.8584-8.08008 92.6299-8.91797 92.6299-9.94629C92.6299-11.0234 91.8408-11.8701 90.7236-12.0342C81.3877-13.2373 81.165-13.4512 80.1172-22.583C80.0107-23.7002 79.1064-24.498 78.0205-24.498C76.8945-24.498 76.0391-23.6602 75.9326-22.5342C74.9424-13.8096 74.834-13.8008 65.2109-12.0254C64.1514-11.8125 63.4199-10.957 63.4199-9.94629C63.4199-8.86914 64.2002-8.08008 65.415-7.8584C74.7109-6.45996 74.9336-6.18848 75.9326 2.65039C76.0391 3.77637 76.8945 4.61426 78.0205 4.61426ZM35.8311-53.6396C36.6553-53.6396 37.3467-54.2334 37.5107-55.0889C38.7715-61.6328 38.5547-61.416 45.0898-62.6768C46.0029-62.8408 46.5479-63.5322 46.5479-64.3652C46.5479-65.2295 46.0029-65.9297 45.0898-66.0625C38.5547-67.3457 38.7715-67.1289 37.5107-73.6641C37.3467-74.5371 36.6553-75.1221 35.8311-75.1221C34.958-75.1221 34.3066-74.5371 34.1426-73.6641C32.8818-67.1289 33.0986-67.3457 26.5547-66.0537C25.6592-65.9297 25.0654-65.2295 25.0654-64.3652C25.0654-63.541 25.6504-62.8408 26.5547-62.6768C33.0986-61.416 32.8818-61.6328 34.1426-55.0889C34.3066-54.2246 34.9668-53.6396 35.8311-53.6396ZM91.4268-52.3516C91.4268-62.874 82.9014-71.3594 72.3789-71.3594C63.5098-71.3594 56.1104-65.25 54.0352-57.0459C54.958-57.1523 55.8809-57.21 56.8037-57.21C67.8525-57.21 76.7803-48.2822 76.7803-37.2734C76.7803-36.0664 76.6826-34.9395 76.4785-33.8613C85.0156-35.6924 91.4268-43.2871 91.4268-52.3516Z"/>
  </g>
  <g id="Regular-S" transform="matrix(1 0 0 1 1399.16 696)">
   <path d="M56.25-22.8027C64.2578-22.8027 70.7031-29.248 70.7031-37.2559C70.7031-45.2148 64.2578-51.6602 56.25-51.6602C48.2422-51.6602 41.7969-45.2148 41.7969-37.2559C41.7969-29.248 48.2422-22.8027 56.25-22.8027ZM20.3613-31.8359C26.123-31.8359 30.9082-36.6211 30.9082-42.4316C30.9082-48.2422 26.123-52.9785 20.3613-52.9785C14.5508-52.9785 9.76562-48.2422 9.76562-42.4316C9.76562-36.6211 14.5508-31.8359 20.3613-31.8359ZM35.4004 3.02734C41.6016 3.02734 46.6797-2.09961 46.6797-8.34961C46.6797-14.502 41.6016-19.6289 35.4004-19.6289C29.1504-19.6289 24.0234-14.502 24.0234-8.34961C24.0234-2.09961 29.1504 3.02734 35.4004 3.02734ZM77.3438 3.95508C78.2227 3.95508 79.0039 3.27148 79.1504 2.34375C80.2734-6.64062 80.3711-6.64062 89.9902-8.44727C90.918-8.64258 91.6016-9.375 91.6016-10.2539C91.6016-11.1816 90.918-11.9141 89.9414-12.0605C80.5176-13.2812 80.2246-13.5742 79.1504-22.8027C79.0527-23.7793 78.2715-24.4629 77.3438-24.4629C76.3672-24.4629 75.6348-23.7305 75.5371-22.7539C74.5117-13.8184 74.2188-13.8184 64.6484-12.0605C63.7207-11.8652 63.0859-11.1328 63.0859-10.2539C63.0859-9.32617 63.7695-8.64258 64.8438-8.44727C74.2188-7.03125 74.5117-6.68945 75.5371 2.24609C75.6348 3.22266 76.3672 3.95508 77.3438 3.95508ZM35.4004-53.6133C36.084-53.6133 36.6699-54.1016 36.8164-54.834C38.0859-61.4746 37.9395-61.3281 44.5801-62.5977C45.3613-62.7441 45.8008-63.3301 45.8008-64.0137C45.8008-64.7461 45.3613-65.332 44.5801-65.4297C37.9395-66.748 38.0859-66.6016 36.8164-73.2422C36.6699-73.9746 36.084-74.4629 35.4004-74.4629C34.668-74.4629 34.1309-73.9746 33.9844-73.2422C32.7148-66.6016 32.8613-66.748 26.2207-65.4297C25.4395-65.332 24.9512-64.7461 24.9512-64.0137C24.9512-63.3301 25.4395-62.7441 26.2207-62.5977C32.8613-61.3281 32.7148-61.4746 33.9844-54.834C34.1309-54.1016 34.668-53.6133 35.4004-53.6133ZM90.3809-52.2461C90.3809-62.5488 82.0312-70.8496 71.7285-70.8496C62.8418-70.8496 55.4688-64.5996 53.6133-56.2988C54.4922-56.3965 55.3711-56.4453 56.25-56.4453C66.8945-56.4453 75.4883-47.8516 75.4883-37.2559C75.4883-36.084 75.3906-35.0098 75.1953-33.9844C83.8379-35.5957 90.3809-43.1641 90.3809-52.2461Z"/>
  </g>
  <g id="Light-S" transform="matrix(1 0 0 1 1103.45 696)">
   <path d="M54.9028-23.0298C62.5625-23.0298 68.7354-29.2026 68.7354-36.8623C68.7354-44.5034 62.5625-50.6914 54.9028-50.6914C47.2432-50.6914 41.0703-44.5034 41.0703-36.8623C41.0703-29.2026 47.2432-23.0298 54.9028-23.0298ZM19.5288-32.2295C24.8213-32.2295 29.2432-36.6362 29.2432-41.9775C29.2432-47.3189 24.8213-51.6919 19.5288-51.6919C14.1572-51.6919 9.76562-47.334 9.76562-41.9775C9.76562-36.6211 14.1572-32.2295 19.5288-32.2295ZM34.3408 2.14942C40.0879 2.14942 44.7876-2.59912 44.7876-8.37988C44.7876-14.063 40.0728-18.8267 34.3408-18.8267C28.5601-18.8267 23.8267-14.0781 23.8267-8.37988C23.8267-2.59912 28.5601 2.14942 34.3408 2.14942ZM75.6939 3.62207C76.4063 3.62207 77.0361 3.07471 77.1524 2.31348C78.457-7.07959 78.4336-6.91308 88.3101-8.81054C89.0562-8.96045 89.6035-9.5415 89.6035-10.269C89.6035-11.0303 89.0562-11.6113 88.2764-11.7427C78.5347-13.2207 78.4234-13.2715 77.1524-22.8179C77.0698-23.6128 76.44-24.1602 75.6939-24.1602C74.8989-24.1602 74.3027-23.5791 74.2202-22.7842C72.9829-13.4248 72.8716-13.5913 63.044-11.7427C62.2827-11.5776 61.7691-10.9966 61.7691-10.269C61.7691-9.50781 62.3164-8.96045 63.1787-8.81054C72.8716-7.18262 72.9829-7.11328 74.2202 2.24609C74.3027 3.04102 74.8989 3.62207 75.6939 3.62207ZM34.5073-52.9927C35.085-52.9927 35.565-53.4053 35.6812-54.0166C36.981-61.2173 36.8042-60.9648 44.0352-62.3706C44.6802-62.502 45.0591-62.9668 45.0591-63.5444C45.0591-64.1558 44.6802-64.6357 44.0352-64.7334C36.8042-66.1577 36.981-65.9204 35.6812-73.1211C35.565-73.7324 35.085-74.145 34.5073-74.145C33.896-74.145 33.4346-73.7324 33.3184-73.1211C32.0186-65.9204 32.1953-66.1577 24.9644-64.7334C24.3193-64.6357 23.9219-64.1558 23.9219-63.5444C23.9219-62.9668 24.3193-62.502 24.9644-62.3706C32.1953-60.9648 32.0186-61.2173 33.3184-54.0166C33.4346-53.4053 33.896-52.9927 34.5073-52.9927ZM87.853-51.6406C87.853-61.4136 79.9273-69.3208 70.1543-69.3208C61.4644-69.3208 54.273-63.0254 52.8262-54.77C53.5234-54.8526 54.2056-54.8862 54.9028-54.8862C64.8662-54.8862 72.9302-46.8223 72.9302-36.8623C72.9302-35.9478 72.8628-35.0703 72.7129-34.2417C81.2647-35.4595 87.853-42.7705 87.853-51.6406Z"/>
  </g>
  <g id="Thin-S" transform="matrix(1 0 0 1 808.059 696)">
   <path d="M53.1211-23.3301C60.3203-23.3301 66.1328-29.1426 66.1328-36.3418C66.1328-43.5625 60.3203-49.4102 53.1211-49.4102C45.9219-49.4102 40.1094-43.5625 40.1094-36.3418C40.1094-29.1426 45.9219-23.3301 53.1211-23.3301ZM18.4277-32.75C23.0996-32.75 27.041-36.6562 27.041-41.377C27.041-46.0977 23.0996-49.9903 18.4277-49.9903C13.6367-49.9903 9.76562-46.1328 9.76562-41.377C9.76562-36.6211 13.6367-32.75 18.4277-32.75ZM32.9395 0.988297C38.086 0.988297 42.2852-3.25976 42.2852-8.41992C42.2852-13.4824 38.0508-17.7656 32.9395-17.7656C27.7793-17.7656 23.5664-13.5176 23.5664-8.41992C23.5664-3.25976 27.7793 0.988297 32.9395 0.988297ZM73.5117 3.18165C74.0039 3.18165 74.4336 2.81446 74.5098 2.27344C76.0547-7.66015 75.8711-7.27343 86.0879-9.29101C86.5938-9.38085 86.961-9.76172 86.961-10.2891C86.961-10.8301 86.5938-11.2109 86.0742-11.3223C75.9121-13.1406 76.041-12.8711 74.5098-22.8379C74.4473-23.3926 74.0176-23.7598 73.5117-23.7598C72.9571-23.7598 72.541-23.3789 72.4785-22.8242C70.961-12.9043 71.0899-13.291 60.9219-11.3223C60.3809-11.1973 60.0274-10.8164 60.0274-10.2891C60.0274-9.74804 60.3946-9.38085 60.9766-9.29101C71.0899-7.38281 70.961-7.67382 72.4785 2.24609C72.541 2.80078 72.9571 3.18165 73.5117 3.18165ZM33.3262-52.1719C33.7637-52.1719 34.1035-52.4844 34.1797-52.9356C35.5196-60.877 35.3028-60.4844 43.3145-62.0703C43.7793-62.1816 44.0781-62.4863 44.0781-62.9238C44.0781-63.375 43.7793-63.7149 43.3145-63.8125C35.3028-65.377 35.5196-65.0195 34.1797-72.9609C34.1035-73.4121 33.7637-73.7246 33.3262-73.7246C32.875-73.7246 32.5137-73.4121 32.4375-72.9609C31.0977-65.0195 31.3145-65.377 23.3028-63.8125C22.8379-63.7149 22.5606-63.375 22.5606-62.9238C22.5606-62.4863 22.8379-62.1816 23.3028-62.0703C31.3145-60.4844 31.0977-60.877 32.4375-52.9356C32.5137-52.4844 32.875-52.1719 33.3262-52.1719ZM84.5098-50.8399C84.5098-59.9121 77.1446-67.2989 68.0723-67.2989C59.6426-67.2989 52.6914-60.9434 51.7852-52.7481C52.2422-52.8106 52.6641-52.8242 53.1211-52.8242C62.1836-52.8242 69.5469-45.461 69.5469-36.3418C69.5469-35.7676 69.5196-35.1504 69.4297-34.582C77.8614-35.2793 84.5098-42.25 84.5098-50.8399Z"/>
  </g>
  <g id="Ultralight-S" transform="matrix(1 0 0 1 512.025 696)">
   <path d="M52.2085-23.4839C59.1719-23.4839 64.7999-29.1118 64.7999-36.0752C64.7999-43.0806 59.1719-48.7539 52.2085-48.7539C45.2451-48.7539 39.6172-43.0806 39.6172-36.0752C39.6172-29.1118 45.2451-23.4839 52.2085-23.4839ZM17.8638-33.0166C22.2178-33.0166 25.9131-36.6665 25.9131-41.0693C25.9131-45.4722 22.2178-49.1187 17.8638-49.1187C13.3701-49.1187 9.76562-45.5176 9.76562-41.0693C9.76562-36.6211 13.3701-33.0166 17.8638-33.0166ZM32.2217 0.393575C37.0606 0.393575 41.0035-3.59813 41.0035-8.44043C41.0035-13.1851 37.0152-17.2222 32.2217-17.2222C27.3794-17.2222 23.4331-13.2305 23.4331-8.44043C23.4331-3.59813 27.3794 0.393575 32.2217 0.393575ZM72.3941 2.95606C72.7735 2.95606 73.1006 2.68116 73.1563 2.25293C74.8243-7.95751 74.5586-7.458 84.9497-9.5371C85.3326-9.59618 85.6075-9.87451 85.6075-10.2993C85.6075-10.7275 85.3326-11.0059 84.9463-11.1069C74.5689-13.0996 74.8208-12.666 73.1563-22.8481C73.1041-23.2798 72.7769-23.5547 72.3941-23.5547C71.9624-23.5547 71.6387-23.2764 71.5865-22.8447C69.9253-12.6377 70.1773-13.1372 59.835-11.1069C59.4068-11.0024 59.1353-10.7241 59.1353-10.2993C59.1353-9.87109 59.4102-9.59618 59.8487-9.5371C70.1773-7.48535 69.9253-7.96093 71.5865 2.24609C71.6387 2.67774 71.9624 2.95606 72.3941 2.95606ZM32.7212-51.7515C33.0869-51.7515 33.355-52.0127 33.4107-52.3819C34.771-60.7026 34.5337-60.2383 42.9453-61.9165C43.3179-62.0176 43.5757-62.2402 43.5757-62.606C43.5757-62.9751 43.3179-63.2432 42.9453-63.3408C34.5337-64.9771 34.771-64.5581 33.4107-72.8789C33.355-73.2481 33.0869-73.5093 32.7212-73.5093C32.3521-73.5093 32.042-73.2481 31.9863-72.8789C30.626-64.5581 30.8633-64.9771 22.4517-63.3408C22.0791-63.2432 21.8633-62.9751 21.8633-62.606C21.8633-62.2402 22.0791-62.0176 22.4517-61.9165C30.8633-60.2383 30.626-60.7026 31.9863-52.3819C32.042-52.0127 32.3521-51.7515 32.7212-51.7515ZM82.7974-50.4297C82.7974-59.1431 75.7193-66.2632 67.0059-66.2632C58.7095-66.2632 51.8814-59.877 51.252-51.7124C51.586-51.7647 51.8745-51.7681 52.2085-51.7681C60.8096-51.7681 67.814-44.7637 67.814-36.0752C67.814-35.6753 67.8072-35.1914 67.7481-34.7563C76.1182-35.187 82.7974-41.9834 82.7974-50.4297Z"/>
  </g>
 </g>
</svg>
