<?xml version="1.0" encoding="UTF-8"?>
<!--Generator: Apple Native CoreSVG 175.5-->
<!DOCTYPE svg
PUBLIC "-//W3C//DTD SVG 1.1//EN"
       "http://www.w3.org/Graphics/SVG/1.1/DTD/svg11.dtd">
<svg version="1.1" xmlns="http://www.w3.org/2000/svg" xmlns:xlink="http://www.w3.org/1999/xlink" width="3300" height="2200">
 <!--glyph: "uni10108C.medium", point size: 100.0, font version: "18.0d12e2", template writer version: "101"-->
 <g id="Notes">
  <rect height="2200" id="artboard" style="fill:white;opacity:1" width="3300" x="0" y="0"/>
  <line style="fill:none;stroke:black;opacity:1;stroke-width:0.5;" x1="263" x2="3036" y1="292" y2="292"/>
  <text style="stroke:none;fill:black;font-family:sans-serif;font-size:13;font-weight:bold;" transform="matrix(1 0 0 1 263 322)">Weight/Scale Variations</text>
  <text style="stroke:none;fill:black;font-family:sans-serif;font-size:13;text-anchor:middle;" transform="matrix(1 0 0 1 559.711 322)">Ultralight</text>
  <text style="stroke:none;fill:black;font-family:sans-serif;font-size:13;text-anchor:middle;" transform="matrix(1 0 0 1 856.422 322)">Thin</text>
  <text style="stroke:none;fill:black;font-family:sans-serif;font-size:13;text-anchor:middle;" transform="matrix(1 0 0 1 1153.13 322)">Light</text>
  <text style="stroke:none;fill:black;font-family:sans-serif;font-size:13;text-anchor:middle;" transform="matrix(1 0 0 1 1449.84 322)">Regular</text>
  <text style="stroke:none;fill:black;font-family:sans-serif;font-size:13;text-anchor:middle;" transform="matrix(1 0 0 1 1746.56 322)">Medium</text>
  <text style="stroke:none;fill:black;font-family:sans-serif;font-size:13;text-anchor:middle;" transform="matrix(1 0 0 1 2043.27 322)">Semibold</text>
  <text style="stroke:none;fill:black;font-family:sans-serif;font-size:13;text-anchor:middle;" transform="matrix(1 0 0 1 2339.98 322)">Bold</text>
  <text style="stroke:none;fill:black;font-family:sans-serif;font-size:13;text-anchor:middle;" transform="matrix(1 0 0 1 2636.69 322)">Heavy</text>
  <text style="stroke:none;fill:black;font-family:sans-serif;font-size:13;text-anchor:middle;" transform="matrix(1 0 0 1 2933.4 322)">Black</text>
  <line style="fill:none;stroke:black;opacity:1;stroke-width:0.5;" x1="263" x2="3036" y1="1903" y2="1903"/>
  <g transform="matrix(1 0 0 1 263 1933)">
   <path d="M9.24805 0.830078C13.5547 0.830078 17.1387-2.74414 17.1387-7.05078C17.1387-11.3574 13.5449-14.9316 9.23828-14.9316C4.94141-14.9316 1.36719-11.3574 1.36719-7.05078C1.36719-2.74414 4.95117 0.830078 9.24805 0.830078ZM9.24805-0.654297C5.70312-0.654297 2.87109-3.49609 2.87109-7.05078C2.87109-10.6055 5.69336-13.4473 9.23828-13.4473C12.793-13.4473 15.6445-10.6055 15.6445-7.05078C15.6445-3.49609 12.8027-0.654297 9.24805-0.654297ZM5.6543-7.05078C5.6543-6.62109 5.95703-6.32812 6.40625-6.32812L8.50586-6.32812L8.50586-4.20898C8.50586-3.76953 8.79883-3.4668 9.22852-3.4668C9.67773-3.4668 9.9707-3.76953 9.9707-4.20898L9.9707-6.32812L12.0898-6.32812C12.5293-6.32812 12.832-6.62109 12.832-7.05078C12.832-7.49023 12.5293-7.79297 12.0898-7.79297L9.9707-7.79297L9.9707-9.90234C9.9707-10.3516 9.67773-10.6543 9.22852-10.6543C8.79883-10.6543 8.50586-10.3516 8.50586-9.90234L8.50586-7.79297L6.40625-7.79297C5.95703-7.79297 5.6543-7.49023 5.6543-7.05078Z"/>
  </g>
  <g transform="matrix(1 0 0 1 281.867 1933)">
   <path d="M11.709 2.91016C17.1582 2.91016 21.6699-1.61133 21.6699-7.05078C21.6699-12.5 17.1484-17.0117 11.6992-17.0117C6.25977-17.0117 1.74805-12.5 1.74805-7.05078C1.74805-1.61133 6.26953 2.91016 11.709 2.91016ZM11.709 1.25C7.09961 1.25 3.41797-2.44141 3.41797-7.05078C3.41797-11.6602 7.08984-15.3516 11.6992-15.3516C16.3086-15.3516 20.0098-11.6602 20.0098-7.05078C20.0098-2.44141 16.3184 1.25 11.709 1.25ZM7.17773-7.05078C7.17773-6.57227 7.50977-6.25 8.00781-6.25L10.8789-6.25L10.8789-3.36914C10.8789-2.88086 11.2109-2.53906 11.6895-2.53906C12.1777-2.53906 12.5195-2.87109 12.5195-3.36914L12.5195-6.25L15.4004-6.25C15.8887-6.25 16.2305-6.57227 16.2305-7.05078C16.2305-7.53906 15.8887-7.88086 15.4004-7.88086L12.5195-7.88086L12.5195-10.752C12.5195-11.25 12.1777-11.5918 11.6895-11.5918C11.2109-11.5918 10.8789-11.25 10.8789-10.752L10.8789-7.88086L8.00781-7.88086C7.50977-7.88086 7.17773-7.53906 7.17773-7.05078Z"/>
  </g>
  <g transform="matrix(1 0 0 1 305.646 1933)">
   <path d="M14.9707 5.66406C21.9336 5.66406 27.6953-0.0976562 27.6953-7.05078C27.6953-14.0137 21.9238-19.7754 14.9609-19.7754C8.00781-19.7754 2.25586-14.0137 2.25586-7.05078C2.25586-0.0976562 8.01758 5.66406 14.9707 5.66406ZM14.9707 3.84766C8.93555 3.84766 4.08203-1.01562 4.08203-7.05078C4.08203-13.0957 8.92578-17.9492 14.9609-17.9492C21.0059-17.9492 25.8691-13.0957 25.8691-7.05078C25.8691-1.01562 21.0156 3.84766 14.9707 3.84766ZM9.19922-7.05078C9.19922-6.5332 9.57031-6.17188 10.1172-6.17188L14.0625-6.17188L14.0625-2.2168C14.0625-1.67969 14.4336-1.29883 14.9512-1.29883C15.4883-1.29883 15.8594-1.66992 15.8594-2.2168L15.8594-6.17188L19.8145-6.17188C20.3516-6.17188 20.7324-6.5332 20.7324-7.05078C20.7324-7.59766 20.3613-7.96875 19.8145-7.96875L15.8594-7.96875L15.8594-11.9141C15.8594-12.4609 15.4883-12.8418 14.9512-12.8418C14.4336-12.8418 14.0625-12.4609 14.0625-11.9141L14.0625-7.96875L10.1172-7.96875C9.57031-7.96875 9.19922-7.59766 9.19922-7.05078Z"/>
  </g>
  <text style="stroke:none;fill:black;font-family:sans-serif;font-size:13;font-weight:bold;" transform="matrix(1 0 0 1 263 1953)">Design Variations</text>
  <text style="stroke:none;fill:black;font-family:sans-serif;font-size:13;" transform="matrix(1 0 0 1 263 1971)">Symbols are supported in up to nine weights and three scales.</text>
  <text style="stroke:none;fill:black;font-family:sans-serif;font-size:13;" transform="matrix(1 0 0 1 263 1989)">For optimal layout with text and other symbols, vertically align</text>
  <text style="stroke:none;fill:black;font-family:sans-serif;font-size:13;" transform="matrix(1 0 0 1 263 2007)">symbols with the adjacent text.</text>
  <line style="fill:none;stroke:#00AEEF;stroke-width:0.5;opacity:1.0;" x1="776" x2="776" y1="1919" y2="1933"/>
  <g transform="matrix(1 0 0 1 776 1933)">
   <path d="M3.31055 0.15625C3.82812 0.15625 4.08203-0.0390625 4.26758-0.585938L5.52734-4.0332L11.2891-4.0332L12.5488-0.585938C12.7344-0.0390625 12.9883 0.15625 13.4961 0.15625C14.0137 0.15625 14.3457-0.15625 14.3457-0.644531C14.3457-0.810547 14.3164-0.966797 14.2383-1.17188L9.6582-13.3691C9.43359-13.9648 9.0332-14.2676 8.4082-14.2676C7.80273-14.2676 7.39258-13.9746 7.17773-13.3789L2.59766-1.16211C2.51953-0.957031 2.49023-0.800781 2.49023-0.634766C2.49023-0.146484 2.80273 0.15625 3.31055 0.15625ZM6.00586-5.51758L8.37891-12.0898L8.42773-12.0898L10.8008-5.51758Z"/>
  </g>
  <line style="fill:none;stroke:#00AEEF;stroke-width:0.5;opacity:1.0;" x1="793.197" x2="793.197" y1="1919" y2="1933"/>
  <text style="stroke:none;fill:black;font-family:sans-serif;font-size:13;font-weight:bold;" transform="matrix(1 0 0 1 776 1953)">Margins</text>
  <text style="stroke:none;fill:black;font-family:sans-serif;font-size:13;" transform="matrix(1 0 0 1 776 1971)">Leading and trailing margins on the left and right side of each symbol</text>
  <text style="stroke:none;fill:black;font-family:sans-serif;font-size:13;" transform="matrix(1 0 0 1 776 1989)">can be adjusted by modifying the x-location of the margin guidelines.</text>
  <text style="stroke:none;fill:black;font-family:sans-serif;font-size:13;" transform="matrix(1 0 0 1 776 2007)">Modifications are automatically applied proportionally to all</text>
  <text style="stroke:none;fill:black;font-family:sans-serif;font-size:13;" transform="matrix(1 0 0 1 776 2025)">scales and weights.</text>
  <g transform="matrix(1 0 0 1 1289 1933)">
   <path d="M2.8418 1.86523L4.54102 3.57422C5.40039 4.44336 6.38672 4.38477 7.31445 3.35938L18.0078-8.42773L17.041-9.4043L6.42578 2.27539C6.07422 2.67578 5.74219 2.77344 5.27344 2.30469L4.10156 1.14258C3.63281 0.683594 3.74023 0.341797 4.14062-0.0195312L15.6152-10.8203L14.6387-11.7871L3.04688-0.898438C2.06055 0.0195312 1.98242 0.996094 2.8418 1.86523ZM9.25781-16.3281C8.83789-15.918 8.80859-15.3418 9.04297-14.9512C9.27734-14.5898 9.73633-14.3555 10.3809-14.5215C11.8457-14.8633 13.3691-14.9219 14.7949-13.9844L14.209-12.5293C13.8672-11.6992 14.043-11.1133 14.5801-10.5664L16.875-8.25195C17.3633-7.76367 17.7734-7.74414 18.3398-7.8418L19.4043-8.03711L20.0684-7.36328L20.0293-6.80664C19.9902-6.30859 20.1172-5.92773 20.6055-5.44922L21.3672-4.70703C21.8457-4.22852 22.4609-4.19922 22.9297-4.66797L25.8398-7.58789C26.3086-8.05664 26.2891-8.65234 25.8105-9.13086L25.0391-9.89258C24.5605-10.3711 24.1895-10.5273 23.7109-10.4883L23.1348-10.4395L22.4902-11.0742L22.7344-12.1973C22.8613-12.7637 22.7051-13.2031 22.1191-13.7891L19.9219-15.9766C16.582-19.2969 12.1484-19.2188 9.25781-16.3281ZM10.752-15.957C13.1836-17.7344 16.4746-17.4316 18.7012-15.2051L21.1328-12.793C21.3672-12.5586 21.4062-12.373 21.3379-12.0312L21.0156-10.5469L22.5195-9.0625L23.5059-9.12109C23.7598-9.13086 23.8379-9.11133 24.0332-8.91602L24.6094-8.33984L22.168-5.89844L21.5918-6.47461C21.3965-6.66992 21.3672-6.74805 21.377-7.01172L21.4453-7.98828L19.9512-9.47266L18.4277-9.21875C18.1055-9.15039 17.959-9.17969 17.7148-9.41406L15.7129-11.416C15.459-11.6504 15.4297-11.8164 15.5859-12.1875L16.4648-14.2773C14.9023-15.7324 12.8711-16.3574 10.8398-15.7617C10.6836-15.7227 10.625-15.8496 10.752-15.957Z"/>
  </g>
  <text style="stroke:none;fill:black;font-family:sans-serif;font-size:13;font-weight:bold;" transform="matrix(1 0 0 1 1289 1953)">Exporting</text>
  <text style="stroke:none;fill:black;font-family:sans-serif;font-size:13;" transform="matrix(1 0 0 1 1289 1971)">Symbols should be outlined when exporting to ensure the</text>
  <text style="stroke:none;fill:black;font-family:sans-serif;font-size:13;" transform="matrix(1 0 0 1 1289 1989)">design is preserved when submitting to Xcode.</text>
  <text id="template-version" style="stroke:none;fill:black;font-family:sans-serif;font-size:13;text-anchor:end;" transform="matrix(1 0 0 1 3036 1933)">Template v.4.0</text>
  <text style="stroke:none;fill:black;font-family:sans-serif;font-size:13;text-anchor:end;" transform="matrix(1 0 0 1 3036 1951)">Requires Xcode 14 or greater</text>
  <text id="descriptive-name" style="stroke:none;fill:black;font-family:sans-serif;font-size:13;text-anchor:end;" transform="matrix(1 0 0 1 3036 1969)">Generated from arrow.backward.to.line.circle</text>
  <text style="stroke:none;fill:black;font-family:sans-serif;font-size:13;text-anchor:end;" transform="matrix(1 0 0 1 3036 1987)">Typeset at 100 points</text>
  <text style="stroke:none;fill:black;font-family:sans-serif;font-size:13;" transform="matrix(1 0 0 1 263 726)">Small</text>
  <text style="stroke:none;fill:black;font-family:sans-serif;font-size:13;" transform="matrix(1 0 0 1 263 1156)">Medium</text>
  <text style="stroke:none;fill:black;font-family:sans-serif;font-size:13;" transform="matrix(1 0 0 1 263 1586)">Large</text>
 </g>
 <g id="Guides">
  <g id="H-reference" style="fill:#27AAE1;stroke:none;" transform="matrix(1 0 0 1 339 696)">
   <path d="M0.993654 0L3.63775 0L29.3281-67.1323L30.0303-67.1323L30.0303-70.459L28.1226-70.459ZM11.6885-24.4799L46.9815-24.4799L46.2315-26.7285L12.4385-26.7285ZM55.1196 0L57.7637 0L30.6382-70.459L29.4326-70.459L29.4326-67.1323Z"/>
  </g>
  <line id="Baseline-S" style="fill:none;stroke:#27AAE1;opacity:1;stroke-width:0.5;" x1="263" x2="3036" y1="696" y2="696"/>
  <line id="Capline-S" style="fill:none;stroke:#27AAE1;opacity:1;stroke-width:0.5;" x1="263" x2="3036" y1="625.541" y2="625.541"/>
  <g id="H-reference" style="fill:#27AAE1;stroke:none;" transform="matrix(1 0 0 1 339 1126)">
   <path d="M0.993654 0L3.63775 0L29.3281-67.1323L30.0303-67.1323L30.0303-70.459L28.1226-70.459ZM11.6885-24.4799L46.9815-24.4799L46.2315-26.7285L12.4385-26.7285ZM55.1196 0L57.7637 0L30.6382-70.459L29.4326-70.459L29.4326-67.1323Z"/>
  </g>
  <line id="Baseline-M" style="fill:none;stroke:#27AAE1;opacity:1;stroke-width:0.5;" x1="263" x2="3036" y1="1126" y2="1126"/>
  <line id="Capline-M" style="fill:none;stroke:#27AAE1;opacity:1;stroke-width:0.5;" x1="263" x2="3036" y1="1055.54" y2="1055.54"/>
  <g id="H-reference" style="fill:#27AAE1;stroke:none;" transform="matrix(1 0 0 1 339 1556)">
   <path d="M0.993654 0L3.63775 0L29.3281-67.1323L30.0303-67.1323L30.0303-70.459L28.1226-70.459ZM11.6885-24.4799L46.9815-24.4799L46.2315-26.7285L12.4385-26.7285ZM55.1196 0L57.7637 0L30.6382-70.459L29.4326-70.459L29.4326-67.1323Z"/>
  </g>
  <line id="Baseline-L" style="fill:none;stroke:#27AAE1;opacity:1;stroke-width:0.5;" x1="263" x2="3036" y1="1556" y2="1556"/>
  <line id="Capline-L" style="fill:none;stroke:#27AAE1;opacity:1;stroke-width:0.5;" x1="263" x2="3036" y1="1485.54" y2="1485.54"/>
  <line id="left-margin-Regular-M" style="fill:none;stroke:#00AEEF;stroke-width:0.5;opacity:1.0;" x1="1391.32" x2="1391.32" y1="1030.79" y2="1150.12"/>
  <line id="right-margin-Regular-M" style="fill:none;stroke:#00AEEF;stroke-width:0.5;opacity:1.0;" x1="1508.37" x2="1508.37" y1="1030.79" y2="1150.12"/>
 </g>
 <g id="Symbols">
  <g id="Black-L" transform="matrix(1 0 0 1 2854.19 1556)">
   <path d="M79.1958 32.7257C116.56 32.7257 147.154 2.15259 147.154-35.2113C147.154-72.5752 116.539-103.148 79.175-103.148C41.8307-103.148 11.2588-72.5752 11.2588-35.2113C11.2588 2.15259 41.8515 32.7257 79.1958 32.7257ZM79.1958 12.5782C52.765 12.5782 31.4468-8.75969 31.4468-35.2113C31.4468-61.6629 52.7442-83.0007 79.175-83.0007C105.627-83.0007 126.985-61.6629 126.985-35.2113C126.985-8.75969 105.647 12.5782 79.1958 12.5782ZM56.0941-8.02421C59.5381-8.02421 62.346-10.8321 62.346-14.2969L62.346-56.2449C62.346-59.7305 59.5381-62.5176 56.0941-62.5176C52.606-62.5176 49.7994-59.7305 49.7994-56.2449L49.7994-14.2969C49.7994-10.8321 52.606-8.02421 56.0941-8.02421ZM116.241-35.2501C116.241-39.1846 113.433-41.816 109.324-41.816L92.2821-41.816L84.1857-41.0214L90.5762-46.5087L94.4144-50.3821C95.7018-51.61 96.5688-53.0599 96.5688-55.0744C96.5688-58.6388 93.9154-61.2882 90.0821-61.2882C88.5349-61.2882 86.8709-60.6149 85.5454-59.2297L67.3053-40.096C66.1734-38.9081 65.362-37.1661 65.362-35.2501C65.362-33.3341 66.1526-31.5932 67.3053-30.4041L85.5406-11.2792C86.7697-9.93336 88.5742-9.25361 90.1041-9.25361C93.957-9.25361 96.5688-11.903 96.5688-15.4299C96.5688-17.4859 95.6434-18.9527 94.4144-20.1805L90.5726-23.9766L84.1648-29.4788L92.2821-28.6633L109.324-28.6633C113.433-28.6633 116.241-31.2751 116.241-35.2501Z"/>
  </g>
  <g id="Heavy-L" transform="matrix(1 0 0 1 2558.42 1556)">
   <path d="M78.2532 31.7694C115.056 31.7694 145.278 1.57794 145.278-35.2251C145.278-72.0281 115.026-102.22 78.2231-102.22C41.4446-102.22 11.2588-72.0281 11.2588-35.2251C11.2588 1.57794 41.4748 31.7694 78.2532 31.7694ZM78.2532 14.0275C51.0062 14.0275 29.0554-7.9479 29.0554-35.2251C29.0554-62.5023 50.9761-84.4777 78.2231-84.4777C105.5-84.4777 127.506-62.5023 127.506-35.2251C127.506-7.9479 105.53 14.0275 78.2532 14.0275ZM54.3316-7.9517C57.4811-7.9517 60.0209-10.4915 60.0209-13.6712L60.0209-56.8795C60.0209-60.0893 57.4811-62.5989 54.3316-62.5989C51.1105-62.5989 48.5763-60.0893 48.5763-56.8795L48.5763-13.6712C48.5763-10.4915 51.1105-7.9517 54.3316-7.9517ZM115.802-35.2451C115.802-38.793 113.262-41.1933 109.58-41.1933L89.5717-41.1933L80.6675-40.434L88.5444-47.3257L92.5175-51.302C93.6864-52.4207 94.4342-53.7851 94.4342-55.5713C94.4342-58.8268 91.9981-61.217 88.5609-61.217C87.1317-61.217 85.6134-60.622 84.4009-59.3593L65.3133-39.6415C64.2537-38.5485 63.5101-36.961 63.5101-35.2451C63.5101-33.5293 64.2235-31.9473 65.3133-30.8487L84.3785-11.1994C85.5028-9.98582 87.1809-9.33364 88.5967-9.33364C92.0585-9.33364 94.4342-11.7238 94.4342-14.9649C94.4342-16.8114 93.6418-18.1601 92.5175-19.2788L88.5275-23.1625L80.6373-30.0562L89.5717-29.2668L109.58-29.2668C113.262-29.2668 115.802-31.6425 115.802-35.2451Z"/>
  </g>
  <g id="Bold-L" transform="matrix(1 0 0 1 2262.89 1556)">
   <path d="M77.0704 30.5711C113.182 30.5711 142.92 0.870872 142.92-35.2405C142.92-71.3519 113.144-101.052 77.0324-101.052C40.9458-101.052 11.2588-71.3519 11.2588-35.2405C11.2588 0.870872 40.9838 30.5711 77.0704 30.5711ZM77.0704 15.8255C48.8167 15.8255 26.0672-6.94878 26.0672-35.2405C26.0672-63.5322 48.7787-86.3065 77.0324-86.3065C105.324-86.3065 128.136-63.5322 128.136-35.2405C128.136-6.94878 105.362 15.8255 77.0704 15.8255ZM52.194-7.9937C54.9524-7.9937 57.1469-10.1881 57.1469-12.9845L57.1469-57.5813C57.1469-60.4157 54.9524-62.5722 52.194-62.5722C49.3332-62.5722 47.152-60.4157 47.152-57.5813L47.152-12.9845C47.152-10.1881 49.3332-7.9937 52.194-7.9937ZM115.01-35.2449C115.01-38.3014 112.816-40.395 109.672-40.395L86.0499-40.395L76.2287-39.6967L85.7335-48.1834L90.0396-52.4542C91.0624-53.4347 91.6717-54.6767 91.6717-56.186C91.6717-59.0425 89.5269-61.1025 86.5888-61.1025C85.3132-61.1025 83.9791-60.5924 82.9199-59.4908L62.8467-39.0582C61.8867-38.0954 61.2351-36.7074 61.2351-35.2449C61.2351-33.7825 61.8487-32.4077 62.8467-31.4317L82.867-11.1368C83.8607-10.0847 85.3627-9.46332 86.64-9.46332C89.6029-9.46332 91.6717-11.5234 91.6717-14.3887C91.6717-15.9739 91.0332-17.1692 90.0396-18.1497L85.6938-22.3347L76.1907-30.7932L86.0499-30.0569L109.672-30.0569C112.816-30.0569 115.01-32.1257 115.01-35.2449Z"/>
  </g>
  <g id="Semibold-L" transform="matrix(1 0 0 1 1966.99 1556)">
   <path d="M76.2549 29.745C111.889 29.745 141.294 0.383422 141.294-35.2511C141.294-70.8857 111.846-100.247 76.2116-100.247C40.6019-100.247 11.2588-70.8857 11.2588-35.2511C11.2588 0.383422 40.6453 29.745 76.2549 29.745ZM76.2549 17.065C47.3072 17.065 24.0071-6.26 24.0071-35.2511C24.0071-64.2423 47.2638-87.5672 76.2116-87.5672C105.203-87.5672 128.571-64.2423 128.571-35.2511C128.571-6.26 105.246 17.065 76.2549 17.065ZM50.7204-8.02266C53.2092-8.02266 55.1656-9.979 55.1656-12.5112L55.1656-58.0652C55.1656-60.6407 53.2092-62.5537 50.7204-62.5537C48.1079-62.5537 46.1701-60.6407 46.1701-58.0652L46.1701-12.5112C46.1701-9.979 48.1079-8.02266 50.7204-8.02266ZM114.465-35.2448C114.465-37.9625 112.508-39.8447 109.735-39.8447L83.6219-39.8447L73.1686-39.1883L83.7957-48.7747L88.3313-53.2485C89.2535-54.1337 89.7672-55.2913 89.7672-56.6098C89.7672-59.1912 87.8233-61.0237 85.2293-61.0237C84.0594-61.0237 82.8524-60.5721 81.8989-59.5815L61.1463-38.656C60.2549-37.783 59.6667-36.5325 59.6667-35.2448C59.6667-33.9571 60.2115-32.7251 61.1463-31.8336L81.825-11.0936C82.7286-10.1528 84.1092-9.55272 85.2912-9.55272C87.91-9.55272 89.7672-11.3852 89.7672-13.9914C89.7672-15.3966 89.2349-16.486 88.3313-17.3712L83.7403-21.764L73.1252-31.3013L83.6219-30.6016L109.735-30.6016C112.508-30.6016 114.465-32.4588 114.465-35.2448Z"/>
  </g>
  <g id="Medium-L" transform="matrix(1 0 0 1 1670.9 1556)">
   <path d="M75.6366 29.1187C110.91 29.1187 140.062 0.0138167 140.062-35.2592C140.062-70.5322 110.862-99.637 75.5892-99.637C40.3412-99.637 11.2588-70.5322 11.2588-35.2592C11.2588 0.0138167 40.3886 29.1187 75.6366 29.1187ZM75.6366 18.0048C46.1626 18.0048 22.4451-5.73774 22.4451-35.2592C22.4451-64.7806 46.1152-88.5232 75.5892-88.5232C105.111-88.5232 128.901-64.7806 128.901-35.2592C128.901-5.73774 105.158 18.0048 75.6366 18.0048ZM49.6031-8.04462C51.8875-8.04462 53.6633-9.82043 53.6633-12.1523L53.6633-58.4321C53.6633-60.8113 51.8875-62.5397 49.6031-62.5397C47.1789-62.5397 45.4255-60.8113 45.4255-58.4321L45.4255-12.1523C45.4255-9.82043 47.1789-8.04462 49.6031-8.04462ZM114.051-35.2447C114.051-37.7056 112.275-39.4274 109.783-39.4274L81.781-39.4274L70.8483-38.8029L82.3264-49.2231L87.036-53.8508C87.8819-54.6637 88.3232-55.7573 88.3232-56.9311C88.3232-59.3039 86.5315-60.9638 84.1985-60.9638C83.1088-60.9638 81.9981-60.5566 81.1247-59.6502L59.8569-38.3511C59.0176-37.5462 58.4775-36.4 58.4775-35.2447C58.4775-34.0895 58.9702-32.9657 59.8569-32.1383L81.0349-11.0609C81.8702-10.2045 83.1588-9.6205 84.2684-9.6205C86.6264-9.6205 88.3232-11.2804 88.3232-13.6901C88.3232-14.9588 87.8714-15.9681 87.036-16.781L82.259-21.3313L70.8008-31.6865L81.781-31.0146L109.783-31.0146C112.275-31.0146 114.051-32.7114 114.051-35.2447Z"/>
  </g>
  <g id="Regular-L" transform="matrix(1 0 0 1 1374.99 1556)">
   <path d="M74.8301 28.3017C109.632 28.3017 138.454-0.468277 138.454-35.2697C138.454-70.0711 109.579-98.8411 74.7774-98.8411C40.0011-98.8411 11.2588-70.0711 11.2588-35.2697C11.2588-0.468277 40.0538 28.3017 74.8301 28.3017ZM74.8301 19.2307C44.6697 19.2307 20.4076-5.05652 20.4076-35.2697C20.4076-65.4829 44.617-89.7701 74.7774-89.7701C104.991-89.7701 129.331-65.4829 129.331-35.2697C129.331-5.05652 105.043 19.2307 74.8301 19.2307ZM48.1456-8.07326C50.1634-8.07326 51.7037-9.61359 51.7037-11.6841L51.7037-58.9106C51.7037-61.0339 50.1634-62.5215 48.1456-62.5215C45.967-62.5215 44.4544-61.0339 44.4544-58.9106L44.4544-11.6841C44.4544-9.61359 45.967-8.07326 48.1456-8.07326ZM113.511-35.2446C113.511-37.3704 111.971-38.8831 109.845-38.8831L79.3797-38.8831L67.8218-38.3002L80.4099-49.8079L85.3465-54.6364C86.0929-55.3551 86.4396-56.3652 86.4396-57.3503C86.4396-59.451 84.8465-60.8858 82.8539-60.8858C81.8688-60.8858 80.8838-60.5365 80.1149-59.7399L58.1752-37.9534C57.4037-37.2372 56.9263-36.2271 56.9263-35.2446C56.9263-34.2621 57.351-33.2796 58.1752-32.5358L80.0043-11.0182C80.7506-10.2719 81.9191-9.70892 82.9343-9.70892C84.9521-9.70892 86.4396-11.1437 86.4396-13.2972C86.4396-14.3878 86.0929-15.2924 85.3465-16.0111L80.3269-20.7669L67.7691-32.189L79.3797-31.5533L109.845-31.5533C111.971-31.5533 113.511-33.0409 113.511-35.2446Z"/>
  </g>
  <g id="Light-L" transform="matrix(1 0 0 1 1079.2 1556)">
   <path d="M73.9141 27.3856C108.257 27.3856 136.603-0.926323 136.603-35.2697C136.603-69.6131 108.224-97.925 73.8804-97.925C39.5239-97.925 11.2588-69.6131 11.2588-35.2697C11.2588-0.926323 39.5576 27.3856 73.9141 27.3856ZM73.9141 20.4903C43.0857 20.4903 18.1746-4.40762 18.1746-35.2697C18.1746-66.1318 43.052-91.0297 73.8804-91.0297C104.742-91.0297 129.674-66.1318 129.674-35.2697C129.674-4.40762 104.776 20.4903 73.9141 20.4903ZM46.9624-8.95118C48.5411-8.95118 49.757-10.1671 49.757-11.7795L49.757-58.8534C49.757-60.4995 48.5411-61.6817 46.9624-61.6817C45.2227-61.6817 44.0536-60.4995 44.0536-58.8534L44.0536-11.7795C44.0536-10.1671 45.2227-8.95118 46.9624-8.95118ZM111.374-35.2828C111.374-36.9887 110.158-38.1579 108.452-38.1579L75.8871-38.1579L64.2338-37.7276L76.5738-49.4071L82.8082-55.5143C83.4591-56.1185 83.7677-56.9378 83.7677-57.7701C83.7677-59.4892 82.5181-60.6377 80.9263-60.6377C80.0939-60.6377 79.2616-60.2693 78.6835-59.6445L56.4766-37.419C55.8387-36.8746 55.4758-36.0553 55.4758-35.2828C55.4758-34.5102 55.8051-33.7377 56.4766-33.1465L78.4965-11.209C79.1475-10.5581 80.0678-9.9952 81.0067-9.9952C82.5855-9.9952 83.7677-11.1437 83.7677-12.8964C83.7677-13.7961 83.4591-14.5481 82.8082-15.1523L76.4335-21.3585L64.2001-32.8379L75.8871-32.374L108.452-32.374C110.158-32.374 111.374-33.5562 111.374-35.2828Z"/>
  </g>
  <g id="Thin-L" transform="matrix(1 0 0 1 783.716 1556)">
   <path d="M72.7024 26.174C106.44 26.174 134.155-1.53213 134.155-35.2697C134.155-69.0073 106.432-96.7134 72.694-96.7134C38.8929-96.7134 11.2588-69.0073 11.2588-35.2697C11.2588-1.53213 38.9013 26.174 72.7024 26.174ZM72.7024 22.1563C40.9906 22.1563 15.2214-3.5494 15.2214-35.2697C15.2214-66.99 40.9821-92.6957 72.694-92.6957C104.414-92.6957 130.128-66.99 130.128-35.2697C130.128-3.5494 104.423 22.1563 72.7024 22.1563ZM45.3974-10.1123C46.3956-10.1123 47.1824-10.8991 47.1824-11.9057L47.1824-58.7776C47.1824-59.7927 46.3956-60.5711 45.3974-60.5711C44.2383-60.5711 43.5235-59.7927 43.5235-58.7776L43.5235-11.9057C43.5235-10.8991 44.2383-10.1123 45.3974-10.1123ZM108.547-35.3332C108.547-36.4839 107.76-37.1987 106.609-37.1987L71.2679-37.1987L59.4883-36.9703L71.5002-48.877L79.451-56.6754C79.9757-57.1282 80.2338-57.695 80.2338-58.3255C80.2338-59.5396 79.4386-60.3095 78.3769-60.3095C77.7464-60.3095 77.116-59.9159 76.7904-59.5183L54.2301-36.7122C53.7689-36.395 53.5575-35.8281 53.5575-35.3332C53.5575-34.8384 53.7605-34.3435 54.2301-33.9543L76.5024-11.4615C77.0271-10.9368 77.6193-10.3738 78.4573-10.3738C79.4555-10.3738 80.2338-11.1437 80.2338-12.3663C80.2338-13.0136 79.9757-13.5637 79.451-14.0164L71.2842-22.141L59.4799-33.6962L71.2679-33.4594L106.609-33.4594C107.76-33.4594 108.547-34.2377 108.547-35.3332Z"/>
  </g>
  <g id="Ultralight-L" transform="matrix(1 0 0 1 487.631 1556)">
   <path d="M72.0819 25.5534C105.509 25.5534 132.9-1.84242 132.9-35.2697C132.9-68.697 105.514-96.0928 72.0864-96.0928C38.5697-96.0928 11.2588-68.697 11.2588-35.2697C11.2588-1.84242 38.5652 25.5534 72.0819 25.5534ZM72.0819 23.0096C39.9175 23.0096 13.7087-3.10983 13.7087-35.2697C13.7087-67.4296 39.922-93.549 72.0864-93.549C104.246-93.549 130.361-67.4296 130.361-35.2697C130.361-3.10983 104.242 23.0096 72.0819 23.0096ZM44.5958-10.707C45.2966-10.707 45.8636-11.274 45.8636-11.9704L45.8636-58.7388C45.8636-59.4307 45.2966-60.0022 44.5958-60.0022C43.7341-60.0022 43.252-59.4307 43.252-58.7388L43.252-11.9704C43.252-11.274 43.7341-10.707 44.5958-10.707ZM107.099-35.3591C107.099-36.2253 106.532-36.7074 105.665-36.7074L68.9019-36.7074L57.0577-36.5825L68.9015-48.6055L77.7315-57.2702C78.1915-57.6453 78.4238-58.0829 78.4238-58.6099C78.4238-59.5655 77.8613-60.1415 77.0711-60.1415C76.5441-60.1415 76.0171-59.7349 75.8207-59.4536L53.0794-36.3502C52.7088-36.1494 52.5749-35.7118 52.5749-35.3591C52.5749-35.0064 52.7132-34.6537 53.0794-34.368L75.4811-11.5908C75.9411-11.1307 76.3652-10.5678 77.1515-10.5678C77.8523-10.5678 78.4238-11.1437 78.4238-12.0948C78.4238-12.6129 78.1915-13.0594 77.7315-13.4346L68.6467-22.5418L57.0622-34.1357L68.9019-34.0153L105.665-34.0153C106.532-34.0153 107.099-34.5868 107.099-35.3591Z"/>
  </g>
  <g id="Black-M" transform="matrix(1 0 0 1 2871.36 1126)">
   <path d="M62.0422 18.116C91.4096 18.116 115.367-5.83621 115.367-35.2035C115.367-64.5709 91.4041-88.5231 62.0367-88.5231C32.6752-88.5231 8.72266-64.5709 8.72266-35.2035C8.72266-5.83621 32.6807 18.116 62.0422 18.116ZM62.0422 0.73415C42.1762 0.73415 26.1158-15.332 26.1158-35.2035C26.1158-55.0751 42.1707-71.1412 62.0367-71.1412C81.9083-71.1412 97.9799-55.0751 97.9799-35.2035C97.9799-15.332 81.9138 0.73415 62.0422 0.73415ZM44.8129-14.3337C47.6748-14.3337 50.0366-16.6955 50.0366-19.5629L50.0366-50.9578C50.0366-53.8307 47.6748-56.187 44.8129-56.187C41.9405-56.187 39.5785-53.8307 39.5785-50.9578L39.5785-19.5629C39.5785-16.6955 41.9405-14.3337 44.8129-14.3337ZM90.1451-35.2549C90.1451-38.5785 87.7833-40.7693 84.2884-40.7693L73.351-40.7693L67.7597-40.1439L71.3996-43.2115L74.4331-46.2972C75.5195-47.3268 76.2884-48.4978 76.2884-50.234C76.2884-53.2092 74.0924-55.4458 70.8366-55.4458C69.5572-55.4458 68.1636-54.8543 67.0653-53.6992L53.6261-39.318C52.7052-38.3394 52.0338-36.8829 52.0338-35.2549C52.0338-33.6268 52.6997-32.1701 53.6261-31.1918L67.0664-16.7688C68.0958-15.6252 69.5687-15.0749 70.8418-15.0749C74.1034-15.0749 76.2884-17.3115 76.2884-20.2351C76.2884-21.9823 75.4624-23.1994 74.4331-24.229L71.4005-27.2913L67.7542-30.3658L73.351-29.735L84.2884-29.735C87.7833-29.735 90.1451-31.92 90.1451-35.2549Z"/>
  </g>
  <g id="Heavy-M" transform="matrix(1 0 0 1 2575.48 1126)">
   <path d="M61.2053 17.2657C90.0667 17.2657 113.704-6.35571 113.704-35.217C113.704-64.0783 90.0502-87.6997 61.1889-87.6997C32.3418-87.6997 8.72266-64.0783 8.72266-35.217C8.72266-6.35571 32.3582 17.2657 61.2053 17.2657ZM61.2053 2.03478C40.603 2.03478 23.9841-14.5983 23.9841-35.217C23.9841-55.8358 40.5866-72.4688 61.1889-72.4688C81.8077-72.4688 98.4571-55.8358 98.4571-35.217C98.4571-14.5983 81.8241 2.03478 61.2053 2.03478ZM43.1991-14.1818C45.8135-14.1818 47.9432-16.3115 47.9432-18.9423L47.9432-51.5835C47.9432-54.2308 45.8135-56.344 43.1991-56.344C40.5472-56.344 38.4198-54.2308 38.4198-51.5835L38.4198-18.9423C38.4198-16.3115 40.5472-14.1818 43.1991-14.1818ZM89.9126-35.2465C89.9126-38.2309 87.783-40.2274 84.6677-40.2274L71.0236-40.2274L64.6514-39.6226L69.7673-44.0471L72.8129-47.1155C73.7923-48.0489 74.4482-49.1539 74.4482-50.681C74.4482-53.3895 72.433-55.3991 69.5273-55.3991C68.3492-55.3991 67.0839-54.8859 66.0785-53.8347L51.8355-38.923C50.9729-38.0213 50.3572-36.6982 50.3572-35.2465C50.3572-33.7948 50.9565-32.474 51.8355-31.57L66.0694-16.673C67.0051-15.6501 68.3775-15.1267 69.546-15.1267C72.4658-15.1267 74.4482-17.1363 74.4482-19.8176C74.4482-21.3775 73.7486-22.4933 72.8129-23.4268L69.7605-26.4408L64.635-30.8704L71.0236-30.2492L84.6677-30.2492C87.783-30.2492 89.9126-32.2316 89.9126-35.2465Z"/>
  </g>
  <g id="Bold-M" transform="matrix(1 0 0 1 2279.69 1126)">
   <path d="M60.2692 16.3144C88.5644 16.3144 111.844-6.93686 111.844-35.2321C111.844-63.5273 88.5358-86.7786 60.2405-86.7786C31.9688-86.7786 8.72266-63.5273 8.72266-35.2321C8.72266-6.93686 31.9974 16.3144 60.2692 16.3144ZM60.2692 3.48972C38.8432 3.48972 21.5995-13.7775 21.5995-35.2321C21.5995-56.6867 38.8146-73.9539 60.2405-73.9539C81.6951-73.9539 98.991-56.6867 98.991-35.2321C98.991-13.7775 81.7238 3.48972 60.2692 3.48972ZM41.3938-14.0119C43.7314-14.0119 45.6015-15.8819 45.6015-18.2482L45.6015-52.2834C45.6015-54.6783 43.7314-56.5196 41.3938-56.5196C38.9886-56.5196 37.1238-54.6783 37.1238-52.2834L37.1238-18.2482C37.1238-15.8819 38.9886-14.0119 41.3938-14.0119ZM89.6526-35.2372C89.6526-37.8421 87.7826-39.6213 85.092-39.6213L68.4201-39.6213L61.1744-39.0393L67.9413-44.9819L71.0005-48.0309C71.8601-48.8567 72.3897-49.8879 72.3897-51.181C72.3897-53.5912 70.5767-55.3469 68.0627-55.3469C66.9979-55.3469 65.876-54.9212 64.9747-53.9862L49.8324-38.4812C49.035-37.6655 48.4818-36.4916 48.4818-35.2372C48.4818-33.9827 49.0064-32.8139 49.8324-31.9932L64.9541-16.566C65.7851-15.6779 67.0449-15.1847 68.0965-15.1847C70.634-15.1847 72.3897-16.9404 72.3897-19.3506C72.3897-20.701 71.8315-21.7035 71.0005-22.5293L67.9259-25.4894L61.1457-31.435L68.4201-30.8244L85.092-30.8244C87.7826-30.8244 89.6526-32.5801 89.6526-35.2372Z"/>
  </g>
  <g id="Semibold-M" transform="matrix(1 0 0 1 1983.62 1126)">
   <path d="M59.6238 15.6586C87.5288 15.6586 110.562-7.33749 110.562-35.2425C110.562-63.1475 87.4917-86.1436 59.5867-86.1436C31.7117-86.1436 8.72266-63.1475 8.72266-35.2425C8.72266-7.33749 31.7487 15.6586 59.6238 15.6586ZM59.6238 4.49275C37.63 4.49275 19.9555-13.2117 19.9555-35.2425C19.9555-57.2733 37.5929-74.9777 59.5867-74.9777C81.6175-74.9777 99.359-57.2733 99.359-35.2425C99.359-13.2117 81.6546 4.49275 59.6238 4.49275ZM40.1493-13.8948C42.2961-13.8948 43.9871-15.5858 43.9871-17.7697L43.9871-52.7658C43.9871-54.9867 42.2961-56.6407 40.1493-56.6407C37.9142-56.6407 36.2302-54.9867 36.2302-52.7658L36.2302-17.7697C36.2302-15.5858 37.9142-13.8948 40.1493-13.8948ZM89.4733-35.2307C89.4733-37.574 87.7823-39.2035 85.3845-39.2035L66.6252-39.2035L58.7773-38.6373L66.6824-45.6264L69.7511-48.6619C70.528-49.4136 70.9706-50.3939 70.9706-51.5258C70.9706-53.7302 69.297-55.3108 67.053-55.3108C66.0664-55.3108 65.0434-54.9456 64.2137-54.0906L48.4515-38.1765C47.6991-37.4202 47.1888-36.3491 47.1888-35.2307C47.1888-34.1123 47.6621-33.0483 48.4515-32.2849L64.1853-16.4922C64.944-15.6971 66.1262-15.2247 67.0972-15.2247C69.3711-15.2247 70.9706-16.8053 70.9706-19.0286C70.9706-20.2346 70.5099-21.159 69.7511-21.9106L66.6611-24.8335L58.7403-31.8242L66.6252-31.2209L85.3845-31.2209C87.7823-31.2209 89.4733-32.8204 89.4733-35.2307Z"/>
  </g>
  <g id="Medium-M" transform="matrix(1 0 0 1 1687.4 1126)">
   <path d="M59.1344 15.1614C86.7435 15.1614 109.59-7.64127 109.59-35.2504C109.59-62.8595 86.7001-85.6621 59.091-85.6621C31.5167-85.6621 8.72266-62.8595 8.72266-35.2504C8.72266-7.64127 31.5601 15.1614 59.1344 15.1614ZM59.1344 5.25329C36.7101 5.25329 18.709-12.7826 18.709-35.2504C18.709-57.7181 36.6666-75.754 59.091-75.754C81.5587-75.754 99.6381-57.7181 99.6381-35.2504C99.6381-12.7826 81.6021 5.25329 59.1344 5.25329ZM39.2056-13.806C41.2077-13.806 42.763-15.3613 42.763-17.4068L42.763-53.1317C42.763-55.2207 41.2077-56.7325 39.2056-56.7325C37.0994-56.7325 35.5527-55.2207 35.5527-53.1317L35.5527-17.4068C35.5527-15.3613 37.0994-13.806 39.2056-13.806ZM89.3374-35.2258C89.3374-37.3708 87.7821-38.8866 85.6063-38.8866L65.2642-38.8866L56.9598-38.3324L65.7279-46.115L68.8037-49.1404C69.518-49.8358 69.8945-50.7775 69.8945-51.7872C69.8945-53.8356 68.3267-55.2835 66.2874-55.2835C65.36-55.2835 64.412-54.964 63.6367-54.1698L47.4044-37.9456C46.6861-37.2342 46.2085-36.2411 46.2085-35.2258C46.2085-34.2105 46.6427-33.226 47.4044-32.5061L63.6023-16.4362C64.3063-15.7117 65.4297-15.255 66.3395-15.255C68.4135-15.255 69.8945-16.7028 69.8945-18.7845C69.8945-19.881 69.5077-20.7461 68.8037-21.4415L65.7021-24.3362L56.9163-32.1192L65.2642-31.5216L85.6063-31.5216C87.7821-31.5216 89.3374-33.0026 89.3374-35.2258Z"/>
  </g>
  <g id="Regular-M" transform="matrix(1 0 0 1 1391.32 1126)">
   <path d="M58.4961 14.5128C85.7192 14.5128 108.321-8.0375 108.321-35.2606C108.321-62.4838 85.6675-85.0341 58.4443-85.0341C31.2624-85.0341 8.72266-62.4838 8.72266-35.2606C8.72266-8.0375 31.3141 14.5128 58.4961 14.5128ZM58.4961 6.24529C35.5102 6.24529 17.0831-12.223 17.0831-35.2606C17.0831-58.2983 35.4584-76.7666 58.4443-76.7666C81.482-76.7666 100.002-58.2983 100.002-35.2606C100.002-12.223 81.5337 6.24529 58.4961 6.24529ZM37.9747-13.6901C39.7881-13.6901 41.1664-15.0684 41.1664-16.9335L41.1664-53.6089C41.1664-55.5258 39.7881-56.8523 37.9747-56.8523C36.0368-56.8523 34.6691-55.5258 34.6691-53.6089L34.6691-16.9335C34.6691-15.0684 36.0368-13.6901 37.9747-13.6901ZM89.1601-35.2194C89.1601-37.1057 87.7818-38.4734 85.8956-38.4734L63.4891-38.4734L54.5891-37.9347L64.483-46.7524L67.568-49.7645C68.2006-50.3866 68.491-51.278 68.491-52.1281C68.491-53.9732 67.061-55.2479 65.2888-55.2479C64.4387-55.2479 63.5885-54.9881 62.8841-54.2731L46.0387-37.6443C45.3649-36.9916 44.9298-36.1003 44.9298-35.2194C44.9298-34.3386 45.3131-33.4578 46.0387-32.7946L62.8419-16.3632C63.4745-15.7306 64.5211-15.2945 65.3511-15.2945C67.1645-15.2945 68.491-16.5692 68.491-18.466C68.491-19.4197 68.2006-20.2076 67.568-20.8296L64.4513-23.6875L54.5373-32.5041L63.4891-31.9138L85.8956-31.9138C87.7818-31.9138 89.1601-33.2402 89.1601-35.2194Z"/>
  </g>
  <g id="Light-M" transform="matrix(1 0 0 1 1095.44 1126)">
   <path d="M57.6748 13.6915C84.4872 13.6915 106.662-8.44816 106.662-35.2606C106.662-62.0731 84.4526-84.2128 57.6401-84.2128C30.8346-84.2128 8.72266-62.0731 8.72266-35.2606C8.72266-8.44816 30.8693 13.6915 57.6748 13.6915ZM57.6748 7.37462C34.09 7.37462 15.0811-11.6412 15.0811-35.2606C15.0811-58.8801 34.0554-77.8959 57.6401-77.8959C81.2595-77.8959 100.31-58.8801 100.31-35.2606C100.31-11.6412 81.2942 7.37462 57.6748 7.37462ZM36.9139-14.4772C38.3337-14.4772 39.4211-15.5646 39.4211-17.0191L39.4211-53.5575C39.4211-55.0467 38.3337-56.0994 36.9139-56.0994C35.3694-56.0994 34.3097-55.0467 34.3097-53.5575L34.3097-17.0191C34.3097-15.5646 35.3694-14.4772 36.9139-14.4772ZM87.2437-35.2537C87.2437-36.7635 86.1563-37.8232 84.6465-37.8232L60.3578-37.8232L51.3722-37.4214L61.0437-46.393L65.2922-50.5517C65.8393-51.071 66.0955-51.7913 66.0955-52.5046C66.0955-54.0074 64.9735-55.0255 63.5606-55.0255C62.8474-55.0255 62.1341-54.7486 61.6007-54.1876L44.5158-37.1652C43.9618-36.6665 43.6293-35.9463 43.6293-35.2537C43.6293-34.5611 43.9272-33.8685 44.5158-33.3421L61.4901-16.5343C62.0371-15.9873 62.8613-15.5512 63.6229-15.5512C65.0428-15.5512 66.0955-16.5692 66.0955-18.1067C66.0955-18.8893 65.8393-19.5402 65.2922-20.0596L60.9607-24.218L51.3376-33.0859L60.3578-32.6495L84.6465-32.6495C86.1563-32.6495 87.2437-33.7022 87.2437-35.2537Z"/>
  </g>
  <g id="Thin-M" transform="matrix(1 0 0 1 799.828 1126)">
   <path d="M56.5885 12.6052C82.8578 12.6052 104.466-8.9913 104.466-35.2606C104.466-61.53 82.8458-83.1265 56.5765-83.1265C30.2689-83.1265 8.72266-61.53 8.72266-35.2606C8.72266-8.9913 30.2809 12.6052 56.5885 12.6052ZM56.5885 8.86824C32.2117 8.86824 12.4333-10.8718 12.4333-35.2606C12.4333-59.6495 32.1996-79.3895 56.5765-79.3895C80.9653-79.3895 100.717-59.6495 100.717-35.2606C100.717-10.8718 80.9773 8.86824 56.5885 8.86824ZM35.5108-15.5182C36.4101-15.5182 37.1127-16.2209 37.1127-17.1322L37.1127-53.4896C37.1127-54.413 36.4101-55.1036 35.5108-55.1036C34.4868-55.1036 33.8345-54.413 33.8345-53.4896L33.8345-17.1322C33.8345-16.2209 34.4868-15.5182 35.5108-15.5182ZM84.709-35.2989C84.709-36.3108 84.0064-36.9632 82.9945-36.9632L56.2164-36.9632L47.1177-36.7425L56.4949-45.9178L62.2824-51.5927C62.7163-51.9763 62.9272-52.4702 62.9272-53.0024C62.9272-54.0526 62.2125-54.7313 61.2749-54.7313C60.7427-54.7313 60.2105-54.4317 59.9034-54.0744L42.5017-36.5316C42.1061-36.2365 41.9094-35.7426 41.9094-35.2989C41.9094-34.8553 42.0941-34.4116 42.5017-34.0663L59.7023-16.7606C60.1362-16.3268 60.6662-15.8906 61.3372-15.8906C62.2366-15.8906 62.9272-16.5692 62.9272-17.6315C62.9272-18.1877 62.7163-18.6576 62.2824-19.0412L56.344-24.9195L47.1056-33.8554L56.2164-33.6226L82.9945-33.6226C84.0064-33.6226 84.709-34.3133 84.709-35.2989Z"/>
  </g>
  <g id="Ultralight-M" transform="matrix(1 0 0 1 503.679 1126)">
   <path d="M56.0321 12.0488C82.0233 12.0488 103.342-9.26949 103.342-35.2606C103.342-61.2518 82.0228-82.5701 56.0317-82.5701C29.9791-82.5701 8.72266-61.2518 8.72266-35.2606C8.72266-9.26949 29.9795 12.0488 56.0321 12.0488ZM56.0321 9.63326C31.2496 9.63326 11.0772-10.4777 11.0772-35.2606C11.0772-60.0436 31.2492-80.1545 56.0317-80.1545C80.8147-80.1545 100.926-60.0436 100.926-35.2606C100.926-10.4777 80.8151 9.63326 56.0321 9.63326ZM34.7921-16.0514C35.4248-16.0514 35.9304-16.557 35.9304-17.1902L35.9304-53.4549C35.9304-54.0884 35.4248-54.5936 34.7921-54.5936C34.0348-54.5936 33.5911-54.0884 33.5911-53.4549L33.5911-17.1902C33.5911-16.557 34.0348-16.0514 34.7921-16.0514ZM83.4108-35.3221C83.4108-36.079 82.9052-36.5227 82.1483-36.5227L54.0952-36.5227L44.9385-36.3948L54.1651-45.6744L60.7407-52.1259C61.1167-52.4399 61.3044-52.8179 61.3044-53.2574C61.3044-54.0758 60.7984-54.5806 60.1042-54.5806C59.6647-54.5806 59.2252-54.2695 59.0341-54.0165L41.4701-36.207C41.1556-36.0163 41.0285-35.6383 41.0285-35.3221C41.0285-35.006 41.1552-34.6898 41.4701-34.4372L58.7866-16.8766C59.1625-16.5006 59.5418-16.0645 60.1665-16.0645C60.7993-16.0645 61.3044-16.5692 61.3044-17.388C61.3044-17.8284 61.1167-18.2056 60.7407-18.5196L53.9794-25.2788L44.9381-34.2495L54.0952-34.1211L82.1483-34.1211C82.9052-34.1211 83.4108-34.6262 83.4108-35.3221Z"/>
  </g>
  <g id="Black-S" transform="matrix(1 0 0 1 2884.57 696)">
   <path d="M48.8281 6.78711C71.9727 6.78711 90.8203-12.0605 90.8203-35.2051C90.8203-58.3496 71.9727-77.1973 48.8281-77.1973C25.6836-77.1973 6.83594-58.3496 6.83594-35.2051C6.83594-12.0605 25.6836 6.78711 48.8281 6.78711ZM48.8281-7.37305C33.4473-7.37305 20.9961-19.8242 20.9961-35.2051C20.9961-50.5859 33.4473-63.0371 48.8281-63.0371C64.209-63.0371 76.6602-50.5859 76.6602-35.2051C76.6602-19.8242 64.209-7.37305 48.8281-7.37305ZM35.5469-18.9453C37.8418-18.9453 39.7461-20.8496 39.7461-23.1445L39.7461-47.3633C39.7461-49.6582 37.8418-51.5625 35.5469-51.5625C33.252-51.5625 31.3477-49.6582 31.3477-47.3633L31.3477-23.1445C31.3477-20.8496 33.252-18.9453 35.5469-18.9453ZM70.6055-35.2539C70.6055-37.9395 68.7012-39.6973 65.8691-39.6973L58.0078-39.6973L53.8574-39.209L56.25-41.2109L58.6914-43.7012C59.5703-44.5312 60.2051-45.459 60.2051-46.875C60.2051-49.2676 58.4473-51.0742 55.8105-51.0742C54.7852-51.0742 53.6621-50.5859 52.7832-49.6582L42.4805-38.5254C41.748-37.7441 41.2109-36.5723 41.2109-35.2539C41.2109-33.9355 41.748-32.7637 42.4805-31.9824L52.7832-20.8008C53.6133-19.873 54.7852-19.4336 55.8105-19.4336C58.4473-19.4336 60.2051-21.2402 60.2051-23.584C60.2051-25 59.5215-25.9766 58.6914-26.8066L56.25-29.2969L53.8574-31.2988L58.0078-30.8105L65.8691-30.8105C68.7012-30.8105 70.6055-32.5684 70.6055-35.2539Z"/>
  </g>
  <g id="Heavy-S" transform="matrix(1 0 0 1 2588.47 696)">
   <path d="M48.2173 6.16479C70.9816 6.16479 89.6102-12.4524 89.6102-35.2166C89.6102-57.9808 70.97-76.598 48.2058-76.598C25.4531-76.598 6.83594-57.9808 6.83594-35.2166C6.83594-12.4524 25.4646 6.16479 48.2173 6.16479ZM48.2173-6.40499C32.2833-6.40499 19.4288-19.271 19.4288-35.2166C19.4288-51.1622 32.2718-64.0282 48.2058-64.0282C64.1514-64.0282 77.0289-51.1622 77.0289-35.2166C77.0289-19.271 64.1629-6.40499 48.2173-6.40499ZM34.3022-18.7148C36.4358-18.7148 38.1788-20.4578 38.1788-22.6029L38.1788-47.9049C38.1788-50.0616 36.4358-51.793 34.3022-51.793C32.1456-51.793 30.4027-50.0616 30.4027-47.9049L30.4027-22.6029C30.4027-20.4578 32.1456-18.7148 34.3022-18.7148ZM70.6516-35.2424C70.6516-37.6859 68.9086-39.317 66.3532-39.317L56.4174-39.317L51.6102-38.8287L55.2935-41.9716L57.5966-44.3004C58.3948-45.0614 58.9374-45.9545 58.9374-47.2092C58.9374-49.4174 57.2948-51.0627 54.9116-51.0627C53.9554-51.0627 52.9245-50.6436 52.1033-49.785L41.1436-38.2488C40.4458-37.5137 39.9432-36.434 39.9432-35.2424C39.9432-34.0508 40.4343-32.9711 41.1436-32.236L52.1033-20.6971C52.8642-19.8615 53.9784-19.4451 54.9232-19.4451C57.3179-19.4451 58.9374-21.0904 58.9374-23.2728C58.9374-24.5505 58.3575-25.458 57.5966-26.2189L55.2935-28.5017L51.5986-31.6561L56.4174-31.1563L66.3532-31.1563C68.9086-31.1563 70.6516-32.7758 70.6516-35.2424Z"/>
  </g>
  <g id="Bold-S" transform="matrix(1 0 0 1 2292.43 696)">
   <path d="M47.5342 5.46875C69.873 5.46875 88.2568-12.8906 88.2568-35.2295C88.2568-57.5684 69.8486-75.9277 47.5098-75.9277C25.1953-75.9277 6.83594-57.5684 6.83594-35.2295C6.83594-12.8906 25.2197 5.46875 47.5342 5.46875ZM47.5342-5.32227C30.9814-5.32227 17.6758-18.6523 17.6758-35.2295C17.6758-51.8066 30.957-65.1367 47.5098-65.1367C64.0869-65.1367 77.4414-51.8066 77.4414-35.2295C77.4414-18.6523 64.1113-5.32227 47.5342-5.32227ZM32.9102-18.457C34.8633-18.457 36.4258-20.0195 36.4258-21.9971L36.4258-48.5107C36.4258-50.5127 34.8633-52.0508 32.9102-52.0508C30.9082-52.0508 29.3457-50.5127 29.3457-48.5107L29.3457-21.9971C29.3457-20.0195 30.9082-18.457 32.9102-18.457ZM70.7031-35.2295C70.7031-37.4023 69.1406-38.8916 66.8945-38.8916L54.6387-38.8916L49.0967-38.4033L54.2236-42.8223L56.3721-44.9707C57.0801-45.6543 57.5195-46.5088 57.5195-47.583C57.5195-49.585 56.0059-51.0498 53.9062-51.0498C53.0273-51.0498 52.0996-50.708 51.3428-49.9268L39.6484-37.9395C38.9893-37.2559 38.5254-36.2793 38.5254-35.2295C38.5254-34.1797 38.9648-33.2031 39.6484-32.5195L51.3428-20.5811C52.0264-19.8486 53.0762-19.458 53.9307-19.458C56.0547-19.458 57.5195-20.9229 57.5195-22.9248C57.5195-24.0479 57.0557-24.8779 56.3721-25.5615L54.2236-27.6123L49.0723-32.0557L54.6387-31.543L66.8945-31.543C69.1406-31.543 70.7031-33.0078 70.7031-35.2295Z"/>
  </g>
  <g id="Semibold-S" transform="matrix(1 0 0 1 1996.19 696)">
   <path d="M47.0632 4.98887C69.1088 4.98887 87.3237-13.1928 87.3237-35.2384C87.3237-57.284 69.0755-75.4656 47.0299-75.4656C25.0176-75.4656 6.83594-57.284 6.83594-35.2384C6.83594-13.1928 25.0509 4.98887 47.0632 4.98887ZM47.0632-4.57578C30.0839-4.57578 16.4672-18.2258 16.4672-35.2384C16.4672-52.251 30.0506-65.901 47.0299-65.901C64.0425-65.901 77.7258-52.251 77.7258-35.2384C77.7258-18.2258 64.0758-4.57578 47.0632-4.57578ZM31.9504-18.2793C33.7791-18.2793 35.2172-19.7174 35.2172-21.5794L35.2172-48.9284C35.2172-50.8237 33.7791-52.2285 31.9504-52.2285C30.0551-52.2285 28.617-50.8237 28.617-48.9284L28.617-21.5794C28.617-19.7174 30.0551-18.2793 31.9504-18.2793ZM70.7387-35.2206C70.7387-37.2068 69.3006-38.5983 67.2678-38.5983L53.4123-38.5983L47.3638-38.1101L53.486-43.4088L55.5278-45.4328C56.1736-46.0631 56.542-46.8909 56.542-47.8407C56.542-49.7005 55.1172-51.0409 53.2131-51.0409C52.3875-51.0409 51.5309-50.7524 50.8185-50.0245L38.6176-37.7262C37.9851-37.0781 37.5479-36.1727 37.5479-35.2206C37.5479-34.2686 37.9518-33.3631 38.6176-32.715L50.8185-20.5011C51.4487-19.8397 52.4541-19.4669 53.2464-19.4669C55.1838-19.4669 56.542-20.8073 56.542-22.6849C56.542-23.7013 56.1581-24.478 55.5278-25.1083L53.486-26.9991L47.3305-32.3312L53.4123-31.8096L67.2678-31.8096C69.3006-31.8096 70.7387-33.1678 70.7387-35.2206Z"/>
  </g>
  <g id="Medium-S" transform="matrix(1 0 0 1 1699.83 696)">
   <path d="M46.7061 4.625C68.5293 4.625 86.6162-13.4219 86.6162-35.2451C86.6162-57.0684 68.4893-75.1152 46.666-75.1152C24.8828-75.1152 6.83594-57.0684 6.83594-35.2451C6.83594-13.4219 24.9229 4.625 46.7061 4.625ZM46.7061-4.00977C29.4033-4.00977 15.5508-17.9023 15.5508-35.2451C15.5508-52.5879 29.3633-66.4805 46.666-66.4805C64.0088-66.4805 77.9414-52.5879 77.9414-35.2451C77.9414-17.9023 64.0488-4.00977 46.7061-4.00977ZM31.2227-18.1445C32.957-18.1445 34.3008-19.4883 34.3008-21.2627L34.3008-49.2451C34.3008-51.0596 32.957-52.3633 31.2227-52.3633C29.4082-52.3633 28.0645-51.0596 28.0645-49.2451L28.0645-21.2627C28.0645-19.4883 29.4082-18.1445 31.2227-18.1445ZM70.7656-35.2139C70.7656-37.0586 69.4219-38.376 67.5508-38.376L52.4824-38.376L46.0498-37.8877L52.9268-43.8535L54.8877-45.7832C55.4863-46.373 55.8008-47.1807 55.8008-48.0361C55.8008-49.7881 54.4434-51.0342 52.6875-51.0342C51.9023-51.0342 51.0996-50.7861 50.4209-50.0986L37.8359-37.5645C37.2236-36.9434 36.8066-36.0918 36.8066-35.2139C36.8066-34.3359 37.1836-33.4844 37.8359-32.8633L50.4209-20.4404C51.0107-19.833 51.9824-19.4736 52.7275-19.4736C54.5234-19.4736 55.8008-20.7197 55.8008-22.5029C55.8008-23.4385 55.4775-24.1748 54.8877-24.7646L52.9268-26.5342L46.0098-32.54L52.4824-32.0117L67.5508-32.0117C69.4219-32.0117 70.7656-33.2891 70.7656-35.2139Z"/>
  </g>
  <g id="Regular-S" transform="matrix(1 0 0 1 1403.58 696)">
   <path d="M46.2402 4.15039C67.7734 4.15039 85.6934-13.7207 85.6934-35.2539C85.6934-56.7871 67.7246-74.6582 46.1914-74.6582C24.707-74.6582 6.83594-56.7871 6.83594-35.2539C6.83594-13.7207 24.7559 4.15039 46.2402 4.15039ZM46.2402-3.27148C28.5156-3.27148 14.3555-17.4805 14.3555-35.2539C14.3555-53.0273 28.4668-67.2363 46.1914-67.2363C63.9648-67.2363 78.2227-53.0273 78.2227-35.2539C78.2227-17.4805 64.0137-3.27148 46.2402-3.27148ZM30.2734-17.9688C31.8848-17.9688 33.1055-19.1895 33.1055-20.8496L33.1055-49.6582C33.1055-51.3672 31.8848-52.5391 30.2734-52.5391C28.5645-52.5391 27.3438-51.3672 27.3438-49.6582L27.3438-20.8496C27.3438-19.1895 28.5645-17.9688 30.2734-17.9688ZM70.8008-35.2051C70.8008-36.8652 69.5801-38.0859 67.9199-38.0859L51.2695-38.0859L44.3359-37.5977L52.1973-44.4336L54.0527-46.2402C54.5898-46.7773 54.834-47.5586 54.834-48.291C54.834-49.9023 53.5645-51.0254 52.002-51.0254C51.2695-51.0254 50.5371-50.8301 49.9023-50.1953L36.8164-37.3535C36.2305-36.7676 35.8398-35.9863 35.8398-35.2051C35.8398-34.4238 36.1816-33.6426 36.8164-33.0566L49.9023-20.3613C50.4395-19.8242 51.3672-19.4824 52.0508-19.4824C53.6621-19.4824 54.834-20.6055 54.834-22.2656C54.834-23.0957 54.5898-23.7793 54.0527-24.3164L52.1973-25.9277L44.2871-32.8125L51.2695-32.2754L67.9199-32.2754C69.5801-32.2754 70.8008-33.4473 70.8008-35.2051Z"/>
  </g>
  <g id="Light-S" transform="matrix(1 0 0 1 1107.6 696)">
   <path d="M45.5137 3.42383C66.6836 3.42383 84.2251-14.084 84.2251-35.2539C84.2251-56.4238 66.6499-73.9316 45.48-73.9316C24.3286-73.9316 6.83594-56.4238 6.83594-35.2539C6.83594-14.084 24.3623 3.42383 45.5137 3.42383ZM45.5137-2.27247C27.2593-2.27247 12.5845-16.9658 12.5845-35.2539C12.5845-53.542 27.2256-68.2353 45.48-68.2353C63.7681-68.2353 78.4951-53.542 78.4951-35.2539C78.4951-16.9658 63.8018-2.27247 45.5137-2.27247ZM29.335-18.665C30.5982-18.665 31.5615-19.6284 31.5615-20.9253L31.5615-49.6128C31.5615-50.9434 30.5982-51.8731 29.335-51.8731C27.9741-51.8731 27.0259-50.9434 27.0259-49.6128L27.0259-20.9253C27.0259-19.6284 27.9741-18.665 29.335-18.665ZM69.1055-35.2354C69.1055-36.5625 68.1421-37.5107 66.815-37.5107L48.4995-37.5107L41.4903-37.1436L49.1548-44.1157L52.0396-46.9365C52.501-47.3828 52.7149-48.0127 52.7149-48.624C52.7149-49.9326 51.7178-50.8286 50.4732-50.8286C49.8618-50.8286 49.2505-50.6182 48.7671-50.1196L35.4692-36.9297C34.9893-36.48 34.6895-35.8501 34.6895-35.2354C34.6895-34.6206 34.9556-34.0059 35.4692-33.541L48.7066-20.5127C49.168-20.0513 49.8989-19.7095 50.522-19.7095C51.7852-19.7095 52.7149-20.6055 52.7149-21.9478C52.7149-22.6265 52.501-23.189 52.0396-23.6353L49.1094-26.397L41.4566-33.3271L48.4995-32.9263L66.815-32.9263C68.1421-32.9263 69.1055-33.856 69.1055-35.2354Z"/>
  </g>
  <g id="Thin-S" transform="matrix(1 0 0 1 811.863 696)">
   <path d="M44.5527 2.4629C65.2422 2.4629 82.2832-14.5644 82.2832-35.2539C82.2832-55.9434 65.2285-72.9707 44.5391-72.9707C23.8281-72.9707 6.83594-55.9434 6.83594-35.2539C6.83594-14.5644 23.8418 2.4629 44.5527 2.4629ZM44.5527-0.95119C25.5977-0.95119 10.2422-16.2852 10.2422-35.2539C10.2422-54.2226 25.584-69.5566 44.5391-69.5566C63.5078-69.5566 78.8555-54.2226 78.8555-35.2539C78.8555-16.2852 63.5215-0.95119 44.5527-0.95119ZM28.0938-19.5859C28.8965-19.5859 29.5196-20.209 29.5196-21.0254L29.5196-49.5527C29.5196-50.3828 28.8965-50.9922 28.0938-50.9922C27.1934-50.9922 26.6055-50.3828 26.6055-49.5527L26.6055-21.0254C26.6055-20.209 27.1934-19.5859 28.0938-19.5859ZM66.8633-35.2754C66.8633-36.1621 66.2403-36.75 65.3535-36.75L44.836-36.75L37.7266-36.543L45.1309-43.6953L49.377-47.8574C49.7383-48.1836 49.9121-48.6133 49.9121-49.0644C49.9121-49.9727 49.2754-50.5684 48.4512-50.5684C48-50.5684 47.5489-50.3379 47.2656-50.0195L33.6875-36.3691C33.3477-36.0996 33.168-35.6699 33.168-35.2754C33.168-34.8809 33.334-34.4863 33.6875-34.1816L47.125-20.7129C47.4864-20.3516 47.9571-20.0098 48.5-20.0098C49.3028-20.0098 49.9121-20.6055 49.9121-21.5273C49.9121-22.0059 49.7383-22.4082 49.377-22.7344L45.0254-27.0176L37.7129-34.0078L44.836-33.7871L65.3535-33.7871C66.2403-33.7871 66.8633-34.3965 66.8633-35.2754Z"/>
  </g>
  <g id="Ultralight-S" transform="matrix(1 0 0 1 515.649 696)">
   <path d="M44.0606 1.97072C64.5039 1.97072 81.2886-14.8105 81.2886-35.2539C81.2886-55.6973 64.5005-72.4785 44.0571-72.4785C23.5718-72.4785 6.83594-55.6973 6.83594-35.2539C6.83594-14.8105 23.5752 1.97072 44.0606 1.97072ZM44.0606-0.274438C24.7466-0.274438 9.04252-15.9365 9.04252-35.2539C9.04252-54.5713 24.7432-70.2334 44.0571-70.2334C63.3745-70.2334 79.04-54.5713 79.04-35.2539C79.04-15.9365 63.3779-0.274438 44.0606-0.274438ZM27.458-20.0576C28.0249-20.0576 28.4737-20.5063 28.4737-21.0767L28.4737-49.522C28.4737-50.0957 28.0249-50.541 27.458-50.541C26.7935-50.541 26.3901-50.0957 26.3901-49.522L26.3901-21.0767C26.3901-20.5063 26.7935-20.0576 27.458-20.0576ZM65.7149-35.2959C65.7149-35.957 65.2661-36.3604 64.605-36.3604L42.9595-36.3604L35.7989-36.2354L43.0699-43.48L48.0132-48.3291C48.3233-48.5937 48.4766-48.9209 48.4766-49.29C48.4766-49.9932 48.0245-50.4351 47.4156-50.4351C47.0464-50.4351 46.6773-50.1943 46.4966-49.9683L32.7749-36.082C32.5069-35.9048 32.3887-35.5776 32.3887-35.2959C32.3887-35.0142 32.5034-34.7324 32.7749-34.5098L46.315-20.8154C46.625-20.5054 46.9624-20.1636 47.4644-20.1636C48.0313-20.1636 48.4766-20.6055 48.4766-21.312C48.4766-21.688 48.3233-22.0083 48.0132-22.273L42.9337-27.3354L35.7955-34.3564L42.9595-34.228L64.605-34.228C65.2661-34.228 65.7149-34.6733 65.7149-35.2959Z"/>
  </g>
 </g>
</svg>
