<?xml version="1.0" encoding="UTF-8"?>
<!--Generator: Apple Native CoreSVG 175.5-->
<!DOCTYPE svg
PUBLIC "-//W3C//DTD SVG 1.1//EN"
       "http://www.w3.org/Graphics/SVG/1.1/DTD/svg11.dtd">
<svg version="1.1" xmlns="http://www.w3.org/2000/svg" xmlns:xlink="http://www.w3.org/1999/xlink" width="3300" height="2200">
 <!--glyph: "uni100F32.medium", point size: 100.0, font version: "18.0d12e2", template writer version: "101"-->
 <g id="Notes">
  <rect height="2200" id="artboard" style="fill:white;opacity:1" width="3300" x="0" y="0"/>
  <line style="fill:none;stroke:black;opacity:1;stroke-width:0.5;" x1="263" x2="3036" y1="292" y2="292"/>
  <text style="stroke:none;fill:black;font-family:sans-serif;font-size:13;font-weight:bold;" transform="matrix(1 0 0 1 263 322)">Weight/Scale Variations</text>
  <text style="stroke:none;fill:black;font-family:sans-serif;font-size:13;text-anchor:middle;" transform="matrix(1 0 0 1 559.711 322)">Ultralight</text>
  <text style="stroke:none;fill:black;font-family:sans-serif;font-size:13;text-anchor:middle;" transform="matrix(1 0 0 1 856.422 322)">Thin</text>
  <text style="stroke:none;fill:black;font-family:sans-serif;font-size:13;text-anchor:middle;" transform="matrix(1 0 0 1 1153.13 322)">Light</text>
  <text style="stroke:none;fill:black;font-family:sans-serif;font-size:13;text-anchor:middle;" transform="matrix(1 0 0 1 1449.84 322)">Regular</text>
  <text style="stroke:none;fill:black;font-family:sans-serif;font-size:13;text-anchor:middle;" transform="matrix(1 0 0 1 1746.56 322)">Medium</text>
  <text style="stroke:none;fill:black;font-family:sans-serif;font-size:13;text-anchor:middle;" transform="matrix(1 0 0 1 2043.27 322)">Semibold</text>
  <text style="stroke:none;fill:black;font-family:sans-serif;font-size:13;text-anchor:middle;" transform="matrix(1 0 0 1 2339.98 322)">Bold</text>
  <text style="stroke:none;fill:black;font-family:sans-serif;font-size:13;text-anchor:middle;" transform="matrix(1 0 0 1 2636.69 322)">Heavy</text>
  <text style="stroke:none;fill:black;font-family:sans-serif;font-size:13;text-anchor:middle;" transform="matrix(1 0 0 1 2933.4 322)">Black</text>
  <line style="fill:none;stroke:black;opacity:1;stroke-width:0.5;" x1="263" x2="3036" y1="1903" y2="1903"/>
  <g transform="matrix(1 0 0 1 263 1933)">
   <path d="M9.24805 0.830078C13.5547 0.830078 17.1387-2.74414 17.1387-7.05078C17.1387-11.3574 13.5449-14.9316 9.23828-14.9316C4.94141-14.9316 1.36719-11.3574 1.36719-7.05078C1.36719-2.74414 4.95117 0.830078 9.24805 0.830078ZM9.24805-0.654297C5.70312-0.654297 2.87109-3.49609 2.87109-7.05078C2.87109-10.6055 5.69336-13.4473 9.23828-13.4473C12.793-13.4473 15.6445-10.6055 15.6445-7.05078C15.6445-3.49609 12.8027-0.654297 9.24805-0.654297ZM5.6543-7.05078C5.6543-6.62109 5.95703-6.32812 6.40625-6.32812L8.50586-6.32812L8.50586-4.20898C8.50586-3.76953 8.79883-3.4668 9.22852-3.4668C9.67773-3.4668 9.9707-3.76953 9.9707-4.20898L9.9707-6.32812L12.0898-6.32812C12.5293-6.32812 12.832-6.62109 12.832-7.05078C12.832-7.49023 12.5293-7.79297 12.0898-7.79297L9.9707-7.79297L9.9707-9.90234C9.9707-10.3516 9.67773-10.6543 9.22852-10.6543C8.79883-10.6543 8.50586-10.3516 8.50586-9.90234L8.50586-7.79297L6.40625-7.79297C5.95703-7.79297 5.6543-7.49023 5.6543-7.05078Z"/>
  </g>
  <g transform="matrix(1 0 0 1 281.867 1933)">
   <path d="M11.709 2.91016C17.1582 2.91016 21.6699-1.61133 21.6699-7.05078C21.6699-12.5 17.1484-17.0117 11.6992-17.0117C6.25977-17.0117 1.74805-12.5 1.74805-7.05078C1.74805-1.61133 6.26953 2.91016 11.709 2.91016ZM11.709 1.25C7.09961 1.25 3.41797-2.44141 3.41797-7.05078C3.41797-11.6602 7.08984-15.3516 11.6992-15.3516C16.3086-15.3516 20.0098-11.6602 20.0098-7.05078C20.0098-2.44141 16.3184 1.25 11.709 1.25ZM7.17773-7.05078C7.17773-6.57227 7.50977-6.25 8.00781-6.25L10.8789-6.25L10.8789-3.36914C10.8789-2.88086 11.2109-2.53906 11.6895-2.53906C12.1777-2.53906 12.5195-2.87109 12.5195-3.36914L12.5195-6.25L15.4004-6.25C15.8887-6.25 16.2305-6.57227 16.2305-7.05078C16.2305-7.53906 15.8887-7.88086 15.4004-7.88086L12.5195-7.88086L12.5195-10.752C12.5195-11.25 12.1777-11.5918 11.6895-11.5918C11.2109-11.5918 10.8789-11.25 10.8789-10.752L10.8789-7.88086L8.00781-7.88086C7.50977-7.88086 7.17773-7.53906 7.17773-7.05078Z"/>
  </g>
  <g transform="matrix(1 0 0 1 305.646 1933)">
   <path d="M14.9707 5.66406C21.9336 5.66406 27.6953-0.0976562 27.6953-7.05078C27.6953-14.0137 21.9238-19.7754 14.9609-19.7754C8.00781-19.7754 2.25586-14.0137 2.25586-7.05078C2.25586-0.0976562 8.01758 5.66406 14.9707 5.66406ZM14.9707 3.84766C8.93555 3.84766 4.08203-1.01562 4.08203-7.05078C4.08203-13.0957 8.92578-17.9492 14.9609-17.9492C21.0059-17.9492 25.8691-13.0957 25.8691-7.05078C25.8691-1.01562 21.0156 3.84766 14.9707 3.84766ZM9.19922-7.05078C9.19922-6.5332 9.57031-6.17188 10.1172-6.17188L14.0625-6.17188L14.0625-2.2168C14.0625-1.67969 14.4336-1.29883 14.9512-1.29883C15.4883-1.29883 15.8594-1.66992 15.8594-2.2168L15.8594-6.17188L19.8145-6.17188C20.3516-6.17188 20.7324-6.5332 20.7324-7.05078C20.7324-7.59766 20.3613-7.96875 19.8145-7.96875L15.8594-7.96875L15.8594-11.9141C15.8594-12.4609 15.4883-12.8418 14.9512-12.8418C14.4336-12.8418 14.0625-12.4609 14.0625-11.9141L14.0625-7.96875L10.1172-7.96875C9.57031-7.96875 9.19922-7.59766 9.19922-7.05078Z"/>
  </g>
  <text style="stroke:none;fill:black;font-family:sans-serif;font-size:13;font-weight:bold;" transform="matrix(1 0 0 1 263 1953)">Design Variations</text>
  <text style="stroke:none;fill:black;font-family:sans-serif;font-size:13;" transform="matrix(1 0 0 1 263 1971)">Symbols are supported in up to nine weights and three scales.</text>
  <text style="stroke:none;fill:black;font-family:sans-serif;font-size:13;" transform="matrix(1 0 0 1 263 1989)">For optimal layout with text and other symbols, vertically align</text>
  <text style="stroke:none;fill:black;font-family:sans-serif;font-size:13;" transform="matrix(1 0 0 1 263 2007)">symbols with the adjacent text.</text>
  <line style="fill:none;stroke:#00AEEF;stroke-width:0.5;opacity:1.0;" x1="776" x2="776" y1="1919" y2="1933"/>
  <g transform="matrix(1 0 0 1 776 1933)">
   <path d="M3.31055 0.15625C3.82812 0.15625 4.08203-0.0390625 4.26758-0.585938L5.52734-4.0332L11.2891-4.0332L12.5488-0.585938C12.7344-0.0390625 12.9883 0.15625 13.4961 0.15625C14.0137 0.15625 14.3457-0.15625 14.3457-0.644531C14.3457-0.810547 14.3164-0.966797 14.2383-1.17188L9.6582-13.3691C9.43359-13.9648 9.0332-14.2676 8.4082-14.2676C7.80273-14.2676 7.39258-13.9746 7.17773-13.3789L2.59766-1.16211C2.51953-0.957031 2.49023-0.800781 2.49023-0.634766C2.49023-0.146484 2.80273 0.15625 3.31055 0.15625ZM6.00586-5.51758L8.37891-12.0898L8.42773-12.0898L10.8008-5.51758Z"/>
  </g>
  <line style="fill:none;stroke:#00AEEF;stroke-width:0.5;opacity:1.0;" x1="793.197" x2="793.197" y1="1919" y2="1933"/>
  <text style="stroke:none;fill:black;font-family:sans-serif;font-size:13;font-weight:bold;" transform="matrix(1 0 0 1 776 1953)">Margins</text>
  <text style="stroke:none;fill:black;font-family:sans-serif;font-size:13;" transform="matrix(1 0 0 1 776 1971)">Leading and trailing margins on the left and right side of each symbol</text>
  <text style="stroke:none;fill:black;font-family:sans-serif;font-size:13;" transform="matrix(1 0 0 1 776 1989)">can be adjusted by modifying the x-location of the margin guidelines.</text>
  <text style="stroke:none;fill:black;font-family:sans-serif;font-size:13;" transform="matrix(1 0 0 1 776 2007)">Modifications are automatically applied proportionally to all</text>
  <text style="stroke:none;fill:black;font-family:sans-serif;font-size:13;" transform="matrix(1 0 0 1 776 2025)">scales and weights.</text>
  <g transform="matrix(1 0 0 1 1289 1933)">
   <path d="M2.8418 1.86523L4.54102 3.57422C5.40039 4.44336 6.38672 4.38477 7.31445 3.35938L18.0078-8.42773L17.041-9.4043L6.42578 2.27539C6.07422 2.67578 5.74219 2.77344 5.27344 2.30469L4.10156 1.14258C3.63281 0.683594 3.74023 0.341797 4.14062-0.0195312L15.6152-10.8203L14.6387-11.7871L3.04688-0.898438C2.06055 0.0195312 1.98242 0.996094 2.8418 1.86523ZM9.25781-16.3281C8.83789-15.918 8.80859-15.3418 9.04297-14.9512C9.27734-14.5898 9.73633-14.3555 10.3809-14.5215C11.8457-14.8633 13.3691-14.9219 14.7949-13.9844L14.209-12.5293C13.8672-11.6992 14.043-11.1133 14.5801-10.5664L16.875-8.25195C17.3633-7.76367 17.7734-7.74414 18.3398-7.8418L19.4043-8.03711L20.0684-7.36328L20.0293-6.80664C19.9902-6.30859 20.1172-5.92773 20.6055-5.44922L21.3672-4.70703C21.8457-4.22852 22.4609-4.19922 22.9297-4.66797L25.8398-7.58789C26.3086-8.05664 26.2891-8.65234 25.8105-9.13086L25.0391-9.89258C24.5605-10.3711 24.1895-10.5273 23.7109-10.4883L23.1348-10.4395L22.4902-11.0742L22.7344-12.1973C22.8613-12.7637 22.7051-13.2031 22.1191-13.7891L19.9219-15.9766C16.582-19.2969 12.1484-19.2188 9.25781-16.3281ZM10.752-15.957C13.1836-17.7344 16.4746-17.4316 18.7012-15.2051L21.1328-12.793C21.3672-12.5586 21.4062-12.373 21.3379-12.0312L21.0156-10.5469L22.5195-9.0625L23.5059-9.12109C23.7598-9.13086 23.8379-9.11133 24.0332-8.91602L24.6094-8.33984L22.168-5.89844L21.5918-6.47461C21.3965-6.66992 21.3672-6.74805 21.377-7.01172L21.4453-7.98828L19.9512-9.47266L18.4277-9.21875C18.1055-9.15039 17.959-9.17969 17.7148-9.41406L15.7129-11.416C15.459-11.6504 15.4297-11.8164 15.5859-12.1875L16.4648-14.2773C14.9023-15.7324 12.8711-16.3574 10.8398-15.7617C10.6836-15.7227 10.625-15.8496 10.752-15.957Z"/>
  </g>
  <text style="stroke:none;fill:black;font-family:sans-serif;font-size:13;font-weight:bold;" transform="matrix(1 0 0 1 1289 1953)">Exporting</text>
  <text style="stroke:none;fill:black;font-family:sans-serif;font-size:13;" transform="matrix(1 0 0 1 1289 1971)">Symbols should be outlined when exporting to ensure the</text>
  <text style="stroke:none;fill:black;font-family:sans-serif;font-size:13;" transform="matrix(1 0 0 1 1289 1989)">design is preserved when submitting to Xcode.</text>
  <text id="template-version" style="stroke:none;fill:black;font-family:sans-serif;font-size:13;text-anchor:end;" transform="matrix(1 0 0 1 3036 1933)">Template v.4.0</text>
  <text style="stroke:none;fill:black;font-family:sans-serif;font-size:13;text-anchor:end;" transform="matrix(1 0 0 1 3036 1951)">Requires Xcode 14 or greater</text>
  <text id="descriptive-name" style="stroke:none;fill:black;font-family:sans-serif;font-size:13;text-anchor:end;" transform="matrix(1 0 0 1 3036 1969)">Generated from heart.square.fill</text>
  <text style="stroke:none;fill:black;font-family:sans-serif;font-size:13;text-anchor:end;" transform="matrix(1 0 0 1 3036 1987)">Typeset at 100 points</text>
  <text style="stroke:none;fill:black;font-family:sans-serif;font-size:13;" transform="matrix(1 0 0 1 263 726)">Small</text>
  <text style="stroke:none;fill:black;font-family:sans-serif;font-size:13;" transform="matrix(1 0 0 1 263 1156)">Medium</text>
  <text style="stroke:none;fill:black;font-family:sans-serif;font-size:13;" transform="matrix(1 0 0 1 263 1586)">Large</text>
 </g>
 <g id="Guides">
  <g id="H-reference" style="fill:#27AAE1;stroke:none;" transform="matrix(1 0 0 1 339 696)">
   <path d="M0.993654 0L3.63775 0L29.3281-67.1323L30.0303-67.1323L30.0303-70.459L28.1226-70.459ZM11.6885-24.4799L46.9815-24.4799L46.2315-26.7285L12.4385-26.7285ZM55.1196 0L57.7637 0L30.6382-70.459L29.4326-70.459L29.4326-67.1323Z"/>
  </g>
  <line id="Baseline-S" style="fill:none;stroke:#27AAE1;opacity:1;stroke-width:0.5;" x1="263" x2="3036" y1="696" y2="696"/>
  <line id="Capline-S" style="fill:none;stroke:#27AAE1;opacity:1;stroke-width:0.5;" x1="263" x2="3036" y1="625.541" y2="625.541"/>
  <g id="H-reference" style="fill:#27AAE1;stroke:none;" transform="matrix(1 0 0 1 339 1126)">
   <path d="M0.993654 0L3.63775 0L29.3281-67.1323L30.0303-67.1323L30.0303-70.459L28.1226-70.459ZM11.6885-24.4799L46.9815-24.4799L46.2315-26.7285L12.4385-26.7285ZM55.1196 0L57.7637 0L30.6382-70.459L29.4326-70.459L29.4326-67.1323Z"/>
  </g>
  <line id="Baseline-M" style="fill:none;stroke:#27AAE1;opacity:1;stroke-width:0.5;" x1="263" x2="3036" y1="1126" y2="1126"/>
  <line id="Capline-M" style="fill:none;stroke:#27AAE1;opacity:1;stroke-width:0.5;" x1="263" x2="3036" y1="1055.54" y2="1055.54"/>
  <g id="H-reference" style="fill:#27AAE1;stroke:none;" transform="matrix(1 0 0 1 339 1556)">
   <path d="M0.993654 0L3.63775 0L29.3281-67.1323L30.0303-67.1323L30.0303-70.459L28.1226-70.459ZM11.6885-24.4799L46.9815-24.4799L46.2315-26.7285L12.4385-26.7285ZM55.1196 0L57.7637 0L30.6382-70.459L29.4326-70.459L29.4326-67.1323Z"/>
  </g>
  <line id="Baseline-L" style="fill:none;stroke:#27AAE1;opacity:1;stroke-width:0.5;" x1="263" x2="3036" y1="1556" y2="1556"/>
  <line id="Capline-L" style="fill:none;stroke:#27AAE1;opacity:1;stroke-width:0.5;" x1="263" x2="3036" y1="1485.54" y2="1485.54"/>
  <line id="left-margin-Regular-M" style="fill:none;stroke:#00AEEF;stroke-width:0.5;opacity:1.0;" x1="1392.45" x2="1392.45" y1="1030.79" y2="1150.12"/>
  <line id="right-margin-Regular-M" style="fill:none;stroke:#00AEEF;stroke-width:0.5;opacity:1.0;" x1="1507.24" x2="1507.24" y1="1030.79" y2="1150.12"/>
 </g>
 <g id="Symbols">
  <g id="Black-L" transform="matrix(1 0 0 1 2855.72 1556)">
   <path d="M39.8556 26.4225L115.513 26.4225C130.677 26.4225 139.284 17.8126 139.284 2.71334L139.284-73.0895C139.284-88.1888 130.677-96.7987 115.513-96.7987L39.8556-96.7987C24.7123-96.7987 16.084-88.1912 16.084-73.0895L16.084 2.71334C16.084 17.815 24.7123 26.4225 39.8556 26.4225ZM63.1684-63.0027C70.5314-63.0027 75.6103-58.7057 78.2787-54.1291C80.9262-58.7057 86.0271-63.0027 93.3681-63.0027C103.483-63.0027 111.615-55.0927 111.615-43.1953C111.615-22.7828 87.974-7.90859 82.3773-4.63136C81.1418-4.00836 79.5494-3.07371 78.3203-3.07371C77.0912-3.07371 75.378-4.00956 74.1801-4.63136C68.6126-8.01224 44.9225-22.7828 44.9225-43.1953C44.9225-55.0927 53.0741-63.0027 63.1684-63.0027Z"/>
  </g>
  <g id="Heavy-L" transform="matrix(1 0 0 1 2559.92 1556)">
   <path d="M38.8315 25.5159L114.705 25.5159C129.348 25.5159 137.453 17.4 137.453 2.85894L137.453-73.2263C137.453-87.7674 129.348-95.8832 114.705-95.8832L38.8315-95.8832C24.2188-95.8832 16.084-87.7786 16.084-73.2263L16.084 2.85894C16.084 17.4112 24.2188 25.5159 38.8315 25.5159ZM62.0032-63.2288C69.2752-63.2288 74.4269-58.9924 77.2297-54.1192C80.0024-58.9924 85.1899-63.2288 92.4261-63.2288C102.745-63.2288 110.818-55.2256 110.818-43.4402C110.818-23.8083 88.4122-8.77149 81.1022-4.25987C79.9207-3.6176 78.4144-2.72765 77.2901-2.72765C76.1658-2.72765 74.5243-3.62321 73.3573-4.25987C66.0224-8.79899 43.6168-23.8083 43.6168-43.4402C43.6168-55.2256 51.7143-63.2288 62.0032-63.2288Z"/>
  </g>
  <g id="Bold-L" transform="matrix(1 0 0 1 2264.35 1556)">
   <path d="M37.5412 24.3865L113.714 24.3865C127.667 24.3865 135.171 16.8555 135.171 3.04324L135.171-73.3953C135.171-87.2076 127.667-94.7386 113.714-94.7386L37.5412-94.7386C23.6265-94.7386 16.084-87.2341 16.084-73.3953L16.084 3.04324C16.084 16.882 23.6265 24.3865 37.5412 24.3865ZM60.6034-63.4682C67.7602-63.4682 73.004-59.2863 75.9386-54.1189C78.8352-59.2863 84.1302-63.4682 91.2358-63.4682C101.756-63.4682 109.752-55.3796 109.752-43.7623C109.752-24.9421 88.6-9.75016 79.5045-3.90319C78.3996-3.25275 77.0082-2.43154 76.0146-2.43154C75.0209-2.43154 73.4864-3.26598 72.3727-3.90319C63.1758-9.66303 42.0999-24.9421 42.0999-43.7623C42.0999-55.3796 50.1209-63.4682 60.6034-63.4682Z"/>
  </g>
  <g id="Semibold-L" transform="matrix(1 0 0 1 1968.43 1556)">
   <path d="M36.6517 23.608L113.03 23.608C126.507 23.608 133.598 16.4801 133.598 3.17029L133.598-73.5119C133.598-86.8217 126.507-93.9496 113.03-93.9496L36.6517-93.9496C23.2182-93.9496 16.084-86.8587 16.084-73.5119L16.084 3.17029C16.084 16.5171 23.2182 23.608 36.6517 23.608ZM59.6383-63.6333C66.7157-63.6333 72.0231-59.4889 75.0485-54.1186C78.0305-59.4889 83.3997-63.6333 90.4153-63.6333C101.074-63.6333 109.018-55.4857 109.018-43.9844C109.018-25.7237 88.7294-10.4248 78.4031-3.6573C77.3509-3.00122 76.0389-2.2274 75.1352-2.2274C74.2315-2.2274 72.7708-3.01971 71.6939-3.6573C61.2133-10.2587 41.0542-25.7237 41.0542-43.9844C41.0542-55.4857 49.0225-63.6333 59.6383-63.6333Z"/>
  </g>
  <g id="Medium-L" transform="matrix(1 0 0 1 1672.31 1556)">
   <path d="M35.9773 23.0176L112.512 23.0176C125.628 23.0176 132.405 16.1955 132.405 3.26662L132.405-73.6003C132.405-86.5291 125.628-93.3513 112.512-93.3513L35.9773-93.3513C22.9086-93.3513 16.084-86.574 16.084-73.6003L16.084 3.26662C16.084 16.2404 22.9086 23.0176 35.9773 23.0176ZM58.9066-63.7585C65.9238-63.7585 71.2793-59.6425 74.3735-54.1184C77.4203-59.6425 82.8458-63.7585 89.7931-63.7585C100.558-63.7585 108.461-55.5662 108.461-44.1528C108.461-26.3164 88.8276-10.9364 77.5679-3.47085C76.5558-2.81051 75.3038-2.07262 74.4684-2.07262C73.6331-2.07262 72.2283-2.83297 71.1792-3.47085C59.7253-10.7103 40.2613-26.3164 40.2613-44.1528C40.2613-55.5662 48.1895-63.7585 58.9066-63.7585Z"/>
  </g>
  <g id="Regular-L" transform="matrix(1 0 0 1 1376.38 1556)">
   <path d="M35.0976 22.2476L111.836 22.2476C124.482 22.2476 130.85 15.8242 130.85 3.39227L130.85-73.7155C130.85-86.1475 124.482-92.5709 111.836-92.5709L35.0976-92.5709C22.5048-92.5709 16.084-86.2028 16.084-73.7155L16.084 3.39227C16.084 15.8795 22.5048 22.2476 35.0976 22.2476ZM57.9522-63.9218C64.8908-63.9218 70.3092-59.8429 73.4932-54.1182C76.6245-59.8429 82.1233-63.9218 88.9815-63.9218C99.8833-63.9218 107.734-55.6713 107.734-44.3725C107.734-27.0894 88.9556-11.6037 76.4786-3.22766C75.5186-2.56174 74.3451-1.87072 73.5987-1.87072C72.8524-1.87072 71.5206-2.5894 70.5079-3.22766C57.7845-11.2995 39.2271-27.0894 39.2271-44.3725C39.2271-55.6713 47.1031-63.9218 57.9522-63.9218Z"/>
  </g>
  <g id="Light-L" transform="matrix(1 0 0 1 1080.5 1556)">
   <path d="M34.067 21.4269L111.206 21.4269C123.088 21.4269 129.189 15.2326 129.189 3.54496L129.189-73.83C129.189-85.5176 123.088-91.712 111.206-91.712L34.067-91.712C22.2185-91.712 16.084-85.6111 16.084-73.83L16.084 3.54496C16.084 15.3261 22.2185 21.4269 34.067 21.4269ZM57.2651-63.8263C64.1083-63.8263 69.603-59.652 72.6535-54.1945C75.6702-59.652 81.2453-63.8263 88.0082-63.8263C98.7191-63.8263 106.494-55.7094 106.494-44.716C106.494-26.994 86.799-11.6991 75.2571-3.64754C74.4117-3.07705 73.3717-2.51962 72.7208-2.51962C72.0699-2.51962 70.9289-3.12379 70.0498-3.64754C58.1471-11.185 38.8263-26.994 38.8263-44.716C38.8263-55.7094 46.5878-63.8263 57.2651-63.8263Z"/>
  </g>
  <g id="Thin-L" transform="matrix(1 0 0 1 784.884 1556)">
   <path d="M32.7039 20.3415L110.373 20.3415C121.246 20.3415 126.993 14.4501 126.993 3.74689L126.993-73.9815C126.993-84.6847 121.246-90.5761 110.373-90.5761L32.7039-90.5761C21.8399-90.5761 16.084-84.8286 16.084-73.9815L16.084 3.74689C16.084 14.594 21.8399 20.3415 32.7039 20.3415ZM56.3564-63.7001C63.0734-63.7001 68.6691-59.3996 71.5428-54.2955C74.4081-59.3996 80.0842-63.7001 86.7208-63.7001C97.1794-63.7001 104.853-55.7599 104.853-45.1703C104.853-26.8678 83.9466-11.8253 73.6416-4.20286C72.9476-3.75858 72.0844-3.37784 71.5597-3.37784C71.035-3.37784 70.1464-3.83056 69.444-4.20286C58.6267-11.0335 38.2962-26.8678 38.2962-45.1703C38.2962-55.7599 45.9063-63.7001 56.3564-63.7001Z"/>
  </g>
  <g id="Ultralight-L" transform="matrix(1 0 0 1 488.735 1556)">
   <path d="M32.0058 19.7856L109.947 19.7856C120.302 19.7856 125.868 14.0493 125.868 3.85032L125.868-74.0591C125.868-84.258 120.302-89.9943 109.947-89.9943L32.0058-89.9943C21.646-89.9943 16.084-84.4278 16.084-74.0591L16.084 3.85032C16.084 14.2191 21.646 19.7856 32.0058 19.7856ZM55.891-63.6355C62.5433-63.6355 68.1907-59.2703 70.974-54.3472C73.7617-59.2703 79.4895-63.6355 86.0615-63.6355C96.3907-63.6355 104.013-55.7858 104.013-45.4031C104.013-26.8031 82.4857-11.89 72.8142-4.48729C72.1978-4.10765 71.425-3.81742 70.965-3.81742C70.5049-3.81742 69.7456-4.19256 69.1337-4.48729C58.8723-10.9559 38.0247-26.8031 38.0247-45.4031C38.0247-55.7858 45.5572-63.6355 55.891-63.6355Z"/>
  </g>
  <g id="Black-M" transform="matrix(1 0 0 1 2872.54 1126)">
   <path d="M31.6184 13.203L90.1011 13.203C102.194 13.203 109.259 6.13889 109.259-5.93804L109.259-64.4592C109.259-76.5361 102.194-83.6002 90.1011-83.6002L31.6184-83.6002C19.5311-83.6002 12.4609-76.5356 12.4609-64.4592L12.4609-5.93804C12.4609 6.13832 19.5311 13.203 31.6184 13.203ZM49.8476-56.5394C55.6173-56.5394 59.4999-53.1453 61.4335-49.8907C63.3616-53.1453 67.2494-56.5394 73.0139-56.5394C80.6494-56.5394 86.9899-50.5093 86.9899-41.237C86.9899-24.6923 67.4883-13.3342 64.7515-11.9C63.7634-11.4468 62.4738-10.7024 61.4445-10.7024C60.4151-10.7024 59.052-11.4465 58.1155-11.9C55.4323-13.4515 35.8712-24.6923 35.8712-41.237C35.8712-50.5093 42.2176-56.5394 49.8476-56.5394Z"/>
  </g>
  <g id="Heavy-M" transform="matrix(1 0 0 1 2576.65 1126)">
   <path d="M30.7123 12.3923L89.37 12.3923C101.024 12.3923 107.621 5.79013 107.621-5.80979L107.621-64.5823C107.621-76.1823 101.024-82.7845 89.37-82.7845L30.7123-82.7845C19.075-82.7845 12.4609-76.1868 12.4609-64.5823L12.4609-5.80979C12.4609 5.79468 19.075 12.3923 30.7123 12.3923ZM48.7719-56.7692C54.4614-56.7692 58.4081-53.4431 60.4855-49.874C62.5466-53.4431 66.512-56.7692 72.1828-56.7692C80.0353-56.7692 86.3252-50.6357 86.3252-41.4447C86.3252-25.7036 68.1157-14.1689 63.6177-11.4981C62.6718-11.0173 61.4541-10.3042 60.5184-10.3042C59.5827-10.3042 58.2721-11.0196 57.3534-11.4981C52.8667-14.2311 34.6318-25.7036 34.6318-41.4447C34.6318-50.6357 40.9358-56.7692 48.7719-56.7692Z"/>
  </g>
  <g id="Bold-M" transform="matrix(1 0 0 1 2280.85 1126)">
   <path d="M29.6986 11.4855L88.5521 11.4855C99.7145 11.4855 105.79 5.39999 105.79-5.66632L105.79-64.7201C105.79-75.7864 99.7145-81.8719 88.5521-81.8719L29.6986-81.8719C18.5648-81.8719 12.4609-75.7967 12.4609-64.7201L12.4609-5.66632C12.4609 5.41026 18.5648 11.4855 29.6986 11.4855ZM47.5685-57.0262C53.1684-57.0262 57.1869-53.7763 59.4251-49.8553C61.6348-53.7763 65.687-57.0262 71.2531-57.0262C79.3483-57.0262 85.5816-50.7771 85.5816-41.6771C85.5816-26.8348 68.8175-15.1027 62.3494-11.0485C61.4508-10.5368 60.3134-9.85883 59.4824-9.85883C58.6514-9.85883 57.3996-10.5419 56.5009-11.0485C49.9968-15.1033 33.2452-26.8348 33.2452-41.6771C33.2452-50.7771 39.502-57.0262 47.5685-57.0262Z"/>
  </g>
  <g id="Semibold-M" transform="matrix(1 0 0 1 1984.77 1126)">
   <path d="M28.9998 10.8604L87.9882 10.8604C98.812 10.8604 104.527 5.13104 104.527-5.56741L104.527-64.8151C104.527-75.5135 98.812-81.2428 87.9882-81.2428L28.9998-81.2428C18.2131-81.2428 12.4609-75.5277 12.4609-64.8151L12.4609-5.56741C12.4609 5.14525 18.2131 10.8604 28.9998 10.8604ZM46.739-57.2034C52.277-57.2034 56.3449-54.006 58.6941-49.8424C61.0062-54.006 65.1183-57.2034 70.6122-57.2034C78.8747-57.2034 85.0689-50.8745 85.0689-41.8373C85.0689-27.6147 69.3013-15.7464 61.475-10.7386C60.609-10.2055 59.527-9.55178 58.7682-9.55178C58.0094-9.55178 56.7981-10.2127 55.9133-10.7386C48.0183-15.7046 32.2894-27.6147 32.2894-41.8373C32.2894-50.8745 38.5135-57.2034 46.739-57.2034Z"/>
  </g>
  <g id="Medium-M" transform="matrix(1 0 0 1 1688.54 1126)">
   <path d="M28.47 10.3864L87.5607 10.3864C98.1277 10.3864 103.57 4.9271 103.57-5.49242L103.57-64.8871C103.57-75.3066 98.1277-80.7658 87.5607-80.7658L28.47-80.7658C17.9464-80.7658 12.4609-75.3238 12.4609-64.8871L12.4609-5.49242C12.4609 4.9443 17.9464 10.3864 28.47 10.3864ZM46.1099-57.3377C51.6011-57.3377 55.7065-54.1801 58.1398-49.8326C60.5296-54.1801 64.6871-57.3377 70.1262-57.3377C78.5156-57.3377 84.6802-50.9484 84.6802-41.9587C84.6802-28.2061 69.6681-16.2345 60.812-10.5036C59.9708-9.95438 58.9307-9.31896 58.2267-9.31896C57.5227-9.31896 56.342-9.96298 55.4676-10.5036C46.5182-16.1605 31.5646-28.2061 31.5646-41.9587C31.5646-50.9484 37.764-57.3377 46.1099-57.3377Z"/>
  </g>
  <g id="Regular-M" transform="matrix(1 0 0 1 1392.45 1126)">
   <path d="M27.7789 9.76808L87.003 9.76808C97.235 9.76808 102.321 4.6611 102.321-5.3946L102.321-64.981C102.321-75.0367 97.235-80.1437 87.003-80.1437L27.7789-80.1437C17.5986-80.1437 12.4609-75.0578 12.4609-64.981L12.4609-5.3946C12.4609 4.6822 17.5986 9.76808 27.7789 9.76808ZM45.2895-57.513C50.7196-57.513 54.8739-54.4073 57.4168-49.8198C59.908-54.4073 64.1246-57.513 69.4924-57.513C78.0472-57.513 84.1732-51.0448 84.1732-42.1172C84.1732-28.9774 70.1466-16.8712 59.9472-10.1971C59.1382-9.62677 58.1529-9.01528 57.5203-9.01528C56.8877-9.01528 55.7471-9.63732 54.8864-10.1971C44.5614-16.7552 30.6192-28.9774 30.6192-42.1172C30.6192-51.0448 36.7864-57.513 45.2895-57.513Z"/>
  </g>
  <g id="Light-M" transform="matrix(1 0 0 1 1096.49 1126)">
   <path d="M26.8549 9.03231L86.4383 9.03231C95.9859 9.03231 100.832 4.13066 100.832-5.25771L100.832-65.0836C100.832-74.472 95.9859-79.3737 86.4383-79.3737L26.8549-79.3737C17.3419-79.3737 12.4609-74.5273 12.4609-65.0836L12.4609-5.25771C12.4609 4.18599 17.3419 9.03231 26.8549 9.03231ZM44.6735-57.4274C50.018-57.4274 54.2408-54.2362 56.6639-49.8883C59.0524-54.2362 63.3375-57.4274 68.6197-57.4274C77.0034-57.4274 83.061-51.0791 83.061-42.4252C83.061-28.8919 68.2131-16.9568 58.8521-10.5735C58.1458-10.0888 57.2803-9.59705 56.7332-9.59705C56.1862-9.59705 55.2167-10.1164 54.4758-10.5735C44.8865-16.6525 30.2599-28.8919 30.2599-42.4252C30.2599-51.0791 36.3244-57.4274 44.6735-57.4274Z"/>
  </g>
  <g id="Thin-M" transform="matrix(1 0 0 1 800.76 1126)">
   <path d="M25.6328 8.0592L85.6915 8.0592C94.3339 8.0592 98.8634 3.42911 98.8634-5.07666L98.8634-65.2194C98.8634-73.7252 94.3339-78.3553 85.6915-78.3553L25.6328-78.3553C17.0024-78.3553 12.4609-73.8258 12.4609-65.2194L12.4609-5.07666C12.4609 3.5297 17.0024 8.0592 25.6328 8.0592ZM43.8588-57.3143C49.0902-57.3143 53.4034-54.0099 55.6682-49.9788C57.9209-54.0099 62.2965-57.3143 67.4655-57.3143C75.623-57.3143 81.59-51.1243 81.59-42.8325C81.59-28.7787 65.6558-17.0699 57.4037-11.0714C56.8332-10.6998 56.1261-10.3665 55.6922-10.3665C55.2583-10.3665 54.5151-10.7501 53.9326-11.0714C45.3165-16.5167 29.7847-28.7787 29.7847-42.8325C29.7847-51.1243 35.7134-57.3143 43.8588-57.3143Z"/>
  </g>
  <g id="Ultralight-M" transform="matrix(1 0 0 1 504.553 1126)">
   <path d="M25.0069 7.56077L85.309 7.56077C93.4878 7.56077 97.855 3.06978 97.855-4.98393L97.855-65.289C97.855-73.3427 93.4878-77.8337 85.309-77.8337L25.0069-77.8337C16.8286-77.8337 12.4609-73.4665 12.4609-65.289L12.4609-4.98393C12.4609 3.19355 16.8286 7.56077 25.0069 7.56077ZM43.4415-57.2563C48.6149-57.2563 52.9746-53.894 55.1582-50.0252C57.3414-53.894 61.7633-57.2563 66.8744-57.2563C74.9159-57.2563 80.8365-51.1475 80.8365-43.0412C80.8365-28.7208 64.346-17.1279 56.6619-11.3264C56.1609-11.0128 55.5349-10.7606 55.159-10.7606C54.7831-10.7606 54.1558-11.0746 53.6544-11.3264C45.5367-16.4472 29.5413-28.7208 29.5413-43.0412C29.5413-51.1475 35.4004-57.2563 43.4415-57.2563Z"/>
  </g>
  <g id="Black-S" transform="matrix(1 0 0 1 2885.5 696)">
   <path d="M25 2.92969L70.8008 2.92969C80.3711 2.92969 86.0352-2.73438 86.0352-12.3047L86.0352-58.1055C86.0352-67.6758 80.3711-73.3398 70.8008-73.3398L25-73.3398C15.4297-73.3398 9.76562-67.6758 9.76562-58.1055L9.76562-12.3047C9.76562-2.73438 15.4297 2.92969 25 2.92969ZM39.3555-51.8555C43.8965-51.8555 46.9238-49.1699 48.3887-46.7285C49.8535-49.1699 52.8809-51.8555 57.4219-51.8555C63.3301-51.8555 68.3105-47.168 68.3105-39.8926C68.3105-26.6602 52.5879-17.8223 51.0254-17.0898C50.2441-16.748 49.2188-16.1621 48.3887-16.1621C47.5586-16.1621 46.4844-16.748 45.752-17.0898C44.2383-17.9199 28.4668-26.6602 28.4668-39.8926C28.4668-47.168 33.4473-51.8555 39.3555-51.8555Z"/>
  </g>
  <g id="Heavy-S" transform="matrix(1 0 0 1 2589.39 696)">
   <path d="M24.3431 2.33042L70.2476 2.33042C79.5298 2.33042 84.8251-2.96486 84.8251-12.2125L84.8251-58.1977C84.8251-67.4453 79.5298-72.7406 70.2476-72.7406L24.3431-72.7406C15.0724-72.7406 9.76562-67.4453 9.76562-58.1977L9.76562-12.2125C9.76562-2.96486 15.0724 2.33042 24.3431 2.33042ZM38.5142-52.0629C42.9976-52.0629 46.071-49.4465 47.6742-46.7055C49.2658-49.4465 52.3507-52.0629 56.8226-52.0629C62.9382-52.0629 67.8841-47.2717 67.8841-40.0309C67.8841-27.536 53.3716-18.5253 50.1956-16.698C49.4374-16.3216 48.4581-15.7472 47.6972-15.7472C46.9363-15.7472 45.8851-16.3216 45.1527-16.698C42.0025-18.5999 27.4526-27.536 27.4526-40.0309C27.4526-47.2717 32.4101-52.0629 38.5142-52.0629Z"/>
  </g>
  <g id="Bold-S" transform="matrix(1 0 0 1 2293.36 696)">
   <path d="M23.6084 1.66016L69.6289 1.66016C78.5889 1.66016 83.4717-3.22266 83.4717-12.1094L83.4717-58.3008C83.4717-67.1875 78.5889-72.0703 69.6289-72.0703L23.6084-72.0703C14.6729-72.0703 9.76562-67.1875 9.76562-58.3008L9.76562-12.1094C9.76562-3.22266 14.6729 1.66016 23.6084 1.66016ZM37.5732-52.2949C41.9922-52.2949 45.1172-49.7559 46.875-46.6797C48.6084-49.7559 51.7578-52.2949 56.1523-52.2949C62.5-52.2949 67.4072-47.3877 67.4072-40.1855C67.4072-28.5156 54.248-19.3115 49.2676-16.2598C48.5352-15.8447 47.6074-15.2832 46.9238-15.2832C46.2402-15.2832 45.2148-15.8447 44.4824-16.2598C39.502-19.3604 26.3184-28.5156 26.3184-40.1855C26.3184-47.3877 31.25-52.2949 37.5732-52.2949Z"/>
  </g>
  <g id="Semibold-S" transform="matrix(1 0 0 1 1997.11 696)">
   <path d="M23.1019 1.19805L69.2023 1.19805C77.9401 1.19805 82.5386-3.40039 82.5386-12.0383L82.5386-58.3719C82.5386-67.0098 77.9401-71.6082 69.2023-71.6082L23.1019-71.6082C14.3974-71.6082 9.76562-67.0098 9.76562-58.3719L9.76562-12.0383C9.76562-3.40039 14.3974 1.19805 23.1019 1.19805ZM36.9245-52.4549C41.299-52.4549 44.4596-49.9691 46.324-46.6619C48.1552-49.9691 51.349-52.4549 55.6902-52.4549C62.1979-52.4549 67.0784-47.4677 67.0784-40.2922C67.0784-29.191 54.8523-19.8536 48.6277-15.9576C47.9131-15.5159 47.0209-14.9633 46.3906-14.9633C45.7604-14.9633 44.7527-15.5159 44.0203-15.9576C37.7779-19.8847 25.5363-29.191 25.5363-40.2922C25.5363-47.4677 30.4502-52.4549 36.9245-52.4549Z"/>
  </g>
  <g id="Medium-S" transform="matrix(1 0 0 1 1700.76 696)">
   <path d="M22.7178 0.847656L68.8789 0.847656C77.4482 0.847656 81.8311-3.53516 81.8311-11.9844L81.8311-58.4258C81.8311-66.875 77.4482-71.2578 68.8789-71.2578L22.7178-71.2578C14.1885-71.2578 9.76562-66.875 9.76562-58.4258L9.76562-11.9844C9.76562-3.53516 14.1885 0.847656 22.7178 0.847656ZM36.4326-52.5762C40.7734-52.5762 43.9609-50.1309 45.9062-46.6484C47.8115-50.1309 51.0391-52.5762 55.3398-52.5762C61.9688-52.5762 66.8291-47.5283 66.8291-40.373C66.8291-29.7031 55.3105-20.2646 48.1426-15.7285C47.4414-15.2666 46.5762-14.7207 45.9863-14.7207C45.3965-14.7207 44.4023-15.2666 43.6699-15.7285C36.4707-20.2822 24.9434-29.7031 24.9434-40.373C24.9434-47.5283 29.8438-52.5762 36.4326-52.5762Z"/>
  </g>
  <g id="Regular-S" transform="matrix(1 0 0 1 1404.51 696)">
   <path d="M22.2168 0.390625L68.457 0.390625C76.8066 0.390625 80.9082-3.71094 80.9082-11.9141L80.9082-58.4961C80.9082-66.6992 76.8066-70.8008 68.457-70.8008L22.2168-70.8008C13.916-70.8008 9.76562-66.6992 9.76562-58.4961L9.76562-11.9141C9.76562-3.71094 13.916 0.390625 22.2168 0.390625ZM35.791-52.7344C40.0879-52.7344 43.3105-50.3418 45.3613-46.6309C47.3633-50.3418 50.6348-52.7344 54.8828-52.7344C61.6699-52.7344 66.5039-47.6074 66.5039-40.4785C66.5039-30.3711 55.9082-20.8008 47.5098-15.4297C46.8262-14.9414 45.9961-14.4043 45.459-14.4043C44.9219-14.4043 43.9453-14.9414 43.2129-15.4297C34.7656-20.8008 24.1699-30.3711 24.1699-40.4785C24.1699-47.6074 29.0527-52.7344 35.791-52.7344Z"/>
  </g>
  <g id="Light-S" transform="matrix(1 0 0 1 1108.45 696)">
   <path d="M21.3994-0.260249L67.9575-0.260249C75.7017-0.260249 79.5913-4.18017 79.5913-11.793L79.5913-58.5869C79.5913-66.1997 75.7017-70.1196 67.9575-70.1196L21.3994-70.1196C13.689-70.1196 9.76562-66.23 9.76562-58.5869L9.76562-11.793C9.76562-4.1499 13.689-0.260249 21.3994-0.260249ZM35.2461-52.6587C39.4673-52.6587 42.7505-50.1904 44.6953-46.6914C46.6065-50.1904 49.9385-52.6587 54.1108-52.6587C60.7466-52.6587 65.52-47.6377 65.52-40.751C65.52-30.2954 54.1978-20.8765 46.541-15.7627C45.9482-15.3501 45.2241-14.9189 44.7627-14.9189C44.3013-14.9189 43.4761-15.3652 42.8496-15.7627C35.0532-20.71 23.8521-30.2954 23.8521-40.751C23.8521-47.6377 28.644-52.6587 35.2461-52.6587Z"/>
  </g>
  <g id="Thin-S" transform="matrix(1 0 0 1 812.615 696)">
   <path d="M20.3184-1.12108L67.2969-1.12108C74.2403-1.12108 77.8496-4.80077 77.8496-11.6328L77.8496-58.707C77.8496-65.5391 74.2403-69.2188 67.2969-69.2188L20.3184-69.2188C13.3887-69.2188 9.76562-65.6094 9.76562-58.707L9.76562-11.6328C9.76562-4.73046 13.3887-1.12108 20.3184-1.12108ZM34.5254-52.5586C38.6465-52.5586 42.0098-49.9902 43.8145-46.7715C45.6055-49.9902 49.0176-52.5586 53.0899-52.5586C59.5254-52.5586 64.2188-47.6777 64.2188-41.1113C64.2188-30.1953 51.9356-20.9766 45.2598-16.2031C44.7871-15.8906 44.2031-15.5996 43.8418-15.5996C43.4805-15.5996 42.8555-15.9258 42.3691-16.2031C35.4336-20.5898 23.4316-30.1953 23.4316-41.1113C23.4316-47.6777 28.1035-52.5586 34.5254-52.5586Z"/>
  </g>
  <g id="Ultralight-S" transform="matrix(1 0 0 1 516.35 696)">
   <path d="M19.7647-1.562L66.9585-1.562C73.4917-1.562 76.9576-5.11864 76.9576-11.5508L76.9576-58.7686C76.9576-65.2007 73.4917-68.7573 66.9585-68.7573L19.7647-68.7573C13.2349-68.7573 9.76562-65.2915 9.76562-58.7686L9.76562-11.5508C9.76562-5.02782 13.2349-1.562 19.7647-1.562ZM34.1563-52.5073C38.2261-52.5073 41.6304-49.8877 43.3633-46.8125C45.0928-49.8877 48.5459-52.5073 52.5669-52.5073C58.8999-52.5073 63.5523-47.6982 63.5523-41.2959C63.5523-30.144 50.7769-21.0278 44.6035-16.4287C44.1924-16.1675 43.6802-15.9482 43.3701-15.9482C43.0601-15.9482 42.5376-16.2129 42.1231-16.4287C35.6284-20.5283 23.2163-30.144 23.2163-41.2959C23.2163-47.6982 27.8267-52.5073 34.1563-52.5073Z"/>
  </g>
 </g>
</svg>
