<?xml version="1.0" encoding="UTF-8"?>
<!--Generator: Apple Native CoreSVG 175.5-->
<!DOCTYPE svg
PUBLIC "-//W3C//DTD SVG 1.1//EN"
       "http://www.w3.org/Graphics/SVG/1.1/DTD/svg11.dtd">
<svg version="1.1" xmlns="http://www.w3.org/2000/svg" xmlns:xlink="http://www.w3.org/1999/xlink" width="3300" height="2200">
 <!--glyph: "uni100713.medium", point size: 100.0, font version: "18.0d12e2", template writer version: "101"-->
 <g id="Notes">
  <rect height="2200" id="artboard" style="fill:white;opacity:1" width="3300" x="0" y="0"/>
  <line style="fill:none;stroke:black;opacity:1;stroke-width:0.5;" x1="263" x2="3036" y1="292" y2="292"/>
  <text style="stroke:none;fill:black;font-family:sans-serif;font-size:13;font-weight:bold;" transform="matrix(1 0 0 1 263 322)">Weight/Scale Variations</text>
  <text style="stroke:none;fill:black;font-family:sans-serif;font-size:13;text-anchor:middle;" transform="matrix(1 0 0 1 559.711 322)">Ultralight</text>
  <text style="stroke:none;fill:black;font-family:sans-serif;font-size:13;text-anchor:middle;" transform="matrix(1 0 0 1 856.422 322)">Thin</text>
  <text style="stroke:none;fill:black;font-family:sans-serif;font-size:13;text-anchor:middle;" transform="matrix(1 0 0 1 1153.13 322)">Light</text>
  <text style="stroke:none;fill:black;font-family:sans-serif;font-size:13;text-anchor:middle;" transform="matrix(1 0 0 1 1449.84 322)">Regular</text>
  <text style="stroke:none;fill:black;font-family:sans-serif;font-size:13;text-anchor:middle;" transform="matrix(1 0 0 1 1746.56 322)">Medium</text>
  <text style="stroke:none;fill:black;font-family:sans-serif;font-size:13;text-anchor:middle;" transform="matrix(1 0 0 1 2043.27 322)">Semibold</text>
  <text style="stroke:none;fill:black;font-family:sans-serif;font-size:13;text-anchor:middle;" transform="matrix(1 0 0 1 2339.98 322)">Bold</text>
  <text style="stroke:none;fill:black;font-family:sans-serif;font-size:13;text-anchor:middle;" transform="matrix(1 0 0 1 2636.69 322)">Heavy</text>
  <text style="stroke:none;fill:black;font-family:sans-serif;font-size:13;text-anchor:middle;" transform="matrix(1 0 0 1 2933.4 322)">Black</text>
  <line style="fill:none;stroke:black;opacity:1;stroke-width:0.5;" x1="263" x2="3036" y1="1903" y2="1903"/>
  <g transform="matrix(1 0 0 1 263 1933)">
   <path d="M9.24805 0.830078C13.5547 0.830078 17.1387-2.74414 17.1387-7.05078C17.1387-11.3574 13.5449-14.9316 9.23828-14.9316C4.94141-14.9316 1.36719-11.3574 1.36719-7.05078C1.36719-2.74414 4.95117 0.830078 9.24805 0.830078ZM9.24805-0.654297C5.70312-0.654297 2.87109-3.49609 2.87109-7.05078C2.87109-10.6055 5.69336-13.4473 9.23828-13.4473C12.793-13.4473 15.6445-10.6055 15.6445-7.05078C15.6445-3.49609 12.8027-0.654297 9.24805-0.654297ZM5.6543-7.05078C5.6543-6.62109 5.95703-6.32812 6.40625-6.32812L8.50586-6.32812L8.50586-4.20898C8.50586-3.76953 8.79883-3.4668 9.22852-3.4668C9.67773-3.4668 9.9707-3.76953 9.9707-4.20898L9.9707-6.32812L12.0898-6.32812C12.5293-6.32812 12.832-6.62109 12.832-7.05078C12.832-7.49023 12.5293-7.79297 12.0898-7.79297L9.9707-7.79297L9.9707-9.90234C9.9707-10.3516 9.67773-10.6543 9.22852-10.6543C8.79883-10.6543 8.50586-10.3516 8.50586-9.90234L8.50586-7.79297L6.40625-7.79297C5.95703-7.79297 5.6543-7.49023 5.6543-7.05078Z"/>
  </g>
  <g transform="matrix(1 0 0 1 281.867 1933)">
   <path d="M11.709 2.91016C17.1582 2.91016 21.6699-1.61133 21.6699-7.05078C21.6699-12.5 17.1484-17.0117 11.6992-17.0117C6.25977-17.0117 1.74805-12.5 1.74805-7.05078C1.74805-1.61133 6.26953 2.91016 11.709 2.91016ZM11.709 1.25C7.09961 1.25 3.41797-2.44141 3.41797-7.05078C3.41797-11.6602 7.08984-15.3516 11.6992-15.3516C16.3086-15.3516 20.0098-11.6602 20.0098-7.05078C20.0098-2.44141 16.3184 1.25 11.709 1.25ZM7.17773-7.05078C7.17773-6.57227 7.50977-6.25 8.00781-6.25L10.8789-6.25L10.8789-3.36914C10.8789-2.88086 11.2109-2.53906 11.6895-2.53906C12.1777-2.53906 12.5195-2.87109 12.5195-3.36914L12.5195-6.25L15.4004-6.25C15.8887-6.25 16.2305-6.57227 16.2305-7.05078C16.2305-7.53906 15.8887-7.88086 15.4004-7.88086L12.5195-7.88086L12.5195-10.752C12.5195-11.25 12.1777-11.5918 11.6895-11.5918C11.2109-11.5918 10.8789-11.25 10.8789-10.752L10.8789-7.88086L8.00781-7.88086C7.50977-7.88086 7.17773-7.53906 7.17773-7.05078Z"/>
  </g>
  <g transform="matrix(1 0 0 1 305.646 1933)">
   <path d="M14.9707 5.66406C21.9336 5.66406 27.6953-0.0976562 27.6953-7.05078C27.6953-14.0137 21.9238-19.7754 14.9609-19.7754C8.00781-19.7754 2.25586-14.0137 2.25586-7.05078C2.25586-0.0976562 8.01758 5.66406 14.9707 5.66406ZM14.9707 3.84766C8.93555 3.84766 4.08203-1.01562 4.08203-7.05078C4.08203-13.0957 8.92578-17.9492 14.9609-17.9492C21.0059-17.9492 25.8691-13.0957 25.8691-7.05078C25.8691-1.01562 21.0156 3.84766 14.9707 3.84766ZM9.19922-7.05078C9.19922-6.5332 9.57031-6.17188 10.1172-6.17188L14.0625-6.17188L14.0625-2.2168C14.0625-1.67969 14.4336-1.29883 14.9512-1.29883C15.4883-1.29883 15.8594-1.66992 15.8594-2.2168L15.8594-6.17188L19.8145-6.17188C20.3516-6.17188 20.7324-6.5332 20.7324-7.05078C20.7324-7.59766 20.3613-7.96875 19.8145-7.96875L15.8594-7.96875L15.8594-11.9141C15.8594-12.4609 15.4883-12.8418 14.9512-12.8418C14.4336-12.8418 14.0625-12.4609 14.0625-11.9141L14.0625-7.96875L10.1172-7.96875C9.57031-7.96875 9.19922-7.59766 9.19922-7.05078Z"/>
  </g>
  <text style="stroke:none;fill:black;font-family:sans-serif;font-size:13;font-weight:bold;" transform="matrix(1 0 0 1 263 1953)">Design Variations</text>
  <text style="stroke:none;fill:black;font-family:sans-serif;font-size:13;" transform="matrix(1 0 0 1 263 1971)">Symbols are supported in up to nine weights and three scales.</text>
  <text style="stroke:none;fill:black;font-family:sans-serif;font-size:13;" transform="matrix(1 0 0 1 263 1989)">For optimal layout with text and other symbols, vertically align</text>
  <text style="stroke:none;fill:black;font-family:sans-serif;font-size:13;" transform="matrix(1 0 0 1 263 2007)">symbols with the adjacent text.</text>
  <line style="fill:none;stroke:#00AEEF;stroke-width:0.5;opacity:1.0;" x1="776" x2="776" y1="1919" y2="1933"/>
  <g transform="matrix(1 0 0 1 776 1933)">
   <path d="M3.31055 0.15625C3.82812 0.15625 4.08203-0.0390625 4.26758-0.585938L5.52734-4.0332L11.2891-4.0332L12.5488-0.585938C12.7344-0.0390625 12.9883 0.15625 13.4961 0.15625C14.0137 0.15625 14.3457-0.15625 14.3457-0.644531C14.3457-0.810547 14.3164-0.966797 14.2383-1.17188L9.6582-13.3691C9.43359-13.9648 9.0332-14.2676 8.4082-14.2676C7.80273-14.2676 7.39258-13.9746 7.17773-13.3789L2.59766-1.16211C2.51953-0.957031 2.49023-0.800781 2.49023-0.634766C2.49023-0.146484 2.80273 0.15625 3.31055 0.15625ZM6.00586-5.51758L8.37891-12.0898L8.42773-12.0898L10.8008-5.51758Z"/>
  </g>
  <line style="fill:none;stroke:#00AEEF;stroke-width:0.5;opacity:1.0;" x1="793.197" x2="793.197" y1="1919" y2="1933"/>
  <text style="stroke:none;fill:black;font-family:sans-serif;font-size:13;font-weight:bold;" transform="matrix(1 0 0 1 776 1953)">Margins</text>
  <text style="stroke:none;fill:black;font-family:sans-serif;font-size:13;" transform="matrix(1 0 0 1 776 1971)">Leading and trailing margins on the left and right side of each symbol</text>
  <text style="stroke:none;fill:black;font-family:sans-serif;font-size:13;" transform="matrix(1 0 0 1 776 1989)">can be adjusted by modifying the x-location of the margin guidelines.</text>
  <text style="stroke:none;fill:black;font-family:sans-serif;font-size:13;" transform="matrix(1 0 0 1 776 2007)">Modifications are automatically applied proportionally to all</text>
  <text style="stroke:none;fill:black;font-family:sans-serif;font-size:13;" transform="matrix(1 0 0 1 776 2025)">scales and weights.</text>
  <g transform="matrix(1 0 0 1 1289 1933)">
   <path d="M2.8418 1.86523L4.54102 3.57422C5.40039 4.44336 6.38672 4.38477 7.31445 3.35938L18.0078-8.42773L17.041-9.4043L6.42578 2.27539C6.07422 2.67578 5.74219 2.77344 5.27344 2.30469L4.10156 1.14258C3.63281 0.683594 3.74023 0.341797 4.14062-0.0195312L15.6152-10.8203L14.6387-11.7871L3.04688-0.898438C2.06055 0.0195312 1.98242 0.996094 2.8418 1.86523ZM9.25781-16.3281C8.83789-15.918 8.80859-15.3418 9.04297-14.9512C9.27734-14.5898 9.73633-14.3555 10.3809-14.5215C11.8457-14.8633 13.3691-14.9219 14.7949-13.9844L14.209-12.5293C13.8672-11.6992 14.043-11.1133 14.5801-10.5664L16.875-8.25195C17.3633-7.76367 17.7734-7.74414 18.3398-7.8418L19.4043-8.03711L20.0684-7.36328L20.0293-6.80664C19.9902-6.30859 20.1172-5.92773 20.6055-5.44922L21.3672-4.70703C21.8457-4.22852 22.4609-4.19922 22.9297-4.66797L25.8398-7.58789C26.3086-8.05664 26.2891-8.65234 25.8105-9.13086L25.0391-9.89258C24.5605-10.3711 24.1895-10.5273 23.7109-10.4883L23.1348-10.4395L22.4902-11.0742L22.7344-12.1973C22.8613-12.7637 22.7051-13.2031 22.1191-13.7891L19.9219-15.9766C16.582-19.2969 12.1484-19.2188 9.25781-16.3281ZM10.752-15.957C13.1836-17.7344 16.4746-17.4316 18.7012-15.2051L21.1328-12.793C21.3672-12.5586 21.4062-12.373 21.3379-12.0312L21.0156-10.5469L22.5195-9.0625L23.5059-9.12109C23.7598-9.13086 23.8379-9.11133 24.0332-8.91602L24.6094-8.33984L22.168-5.89844L21.5918-6.47461C21.3965-6.66992 21.3672-6.74805 21.377-7.01172L21.4453-7.98828L19.9512-9.47266L18.4277-9.21875C18.1055-9.15039 17.959-9.17969 17.7148-9.41406L15.7129-11.416C15.459-11.6504 15.4297-11.8164 15.5859-12.1875L16.4648-14.2773C14.9023-15.7324 12.8711-16.3574 10.8398-15.7617C10.6836-15.7227 10.625-15.8496 10.752-15.957Z"/>
  </g>
  <text style="stroke:none;fill:black;font-family:sans-serif;font-size:13;font-weight:bold;" transform="matrix(1 0 0 1 1289 1953)">Exporting</text>
  <text style="stroke:none;fill:black;font-family:sans-serif;font-size:13;" transform="matrix(1 0 0 1 1289 1971)">Symbols should be outlined when exporting to ensure the</text>
  <text style="stroke:none;fill:black;font-family:sans-serif;font-size:13;" transform="matrix(1 0 0 1 1289 1989)">design is preserved when submitting to Xcode.</text>
  <text id="template-version" style="stroke:none;fill:black;font-family:sans-serif;font-size:13;text-anchor:end;" transform="matrix(1 0 0 1 3036 1933)">Template v.4.0</text>
  <text style="stroke:none;fill:black;font-family:sans-serif;font-size:13;text-anchor:end;" transform="matrix(1 0 0 1 3036 1951)">Requires Xcode 14 or greater</text>
  <text id="descriptive-name" style="stroke:none;fill:black;font-family:sans-serif;font-size:13;text-anchor:end;" transform="matrix(1 0 0 1 3036 1969)">Generated from line.3.horizontal.decrease</text>
  <text style="stroke:none;fill:black;font-family:sans-serif;font-size:13;text-anchor:end;" transform="matrix(1 0 0 1 3036 1987)">Typeset at 100 points</text>
  <text style="stroke:none;fill:black;font-family:sans-serif;font-size:13;" transform="matrix(1 0 0 1 263 726)">Small</text>
  <text style="stroke:none;fill:black;font-family:sans-serif;font-size:13;" transform="matrix(1 0 0 1 263 1156)">Medium</text>
  <text style="stroke:none;fill:black;font-family:sans-serif;font-size:13;" transform="matrix(1 0 0 1 263 1586)">Large</text>
 </g>
 <g id="Guides">
  <g id="H-reference" style="fill:#27AAE1;stroke:none;" transform="matrix(1 0 0 1 339 696)">
   <path d="M0.993654 0L3.63775 0L29.3281-67.1323L30.0303-67.1323L30.0303-70.459L28.1226-70.459ZM11.6885-24.4799L46.9815-24.4799L46.2315-26.7285L12.4385-26.7285ZM55.1196 0L57.7637 0L30.6382-70.459L29.4326-70.459L29.4326-67.1323Z"/>
  </g>
  <line id="Baseline-S" style="fill:none;stroke:#27AAE1;opacity:1;stroke-width:0.5;" x1="263" x2="3036" y1="696" y2="696"/>
  <line id="Capline-S" style="fill:none;stroke:#27AAE1;opacity:1;stroke-width:0.5;" x1="263" x2="3036" y1="625.541" y2="625.541"/>
  <g id="H-reference" style="fill:#27AAE1;stroke:none;" transform="matrix(1 0 0 1 339 1126)">
   <path d="M0.993654 0L3.63775 0L29.3281-67.1323L30.0303-67.1323L30.0303-70.459L28.1226-70.459ZM11.6885-24.4799L46.9815-24.4799L46.2315-26.7285L12.4385-26.7285ZM55.1196 0L57.7637 0L30.6382-70.459L29.4326-70.459L29.4326-67.1323Z"/>
  </g>
  <line id="Baseline-M" style="fill:none;stroke:#27AAE1;opacity:1;stroke-width:0.5;" x1="263" x2="3036" y1="1126" y2="1126"/>
  <line id="Capline-M" style="fill:none;stroke:#27AAE1;opacity:1;stroke-width:0.5;" x1="263" x2="3036" y1="1055.54" y2="1055.54"/>
  <g id="H-reference" style="fill:#27AAE1;stroke:none;" transform="matrix(1 0 0 1 339 1556)">
   <path d="M0.993654 0L3.63775 0L29.3281-67.1323L30.0303-67.1323L30.0303-70.459L28.1226-70.459ZM11.6885-24.4799L46.9815-24.4799L46.2315-26.7285L12.4385-26.7285ZM55.1196 0L57.7637 0L30.6382-70.459L29.4326-70.459L29.4326-67.1323Z"/>
  </g>
  <line id="Baseline-L" style="fill:none;stroke:#27AAE1;opacity:1;stroke-width:0.5;" x1="263" x2="3036" y1="1556" y2="1556"/>
  <line id="Capline-L" style="fill:none;stroke:#27AAE1;opacity:1;stroke-width:0.5;" x1="263" x2="3036" y1="1485.54" y2="1485.54"/>
  <line id="left-margin-Regular-M" style="fill:none;stroke:#00AEEF;stroke-width:0.5;opacity:1.0;" x1="1388.01" x2="1388.01" y1="1030.79" y2="1150.12"/>
  <line id="right-margin-Regular-M" style="fill:none;stroke:#00AEEF;stroke-width:0.5;opacity:1.0;" x1="1511.68" x2="1511.68" y1="1030.79" y2="1150.12"/>
 </g>
 <g id="Symbols">
  <g id="Black-L" transform="matrix(1 0 0 1 2849.91 1556)">
   <path d="M49.3625 6.75897L117.723 6.75897C122.657 6.75897 126.545 2.46205 126.545-2.37626C126.545-7.36777 122.715-11.4895 117.723-11.4895L49.3625-11.4895C44.4282-11.4895 40.5402-7.25095 40.5402-2.37626C40.5402 2.34523 44.4866 6.75897 49.3625 6.75897ZM37.1761-26.1553L129.91-26.1553C134.843-26.1553 138.732-30.4534 138.732-35.2697C138.732-40.2612 134.901-44.3841 129.91-44.3841L37.1761-44.3841C32.2418-44.3841 28.3537-40.1444 28.3537-35.2697C28.3537-30.5702 32.3002-26.1553 37.1761-26.1553ZM24.9064-59.0499L142.076-59.0499C147.029-59.0499 150.898-63.3469 150.898-68.1631C150.898-73.1767 147.088-77.2984 142.076-77.2984L24.9064-77.2984C19.9721-77.2984 16.084-73.0599 16.084-68.1631C16.084-63.4637 20.0305-59.0499 24.9064-59.0499Z"/>
  </g>
  <g id="Heavy-L" transform="matrix(1 0 0 1 2554.11 1556)">
   <path d="M48.9421 5.57914L116.36 5.57914C120.747 5.57914 124.212 1.80173 124.212-2.5319C124.212-6.96361 120.792-10.6072 116.36-10.6072L48.9421-10.6072C44.5494-10.6072 41.0843-6.87437 41.0843-2.5319C41.0843 1.71249 44.594 5.57914 48.9421 5.57914ZM36.5023-27.1888L128.8-27.1888C133.187-27.1888 136.657-30.9719 136.657-35.2697C136.657-39.7014 133.231-43.3506 128.8-43.3506L36.5023-43.3506C32.1096-43.3506 28.6445-39.6122 28.6445-35.2697C28.6445-31.0611 32.1542-27.1888 36.5023-27.1888ZM23.9417-59.9323L141.209-59.9323C145.627-59.9323 149.067-63.7097 149.067-68.0075C149.067-72.475 145.671-76.1185 141.209-76.1185L23.9417-76.1185C19.549-76.1185 16.084-72.3858 16.084-68.0075C16.084-63.7989 19.5937-59.9323 23.9417-59.9323Z"/>
  </g>
  <g id="Bold-L" transform="matrix(1 0 0 1 2258.51 1556)">
   <path d="M48.5761 4.03717L114.543 4.03717C118.239 4.03717 121.166 0.905159 121.166-2.78364C121.166-6.50884 118.268-9.55324 114.543-9.55324L48.5761-9.55324C44.8669-9.55324 41.9393-6.45043 41.9393-2.78364C41.9393 0.846753 44.8961 4.03717 48.5761 4.03717ZM35.7244-28.4869L127.394-28.4869C131.09-28.4869 134.031-31.6321 134.031-35.2697C134.031-38.9949 131.12-42.0525 127.394-42.0525L35.7244-42.0525C32.0152-42.0525 29.0876-38.9365 29.0876-35.2697C29.0876-31.6905 32.0444-28.4869 35.7244-28.4869ZM22.7208-60.9862L140.208-60.9862C143.942-60.9862 146.845-64.1182 146.845-67.7558C146.845-71.5322 143.971-74.5766 140.208-74.5766L22.7208-74.5766C19.0116-74.5766 16.084-71.4738 16.084-67.7558C16.084-64.1766 19.0408-60.9862 22.7208-60.9862Z"/>
  </g>
  <g id="Semibold-L" transform="matrix(1 0 0 1 1962.57 1556)">
   <path d="M48.3238 2.97415L113.29 2.97415C116.51 2.97415 119.067 0.287065 119.067-2.95719C119.067-6.19531 116.528-8.82668 113.29-8.82668L48.3238-8.82668C45.0858-8.82668 42.5287-6.15817 42.5287-2.95719C42.5287 0.249919 45.1044 2.97415 48.3238 2.97415ZM35.1882-29.3817L126.426-29.3817C129.645-29.3817 132.221-32.0873 132.221-35.2697C132.221-38.5078 129.664-41.1577 126.426-41.1577L35.1882-41.1577C31.9502-41.1577 29.3931-38.4707 29.3931-35.2697C29.3931-32.1244 31.9687-29.3817 35.1882-29.3817ZM21.8791-61.7127L139.518-61.7127C142.781-61.7127 145.313-64.3998 145.313-67.5822C145.313-70.8822 142.799-73.5136 139.518-73.5136L21.8791-73.5136C18.6411-73.5136 16.084-70.845 16.084-67.5822C16.084-64.437 18.6596-61.7127 21.8791-61.7127Z"/>
  </g>
  <g id="Medium-L" transform="matrix(1 0 0 1 1666.44 1556)">
   <path d="M48.1325 2.16812L112.34 2.16812C115.199 2.16812 117.475-0.181599 117.475-3.08878C117.475-5.95759 115.209-8.27577 112.34-8.27577L48.1325-8.27577C45.2518-8.27577 42.9756-5.93656 42.9756-3.08878C42.9756-0.202625 45.2623 2.16812 48.1325 2.16812ZM34.7816-30.0602L125.691-30.0602C128.549-30.0602 130.848-32.4324 130.848-35.2697C130.848-38.1385 128.56-40.4792 125.691-40.4792L34.7816-40.4792C31.9008-40.4792 29.6247-38.1175 29.6247-35.2697C29.6247-32.4535 31.9113-30.0602 34.7816-30.0602ZM21.2409-62.2636L138.995-62.2636C141.9-62.2636 144.152-64.6134 144.152-67.4506C144.152-70.3893 141.911-72.7075 138.995-72.7075L21.2409-72.7075C18.3601-72.7075 16.084-70.3683 16.084-67.4506C16.084-64.6344 18.3706-62.2636 21.2409-62.2636Z"/>
  </g>
  <g id="Regular-L" transform="matrix(1 0 0 1 1370.48 1556)">
   <path d="M47.883 1.11678L111.101 1.11678C113.488 1.11678 115.398-0.792901 115.398-3.26042C115.398-5.64751 113.488-7.55719 111.101-7.55719L47.883-7.55719C45.4683-7.55719 43.5586-5.64751 43.5586-3.26042C43.5586-0.792901 45.4683 1.11678 47.883 1.11678ZM34.2512-30.9453L124.733-30.9453C127.12-30.9453 129.057-32.8826 129.057-35.2697C129.057-37.6568 127.12-39.5941 124.733-39.5941L34.2512-39.5941C31.8365-39.5941 29.9268-37.6568 29.9268-35.2697C29.9268-32.8826 31.8365-30.9453 34.2512-30.9453ZM20.4084-62.9822L138.312-62.9822C140.752-62.9822 142.636-64.8919 142.636-67.279C142.636-69.7465 140.752-71.6562 138.312-71.6562L20.4084-71.6562C17.9937-71.6562 16.084-69.7465 16.084-67.279C16.084-64.8919 17.9937-62.9822 20.4084-62.9822Z"/>
  </g>
  <g id="Light-L" transform="matrix(1 0 0 1 1074.39 1556)">
   <path d="M48.6273-0.467301L109.021-0.467301C110.836-0.467301 112.287-1.91893 112.287-3.81389C112.287-5.62843 110.836-7.08006 109.021-7.08006L48.6273-7.08006C46.7661-7.08006 45.3144-5.62843 45.3144-3.81389C45.3144-1.91893 46.7661-0.467301 48.6273-0.467301ZM34.0795-31.9568L123.569-31.9568C125.383-31.9568 126.882-33.4552 126.882-35.2697C126.882-37.0842 125.383-38.5826 123.569-38.5826L34.0795-38.5826C32.2182-38.5826 30.7666-37.0842 30.7666-35.2697C30.7666-33.4552 32.2182-31.9568 34.0795-31.9568ZM19.3969-63.4593L138.083-63.4593C139.931-63.4593 141.396-64.911 141.396-66.7255C141.396-68.6205 139.931-70.0721 138.083-70.0721L19.3969-70.0721C17.5356-70.0721 16.084-68.6205 16.084-66.7255C16.084-64.911 17.5356-63.4593 19.3969-63.4593Z"/>
  </g>
  <g id="Thin-L" transform="matrix(1 0 0 1 778.503 1556)">
   <path d="M49.6118-2.56237L106.27-2.56237C107.327-2.56237 108.173-3.4082 108.173-4.5459C108.173-5.60319 107.327-6.44901 106.27-6.44901L49.6118-6.44901C48.4825-6.44901 47.6367-5.60319 47.6367-4.5459C47.6367-3.4082 48.4825-2.56237 49.6118-2.56237ZM33.8523-33.2946L122.029-33.2946C123.086-33.2946 124.004-34.2124 124.004-35.2697C124.004-36.327 123.086-37.2448 122.029-37.2448L33.8523-37.2448C32.723-37.2448 31.8772-36.327 31.8772-35.2697C31.8772-34.2124 32.723-33.2946 33.8523-33.2946ZM18.0591-64.0904L137.78-64.0904C138.846-64.0904 139.755-64.9362 139.755-65.9935C139.755-67.1312 138.846-67.977 137.78-67.977L18.0591-67.977C16.9298-67.977 16.084-67.1312 16.084-65.9935C16.084-64.9362 16.9298-64.0904 18.0591-64.0904Z"/>
  </g>
  <g id="Ultralight-L" transform="matrix(1 0 0 1 482.212 1556)">
   <path d="M50.116-3.63546L104.86-3.63546C105.53-3.63546 106.065-4.17099 106.065-4.92084C106.065-5.59026 105.53-6.1258 104.86-6.1258L50.116-6.1258C49.3616-6.1258 48.8261-5.59026 48.8261-4.92084C48.8261-4.17099 49.3616-3.63546 50.116-3.63546ZM33.7359-33.9798L121.24-33.9798C121.91-33.9798 122.53-34.6003 122.53-35.2697C122.53-35.9391 121.91-36.5596 121.24-36.5596L33.7359-36.5596C32.9816-36.5596 32.4461-35.9391 32.4461-35.2697C32.4461-34.6003 32.9816-33.9798 33.7359-33.9798ZM17.3739-64.4136L137.625-64.4136C138.29-64.4136 138.915-64.9491 138.915-65.6186C138.915-66.3684 138.29-66.9039 137.625-66.9039L17.3739-66.9039C16.6195-66.9039 16.084-66.3684 16.084-65.6186C16.084-64.9491 16.6195-64.4136 17.3739-64.4136Z"/>
  </g>
  <g id="Black-M" transform="matrix(1 0 0 1 2868.01 1126)">
   <path d="M38.7054-1.89991L92.0954-1.89991C96.3089-1.89991 99.6227-5.61335 99.6227-9.71793C99.6227-13.9886 96.366-17.5307 92.0954-17.5307L38.7054-17.5307C34.4921-17.5307 31.1784-13.8744 31.1784-9.71793C31.1784-5.72754 34.5492-1.89991 38.7054-1.89991ZM29.3577-27.4481L101.443-27.4481C105.657-27.4481 108.97-31.1613 108.97-35.2606C108.97-39.5313 105.714-43.0732 101.443-43.0732L29.3577-43.0732C25.1444-43.0732 21.8306-39.4171 21.8306-35.2606C21.8306-31.2755 25.2015-27.4481 29.3577-27.4481ZM19.988-52.9905L110.785-52.9905C115.004-52.9905 118.312-56.704 118.312-60.8034C118.312-65.0792 115.062-68.6214 110.785-68.6214L19.988-68.6214C15.7747-68.6214 12.4609-64.965 12.4609-60.8034C12.4609-56.8182 15.8318-52.9905 19.988-52.9905Z"/>
  </g>
  <g id="Heavy-M" transform="matrix(1 0 0 1 2572.14 1126)">
   <path d="M38.2257-2.90714L90.9543-2.90714C94.6869-2.90714 97.6294-6.15497 97.6294-9.81903C97.6294-13.5953 94.7305-16.7122 90.9543-16.7122L38.2257-16.7122C34.4908-16.7122 31.5484-13.508 31.5484-9.81903C31.5484-6.24221 34.5345-2.90714 38.2257-2.90714ZM28.7148-28.3652L100.465-28.3652C104.198-28.3652 107.143-31.6153 107.143-35.2606C107.143-39.0369 104.241-42.1561 100.465-42.1561L28.7148-42.1561C24.9799-42.1561 22.0375-38.9496 22.0375-35.2606C22.0375-31.7025 25.0236-28.3652 28.7148-28.3652ZM19.1383-53.8091L109.96-53.8091C113.709-53.8091 116.637-57.0569 116.637-60.7023C116.637-64.4972 113.752-67.6142 109.96-67.6142L19.1383-67.6142C15.4034-67.6142 12.4609-64.4099 12.4609-60.7023C12.4609-57.1441 15.447-53.8091 19.1383-53.8091Z"/>
  </g>
  <g id="Bold-M" transform="matrix(1 0 0 1 2276.37 1126)">
   <path d="M37.6891-4.03387L89.6778-4.03387C92.8724-4.03387 95.3996-6.76085 95.3996-9.93212C95.3996-13.1553 92.901-15.7966 89.6778-15.7966L37.6891-15.7966C34.4894-15.7966 31.9622-13.0982 31.9622-9.93212C31.9622-6.81794 34.5179-4.03387 37.6891-4.03387ZM27.9957-29.391L99.3712-29.391C102.566-29.391 105.098-32.1231 105.098-35.2606C105.098-38.4838 102.594-41.1303 99.3712-41.1303L27.9957-41.1303C24.796-41.1303 22.2688-38.4267 22.2688-35.2606C22.2688-32.1802 24.8245-29.391 27.9957-29.391ZM18.1878-54.7247L109.036-54.7247C112.259-54.7247 114.763-57.4517 114.763-60.5892C114.763-63.8461 112.288-66.4874 109.036-66.4874L18.1878-66.4874C14.9881-66.4874 12.4609-63.789 12.4609-60.5892C12.4609-57.5087 15.0166-54.7247 18.1878-54.7247Z"/>
  </g>
  <g id="Semibold-M" transform="matrix(1 0 0 1 1980.3 1126)">
   <path d="M37.3192-4.81063L88.7978-4.81063C91.6216-4.81063 93.8624-7.17854 93.8624-10.0101C93.8624-12.852 91.6397-15.1654 88.7978-15.1654L37.3192-15.1654C34.4884-15.1654 32.2476-12.8156 32.2476-10.0101C32.2476-7.21485 34.5065-4.81063 37.3192-4.81063ZM27.5-30.0982L98.6171-30.0982C101.441-30.0982 103.689-32.4732 103.689-35.2606C103.689-38.1025 101.459-40.4231 98.6171-40.4231L27.5-40.4231C24.6691-40.4231 22.4283-38.0662 22.4283-35.2606C22.4283-32.5096 24.6873-30.0982 27.5-30.0982ZM17.5326-55.3559L108.399-55.3559C111.26-55.3559 113.471-57.7238 113.471-60.5112C113.471-63.3972 111.278-65.7107 108.399-65.7107L17.5326-65.7107C14.7018-65.7107 12.4609-63.3609 12.4609-60.5112C12.4609-57.7601 14.7199-55.3559 17.5326-55.3559Z"/>
  </g>
  <g id="Medium-M" transform="matrix(1 0 0 1 1684.08 1126)">
   <path d="M37.0387-5.3996L88.1306-5.3996C90.6731-5.3996 92.6968-7.49525 92.6968-10.0692C92.6968-12.622 90.6834-14.6868 88.1306-14.6868L37.0387-14.6868C34.4876-14.6868 32.4639-12.6014 32.4639-10.0692C32.4639-7.5158 34.4979-5.3996 37.0387-5.3996ZM27.1241-30.6345L98.0452-30.6345C100.588-30.6345 102.62-32.7387 102.62-35.2606C102.62-37.8134 100.598-39.8868 98.0452-39.8868L27.1241-39.8868C24.573-39.8868 22.5493-37.7928 22.5493-35.2606C22.5493-32.7593 24.5833-30.6345 27.1241-30.6345ZM17.0357-55.8345L107.916-55.8345C110.502-55.8345 112.491-57.9302 112.491-60.4521C112.491-63.0569 110.513-65.1217 107.916-65.1217L17.0357-65.1217C14.4846-65.1217 12.4609-63.0363 12.4609-60.4521C12.4609-57.9507 14.4949-55.8345 17.0357-55.8345Z"/>
  </g>
  <g id="Regular-M" transform="matrix(1 0 0 1 1388.01 1126)">
   <path d="M36.6728-6.16783L87.2603-6.16783C89.4359-6.16783 91.1765-7.90835 91.1765-10.1463C91.1765-12.322 89.4359-14.0625 87.2603-14.0625L36.6728-14.0625C34.4866-14.0625 32.7461-12.322 32.7461-10.1463C32.7461-7.90835 34.4866-6.16783 36.6728-6.16783ZM26.6338-31.3339L97.2994-31.3339C99.475-31.3339 101.226-33.085 101.226-35.2606C101.226-37.4363 99.475-39.1874 97.2994-39.1874L26.6338-39.1874C24.4475-39.1874 22.707-37.4363 22.707-35.2606C22.707-33.085 24.4475-31.3339 26.6338-31.3339ZM16.3877-56.4588L107.287-56.4588C109.514-56.4588 111.213-58.1993 111.213-60.375C111.213-62.6129 109.514-64.3535 107.287-64.3535L16.3877-64.3535C14.2015-64.3535 12.4609-62.6129 12.4609-60.375C12.4609-58.1993 14.2015-56.4588 16.3877-56.4588Z"/>
  </g>
  <g id="Light-M" transform="matrix(1 0 0 1 1091.85 1126)">
   <path d="M37.3401-7.58803L85.3952-7.58803C87.0575-7.58803 88.3874-8.9179 88.3874-10.6425C88.3874-12.3049 87.0575-13.6347 85.3952-13.6347L37.3401-13.6347C35.6502-13.6347 34.3203-12.3049 34.3203-10.6425C34.3203-8.9179 35.6502-7.58803 37.3401-7.58803ZM26.4798-32.2408L96.2556-32.2408C97.9179-32.2408 99.2754-33.5983 99.2754-35.2606C99.2754-36.923 97.9179-38.2805 96.2556-38.2805L26.4798-38.2805C24.7898-38.2805 23.4599-36.923 23.4599-35.2606C23.4599-33.5983 24.7898-32.2408 26.4798-32.2408ZM15.4808-56.8866L107.081-56.8866C108.778-56.8866 110.101-58.2164 110.101-59.8788C110.101-61.6034 108.778-62.9333 107.081-62.9333L15.4808-62.9333C13.7908-62.9333 12.4609-61.6034 12.4609-59.8788C12.4609-58.2164 13.7908-56.8866 15.4808-56.8866Z"/>
  </g>
  <g id="Thin-M" transform="matrix(1 0 0 1 795.877 1126)">
   <path d="M38.2227-9.46637L82.9285-9.46637C83.9119-9.46637 84.6986-10.2531 84.6986-11.2988C84.6986-12.2822 83.9119-13.069 82.9285-13.069L38.2227-13.069C37.189-13.069 36.4023-12.2822 36.4023-11.2988C36.4023-10.2531 37.189-9.46637 38.2227-9.46637ZM26.2761-33.4402L94.8751-33.4402C95.8585-33.4402 96.6956-34.2772 96.6956-35.2606C96.6956-36.2441 95.8585-37.0811 94.8751-37.0811L26.2761-37.0811C25.2424-37.0811 24.4556-36.2441 24.4556-35.2606C24.4556-34.2772 25.2424-33.4402 26.2761-33.4402ZM14.2814-57.4523L106.81-57.4523C107.805-57.4523 108.63-58.2391 108.63-59.2225C108.63-60.2682 107.805-61.0549 106.81-61.0549L14.2814-61.0549C13.2477-61.0549 12.4609-60.2682 12.4609-59.2225C12.4609-58.2391 13.2477-57.4523 14.2814-57.4523Z"/>
  </g>
  <g id="Ultralight-M" transform="matrix(1 0 0 1 499.542 1126)">
   <path d="M38.6748-10.4284L81.665-10.4284C82.3007-10.4284 82.8092-10.937 82.8092-11.635C82.8092-12.2706 82.3007-12.7792 81.665-12.7792L38.6748-12.7792C37.9772-12.7792 37.4687-12.2706 37.4687-11.635C37.4687-10.937 37.9772-10.4284 38.6748-10.4284ZM26.1718-34.0546L94.1681-34.0546C94.8037-34.0546 95.3741-34.625 95.3741-35.2606C95.3741-35.8963 94.8037-36.4667 94.1681-36.4667L26.1718-36.4667C25.4742-36.4667 24.9657-35.8963 24.9657-35.2606C24.9657-34.625 25.4742-34.0546 26.1718-34.0546ZM13.667-57.7421L106.671-57.7421C107.307-57.7421 107.877-58.2507 107.877-58.8863C107.877-59.5843 107.307-60.0928 106.671-60.0928L13.667-60.0928C12.9695-60.0928 12.4609-59.5843 12.4609-58.8863C12.4609-58.2507 12.9695-57.7421 13.667-57.7421Z"/>
  </g>
  <g id="Black-S" transform="matrix(1 0 0 1 2881.94 696)">
   <path d="M30.5176-8.88672L72.4121-8.88672C75.8301-8.88672 78.5156-11.9141 78.5156-15.2344C78.5156-18.7012 75.8789-21.582 72.4121-21.582L30.5176-21.582C27.0996-21.582 24.4141-18.6035 24.4141-15.2344C24.4141-12.0117 27.1484-8.88672 30.5176-8.88672ZM23.1934-28.9062L79.7363-28.9062C83.1543-28.9062 85.8398-31.9336 85.8398-35.2539C85.8398-38.7207 83.2031-41.6016 79.7363-41.6016L23.1934-41.6016C19.7754-41.6016 17.0898-38.623 17.0898-35.2539C17.0898-32.0312 19.8242-28.9062 23.1934-28.9062ZM15.8691-48.9258L87.0605-48.9258C90.4785-48.9258 93.1641-51.9531 93.1641-55.2734C93.1641-58.7402 90.5273-61.6211 87.0605-61.6211L15.8691-61.6211C12.4512-61.6211 9.76562-58.6426 9.76562-55.2734C9.76562-52.0508 12.5-48.9258 15.8691-48.9258Z"/>
  </g>
  <g id="Heavy-S" transform="matrix(1 0 0 1 2585.87 696)">
   <path d="M30.022-9.56666L71.6745-9.56666C74.7468-9.56666 77.1673-12.2483 77.1673-15.2574C77.1673-18.367 74.7841-20.9367 71.6745-20.9367L30.022-20.9367C26.9498-20.9367 24.5293-18.2924 24.5293-15.2574C24.5293-12.3229 26.9871-9.56666 30.022-9.56666ZM22.6632-29.5747L79.0333-29.5747C82.1056-29.5747 84.5261-32.2563 84.5261-35.2539C84.5261-38.3634 82.1429-40.9331 79.0333-40.9331L22.6632-40.9331C19.591-40.9331 17.1705-38.2888 17.1705-35.2539C17.1705-32.3309 19.6283-29.5747 22.6632-29.5747ZM15.2583-49.5712L86.3806-49.5712C89.4644-49.5712 91.8733-52.2528 91.8733-55.2504C91.8733-58.3715 89.5017-60.9412 86.3806-60.9412L15.2583-60.9412C12.1861-60.9412 9.76562-58.2968 9.76562-55.2504C9.76562-52.3274 12.2234-49.5712 15.2583-49.5712Z"/>
  </g>
  <g id="Bold-S" transform="matrix(1 0 0 1 2289.88 696)">
   <path d="M29.4678-10.3271L70.8496-10.3271C73.5352-10.3271 75.6592-12.6221 75.6592-15.2832C75.6592-17.9932 73.5596-20.2148 70.8496-20.2148L29.4678-20.2148C26.7822-20.2148 24.6582-17.9443 24.6582-15.2832C24.6582-12.6709 26.8066-10.3271 29.4678-10.3271ZM22.0703-30.3223L78.2471-30.3223C80.9326-30.3223 83.0566-32.6172 83.0566-35.2539C83.0566-37.9639 80.957-40.1855 78.2471-40.1855L22.0703-40.1855C19.3848-40.1855 17.2607-37.915 17.2607-35.2539C17.2607-32.666 19.4092-30.3223 22.0703-30.3223ZM14.5752-50.293L85.6201-50.293C88.3301-50.293 90.4297-52.5879 90.4297-55.2246C90.4297-57.959 88.3545-60.1807 85.6201-60.1807L14.5752-60.1807C11.8896-60.1807 9.76562-57.9102 9.76562-55.2246C9.76562-52.6367 11.9141-50.293 14.5752-50.293Z"/>
  </g>
  <g id="Semibold-S" transform="matrix(1 0 0 1 1993.67 696)">
   <path d="M29.0856-10.8515L70.2809-10.8515C72.6998-10.8515 74.6194-12.8798 74.6194-15.301C74.6194-17.7354 72.7153-19.7172 70.2809-19.7172L29.0856-19.7172C26.6667-19.7172 24.7471-17.7044 24.7471-15.301C24.7471-12.9108 26.6822-10.8515 29.0856-10.8515ZM21.6615-30.8377L77.705-30.8377C80.1239-30.8377 82.0436-32.866 82.0436-35.2539C82.0436-37.6884 80.1395-39.6701 77.705-39.6701L21.6615-39.6701C19.2426-39.6701 17.3229-37.6573 17.3229-35.2539C17.3229-32.8971 19.2581-30.8377 21.6615-30.8377ZM14.1042-50.7906L85.0958-50.7906C87.548-50.7906 89.4344-52.8189 89.4344-55.2068C89.4344-57.6746 87.5636-59.6563 85.0958-59.6563L14.1042-59.6563C11.6853-59.6563 9.76562-57.6436 9.76562-55.2068C9.76562-52.85 11.7008-50.7906 14.1042-50.7906Z"/>
  </g>
  <g id="Medium-S" transform="matrix(1 0 0 1 1697.33 696)">
   <path d="M28.7959-11.249L69.8496-11.249C72.0664-11.249 73.8311-13.0752 73.8311-15.3145C73.8311-17.54 72.0752-19.3398 69.8496-19.3398L28.7959-19.3398C26.5791-19.3398 24.8145-17.5225 24.8145-15.3145C24.8145-13.0928 26.5879-11.249 28.7959-11.249ZM21.3516-31.2285L77.2939-31.2285C79.5107-31.2285 81.2754-33.0547 81.2754-35.2539C81.2754-37.4795 79.5195-39.2793 77.2939-39.2793L21.3516-39.2793C19.1348-39.2793 17.3701-37.4619 17.3701-35.2539C17.3701-33.0723 19.1436-31.2285 21.3516-31.2285ZM13.7471-51.168L84.6982-51.168C86.9551-51.168 88.6797-52.9941 88.6797-55.1934C88.6797-57.459 86.9639-59.2588 84.6982-59.2588L13.7471-59.2588C11.5303-59.2588 9.76562-57.4414 9.76562-55.1934C9.76562-53.0117 11.5391-51.168 13.7471-51.168Z"/>
  </g>
  <g id="Regular-S" transform="matrix(1 0 0 1 1401.11 696)">
   <path d="M28.418-11.7676L69.2871-11.7676C71.2402-11.7676 72.8027-13.3301 72.8027-15.332C72.8027-17.2852 71.2402-18.8477 69.2871-18.8477L28.418-18.8477C26.4648-18.8477 24.9023-17.2852 24.9023-15.332C24.9023-13.3301 26.4648-11.7676 28.418-11.7676ZM20.9473-31.7383L76.7578-31.7383C78.7109-31.7383 80.2734-33.3008 80.2734-35.2539C80.2734-37.207 78.7109-38.7695 76.7578-38.7695L20.9473-38.7695C18.9941-38.7695 17.4316-37.207 17.4316-35.2539C17.4316-33.3008 18.9941-31.7383 20.9473-31.7383ZM13.2812-51.6602L84.1797-51.6602C86.1816-51.6602 87.6953-53.2227 87.6953-55.1758C87.6953-57.1777 86.1816-58.7402 84.1797-58.7402L13.2812-58.7402C11.3281-58.7402 9.76562-57.1777 9.76562-55.1758C9.76562-53.2227 11.3281-51.6602 13.2812-51.6602Z"/>
  </g>
  <g id="Light-S" transform="matrix(1 0 0 1 1104.89 696)">
   <path d="M29.0083-13.0239L67.6372-13.0239C69.1362-13.0239 70.3355-14.2231 70.3355-15.771C70.3355-17.27 69.1362-18.4692 67.6372-18.4692L29.0083-18.4692C27.4941-18.4692 26.2949-17.27 26.2949-15.771C26.2949-14.2231 27.4941-13.0239 29.0083-13.0239ZM20.811-32.5405L75.8345-32.5405C77.3335-32.5405 78.5479-33.7549 78.5479-35.2539C78.5479-36.7529 77.3335-37.9673 75.8345-37.9673L20.811-37.9673C19.2969-37.9673 18.0977-36.7529 18.0977-35.2539C18.0977-33.7549 19.2969-32.5405 20.811-32.5405ZM12.479-52.0386L83.998-52.0386C85.5308-52.0386 86.7114-53.2378 86.7114-54.7368C86.7114-56.2847 85.5308-57.4839 83.998-57.4839L12.479-57.4839C10.9648-57.4839 9.76562-56.2847 9.76562-54.7368C9.76562-53.2378 10.9648-52.0386 12.479-52.0386Z"/>
  </g>
  <g id="Thin-S" transform="matrix(1 0 0 1 808.834 696)">
   <path d="M29.7891-14.6855L65.4551-14.6855C66.3536-14.6855 67.0723-15.4043 67.0723-16.3516C67.0723-17.25 66.3536-17.9688 65.4551-17.9688L29.7891-17.9688C28.8554-17.9688 28.1367-17.25 28.1367-16.3516C28.1367-15.4043 28.8554-14.6855 29.7891-14.6855ZM20.6309-33.6015L74.6133-33.6015C75.5117-33.6015 76.2657-34.3555 76.2657-35.2539C76.2657-36.1524 75.5117-36.9063 74.6133-36.9063L20.6309-36.9063C19.6973-36.9063 18.9785-36.1524 18.9785-35.2539C18.9785-34.3555 19.6973-33.6015 20.6309-33.6015ZM11.418-52.5391L83.7578-52.5391C84.6699-52.5391 85.4102-53.2578 85.4102-54.1563C85.4102-55.1035 84.6699-55.8223 83.7578-55.8223L11.418-55.8223C10.4844-55.8223 9.76562-55.1035 9.76562-54.1563C9.76562-53.2578 10.4844-52.5391 11.418-52.5391Z"/>
  </g>
  <g id="Ultralight-S" transform="matrix(1 0 0 1 512.456 696)">
   <path d="M30.189-15.5366L64.3374-15.5366C64.9283-15.5366 65.4009-16.0093 65.4009-16.6489C65.4009-17.2397 64.9283-17.7124 64.3374-17.7124L30.189-17.7124C29.5527-17.7124 29.08-17.2397 29.08-16.6489C29.08-16.0093 29.5527-15.5366 30.189-15.5366ZM20.5386-34.145L73.9878-34.145C74.5786-34.145 75.0967-34.6631 75.0967-35.2539C75.0967-35.8447 74.5786-36.3628 73.9878-36.3628L20.5386-36.3628C19.9023-36.3628 19.4297-35.8447 19.4297-35.2539C19.4297-34.6631 19.9023-34.145 20.5386-34.145ZM10.8745-52.7954L83.6348-52.7954C84.229-52.7954 84.7437-53.2681 84.7437-53.8589C84.7437-54.4986 84.229-54.9712 83.6348-54.9712L10.8745-54.9712C10.2383-54.9712 9.76562-54.4986 9.76562-53.8589C9.76562-53.2681 10.2383-52.7954 10.8745-52.7954Z"/>
  </g>
 </g>
</svg>
